<?xml version="1.0" standalone="no"?>
<!DOCTYPE svg PUBLIC "-//W3C//DTD SVG 1.1//EN" "http://www.w3.org/Graphics/SVG/1.1/DTD/svg11.dtd" >
<svg>
<metadata>
Created by FontForge 20090914 at Fri Jan 20 18:06:15 2023
 By www-data
Lightmoon &#194;&#169; Sakha Design 2021. All Rights Reserved
</metadata>
<defs>
<font id="Lightmoon" horiz-adv-x="1477" >
  <font-face 
    font-family="Lightmoon"
    font-weight="400"
    font-stretch="normal"
    units-per-em="2048"
    panose-1="2 0 5 0 0 0 0 0 0 0"
    ascent="1638"
    descent="-410"
    x-height="680.999"
    cap-height="1699"
    bbox="-702.999 -736 2704 2079"
    underline-thickness="150"
    underline-position="-142"
    unicode-range="U+001D-U+E265"
  />
<missing-glyph horiz-adv-x="1024" 
d="M100 0v1434h824v-1434h-824zM150 50c118 53.333 237.333 80 358 80s242.667 -26.667 366 -80v1334c-128 -39.333 -252.333 -59 -373 -59s-237.667 19.667 -351 59v-1334zM419 334l57 57.999c7.33301 6.66699 14 10 20 10c6.66699 0 14 -3.66699 22 -11l56 -60
c6 -7.33301 9 -14 9 -20c0 -7.33301 -3.33301 -14.666 -10 -21.999l-56 -62c-9.33301 -9.33301 -16.333 -14 -21 -14c-7.33301 0 -14 3.33301 -20 10l-61 71c-4.66699 6 -7 12 -7 18c0 6.66699 3.66699 14 11 22zM413 1191c35.333 20 72.6689 29.9971 112.002 29.9971
c61.333 0 110.666 -15.833 147.999 -47.5s56 -74.167 56 -127.5c0 -32.667 -7.66699 -65.5 -23 -98.5s-44.333 -76.167 -87 -129.5c-42 -53.333 -75 -97.333 -99 -132s-36 -67.667 -36 -99c0 -25.333 8 -69.666 24 -132.999h-32c-23.333 64.667 -35 114 -35 148
c0 50.667 27.167 123.334 81.5 218.001s81.5 167 81.5 217c0 38 -11 68 -33 90s-52.333 33 -91 33c-5.33301 0 -10.666 -0.333008 -15.999 -1l32 -51c3.33301 -6 5 -11.667 5 -17v-4c-1.33301 -7.33301 -6 -14 -14 -20l-66 -50c-10.667 -6.66699 -18.334 -10 -23.001 -10h-1
c-6.66699 1.33301 -12.334 6 -17.001 14l-47 81c-2.66699 4.66699 -4 9.33398 -4 14.001c0 1.33301 0.333008 3 1 5c0.666992 6.66699 10.167 17.5 28.5 32.5s36.5 27.5 54.5 37.5z" />
    <glyph glyph-name="A.swsh" unicode="A__" horiz-adv-x="2500" 
d="M101 422c-15.333 0 -34.666 8.99805 -57.999 26.998c-28.667 20.667 -43 38.667 -43 54c0 3.33301 1 6.33301 3 9c47.333 60.667 131.666 116.334 252.999 167.001c200 81.333 448.333 147 745 197c372 62.667 714.667 94 1028 94c194.667 0 347.667 -14.333 459 -43
c8 -4 12 -11.667 12 -23c-0.666992 -11.333 -3.5 -21.333 -8.5 -30s-10.5 -13 -16.5 -13l-5 1c-102 26 -236.667 39 -404 39c-310 0 -651 -35.667 -1023 -107c-279.333 -54 -512.333 -122.333 -699 -205c-107.333 -49.333 -183.333 -102.666 -228 -159.999
c-3.33301 -4.66699 -8.33301 -7 -15 -7z" />
    <glyph glyph-name="B.swsh" unicode="B__" horiz-adv-x="2355" 
d="M35 381c-7.33301 0 -15.667 7.66699 -25 23c-6.66699 10.667 -10 20 -10 28c0 3.33301 1 5.66602 3 6.99902c78 48.667 198.333 106.834 361 174.501s345.667 132.167 549 193.5c177.333 53.333 354.333 95.333 531 126c138.667 24.667 267.334 37 386.001 37
c33.333 0 65.666 -1 96.999 -3c212 -12.667 354 -79 426 -199c1.33301 -3.33301 2 -7 2 -11c0 -10.667 -7.66699 -22.667 -23 -36s-34 -23 -56 -29c-8 -2 -15 -3 -21 -3c-11.333 0 -20 3.66699 -26 11c-28 48.667 -70.667 86 -128 112c-82 37.333 -194 56 -336 56
c-218.667 0 -492 -45.667 -820 -137c-200.667 -56 -382.5 -116.167 -545.5 -180.5s-282.833 -120.5 -359.5 -168.5z" />
    <glyph glyph-name="C.swsh" unicode="C__" horiz-adv-x="2509" 
d="M34 306c-7.33301 0 -14.5049 2.83594 -21.5049 8.50293s-11.167 13.167 -12.5 22.5c0 9.33301 2.66699 17.666 8 24.999c50.667 58.667 129.334 119 236.001 181c212.667 123.333 431.334 217.666 656.001 282.999c86 25.333 157.333 38 214 38c82 0 123 -28 123 -84
c0 -16 -6.33301 -37.333 -19 -64c-10 -24.667 -15 -42 -15 -52c0 -11.333 4.66699 -19.333 14 -24c24.667 -13.333 63.334 -20 116.001 -20c31.333 0 85 4.5 161 13.5s191.667 35.167 347 78.5c142.667 41.333 270.5 85.5 383.5 132.5s188.5 87.833 226.5 122.5
c7.33301 6.66699 15.666 10 25 10c8.66699 -0.666992 16.334 -4.33398 23 -11.001c6.66699 -6.66699 10 -14.667 10 -24c-0.666992 -9.33301 -4.33398 -17.333 -11 -24c-51.333 -45.333 -138.666 -92.666 -261.999 -141.999c-191.333 -77.333 -389 -138.333 -593 -183
c-121.333 -27.333 -224.666 -41 -309.999 -41c-62.667 0 -112.667 10 -150 30c-32.667 19.333 -49 46.666 -49 81.999c0 21.333 7 47.333 21 78c9.33301 18.667 14 32.667 14 42c-4 8.66699 -22 13 -54 13c-44 0 -110.167 -12 -198.5 -36s-195.5 -63.333 -321.5 -118
c-270.667 -119.333 -448.667 -227.333 -534 -324c-8 -8.66699 -17 -13 -27 -13z" />
    <glyph glyph-name="D.swsh" unicode="D__" horiz-adv-x="2046" 
d="M1814 417c-95.333 2 -202.67 27.1641 -322.003 75.4971s-245.166 105.333 -377.499 171s-263.5 125 -393.5 178s-251 83.833 -363 92.5h-27c-84.667 0 -148.667 -15.333 -192 -46c-47.333 -33.333 -71 -75.666 -71 -126.999c0 -41.333 16.167 -81.666 48.5 -120.999
s82.5 -65 150.5 -77c9.33301 -2 16.5 -6.33301 21.5 -13s7.5 -13.667 7.5 -21c0 -11.333 -4.66699 -20.333 -14 -27c-6 -4.66699 -13.333 -7 -22 -7h-3c-81.333 13.333 -146.666 48.333 -195.999 105c-40.667 49.333 -61 103.333 -61 162c0 68 31 127 93 177
c52 42 132 63 240 63h29c118 -8.66699 244 -40.167 378 -94.5s269 -115.5 405 -183.5c128.667 -63.333 250.334 -118.5 365.001 -165.5s215.667 -71.5 303 -73.5c65.333 0 110.333 16.667 135 50c19.333 26 29 63 29 111c0 28.667 -3.33301 61.334 -10 98.001v6
c0 7.33301 2 14.333 6 21c6 8.66699 15 13 27 13c18.667 0 30 -9 34 -27c8 -40 12 -76.667 12 -110c0 -64 -14.667 -115 -44 -153c-38 -51.333 -100.667 -77 -188 -77z" />
    <glyph glyph-name="E.swsh" unicode="E__" horiz-adv-x="2142" 
d="M34 335c-12 0 -22.002 6.33301 -30.002 19c-2.66699 5.33301 -4 10.666 -4 15.999c0 12.667 6.33301 22.667 19 30c612 301.333 1024 452 1236 452c88 0 141.667 -27.333 161 -82c122 38 268 57 438 57c81.333 0 167.333 -4.66699 258 -14c20 -2.66699 30 -14 30 -34
c0 -10.667 -3.66699 -19 -11 -25s-15 -9 -23 -9h-3c-88.667 9.33301 -172.667 14 -252 14c-144.667 0 -273.667 -15.333 -387 -46c-17.333 -4 -33.666 -8.66699 -48.999 -14c-17.333 -54.667 -50 -106.667 -98 -156c-74.667 -76.667 -135.667 -115 -183 -115
c-15.333 0 -28.333 3.66699 -39 11c-19.333 13.333 -29 32.333 -29 57c0 32.667 19 70.334 57 113.001c49.333 54 125 100.333 227 139c-2.66699 7.33301 -5.66699 12.333 -9 15c-5.33301 6 -18 11.667 -38 17c-11.333 3.33301 -27 5 -47 5c-14.667 0 -38 -1.5 -70 -4.5
s-87.667 -15.167 -167 -36.5c-231.333 -64.667 -555 -199.667 -971 -405c-5.33301 -2.66699 -10.666 -4 -15.999 -4zM1137 496c22.667 0 59.332 23.667 109.999 71c32 30 59.333 62.667 82 98c-73.333 -34.667 -124.666 -69 -153.999 -103c-26 -28 -39 -50 -39 -66h1z" />
    <glyph glyph-name="F.swsh" unicode="F__" horiz-adv-x="1847" 
d="M231 432l-7.99805 0.00292969c-74.667 0 -132.334 18.333 -173.001 55c-33.333 32 -50 76.333 -50 133c0 28.667 4.33301 61 13 97c4.66699 17.333 15.667 26 33 26l8 -1c17.333 -5.33301 26 -16 26 -32l-1 -9c-7.33301 -30.667 -11 -57.667 -11 -81
c0 -37.333 9.66699 -65.333 29 -84c28.667 -24 72.667 -36 132 -36c74 1.33301 163 14.666 267 39.999s211.667 54.666 323 87.999c134 39.333 265.333 74.333 394 105c137.333 32.667 259.666 49 366.999 49c101.333 0 185.666 -22.333 252.999 -67
c9.33301 -7.33301 14 -16.333 14 -27c0 -6.66699 -2 -13.334 -6 -20.001c-6.66699 -10 -16.334 -15 -29.001 -15c-6 0 -12 2 -18 6c-55.333 36.667 -127.333 55 -216 55c-10 0 -43.333 -1.16699 -100 -3.5s-146.667 -18.5 -270 -48.5s-246.666 -63.333 -369.999 -100
c-119.333 -35.333 -231.166 -65.833 -335.499 -91.5s-194.833 -38.5 -271.5 -38.5z" />
    <glyph glyph-name="ss" unicode="ss" horiz-adv-x="899" 
d="M32 -157c-13.333 0 -26.3311 0.664062 -38.998 1.99707c-79.333 14.667 -119 65.667 -119 153c0 28.667 5.66699 58.334 17 89.001c22 50.667 55 91 99 121c35.333 25.333 72.333 47 111 65c-32.667 32.667 -62.667 67.667 -90 105c-40 53.333 -60 103 -60 149
c0 38.667 16.333 77.667 49 117c44.667 51.333 103 84.333 175 99c17.333 3.33301 34.333 5 51 5c29.333 0 60.166 -7.33301 92.499 -22s53.5 -50.667 63.5 -108l1 -13c0 -14 -3.33301 -29 -10 -45c-6 -12.667 -15 -19 -27 -19c-4.66699 0 -9.33398 1.33301 -14.001 4
c-11.333 7.33301 -17 17.333 -17 30c0 4.66699 1.33301 9.66699 4 15v1c0 5.33301 -10 8.33301 -30 9c-20.667 0 -45.667 -4.16699 -75 -12.5s-55.666 -21.833 -78.999 -40.5c-29.333 -24 -44 -54.667 -44 -92c0 -40 24.667 -90.333 74 -151c47.333 20.667 95.333 39 144 55
l1 1c42.667 14.667 82.667 26.667 120 36c-24.667 36 -37 69.667 -37 101c0 32 15 64 45 96c42.667 42.667 95.667 69.667 159 81c16 3.33301 31.333 5 46 5c26.667 0 54.667 -6.16699 84 -18.5s48.666 -41.833 57.999 -88.5l1 -9c0 -12.667 -3.33301 -25.667 -10 -39
c-5.33301 -10 -13 -15 -23 -15c-4.66699 0 -9 1 -13 3c-10.667 4.66699 -16 13 -16 25c0 4 1 8 3 12v1c0 4 -8.66699 6 -26 6c-54 0 -101 -14.333 -141 -43c-26.667 -19.333 -40 -44.666 -40 -75.999c0 -32 21.667 -72.333 65 -121c154.667 62.667 271.667 94 351 94
c9.33301 0 16.833 -3.16699 22.5 -9.5s8.5 -12.833 8.5 -19.5c0 -10 -3 -17.667 -9 -23s-12.667 -8 -20 -8h-7c-21.333 0 -51.833 -4.5 -91.5 -13.5s-80 -19.667 -121 -32s-71.833 -22.166 -92.5 -29.499l36 -31l52 -46c34.667 -32.667 52 -63.667 52 -93
c0 -36.667 -32.333 -74.667 -97 -114c-66 -37.333 -133.333 -56 -202 -56c-62 0 -104 18.667 -126 56c-16 -24.667 -44.667 -51 -86 -79c-74 -46 -148.333 -69 -223 -69zM5.00195 22.9971c32.667 0 66.998 5.66602 102.998 16.999c30.667 9.33301 56.334 21.5 77.001 36.5
s31 32.5 31 52.5v2c-5.33301 26 -22.666 52.667 -51.999 80l-18 18c-103.333 -48 -170 -104.667 -200 -170c-1.33301 -3.33301 -2 -6.66602 -2 -9.99902c0 -17.333 20.333 -26 61 -26zM335 124.996c16 44.667 47.335 81.333 94.002 110c31.333 20 64.666 37.667 99.999 53
c-19.333 18 -38.333 36.667 -57 56c-42.667 -9.33301 -90.667 -23 -144 -41c-40.667 -14 -80.667 -29.333 -120 -46l39 -38c41.333 -38 70.666 -69.333 87.999 -94zM446.002 82.9951c25.333 0 55.332 4.33398 89.999 13.001c65.333 18.667 98 43.667 98 75
c-4.66699 22 -20.667 44 -48 66l-16 15c-95.333 -41.333 -155.666 -88 -180.999 -140c-1.33301 -2.66699 -2 -5.33398 -2 -8.00098c0 -14 19.667 -21 59 -21z" />
    <glyph glyph-name="tt" unicode="tt" horiz-adv-x="812" 
d="M553 -100c-13.333 0 -27.668 2.00098 -43.001 6.00098c-65.333 20 -113.666 59.667 -144.999 119l-2 3c-26.667 -85.333 -67.334 -128 -122.001 -128c-13.333 0 -27.666 2 -42.999 6c-64.667 20 -113 59.667 -145 119c-27.333 51.333 -44.333 104.333 -51 159
c-4 34.667 -6 71 -6 109c0 157.333 37 367 111 629c37.333 133.333 78.666 271 123.999 413c-238.667 -67.333 -405.334 -144 -500.001 -230c-7.33301 -6 -15 -9 -23 -9c-9.33301 0 -17.333 3.5 -24 10.5s-10 14.5 -10 22.5v8c0 5.33301 3.66699 11.333 11 18
c109.333 98 299.333 184 570 258c30 95.333 45 159.333 45 192l-1 11c14.667 14 43.667 26.5 87 37.5s82.333 16.833 117 17.5c26.667 0 40 -4 40 -12c0 -4 -1 -9.33301 -3 -16l-4 -13c-12 -44.667 -28.333 -98.334 -49 -161.001c36 8 70 15 102 21
c14.667 52 22 89.333 22 112c0 5.33301 -0.333008 10 -1 14c14.667 14 43.667 26.5 87 37.5s82.333 16.833 117 17.5c26.667 0 40.334 -3.66699 41.001 -11c0 -4.66699 -1.33301 -10.334 -4 -17.001l-4 -13c-7.33301 -29.333 -17 -63 -29 -101c286 42.667 534.333 64 745 64
c34.667 0 68 -0.666992 100 -2c9.33301 -0.666992 17 -4.5 23 -11.5s9 -15.167 9 -24.5c-0.666992 -9.33301 -4.16699 -17 -10.5 -23s-13.833 -9 -22.5 -9h-3c-33.333 1.33301 -68.333 2 -105 2c-207.333 0 -460.666 -22.667 -759.999 -68l-61 -177
c-41.333 -116 -82.666 -238.667 -123.999 -368c-89.333 -278 -134 -497 -134 -657c0 -53.333 7.66699 -107.666 23 -162.999c12 -40 27.667 -71.333 47 -94c6.66699 -6.66699 13 -10 19 -10c16.667 0 36.667 34.667 60 104c19.333 53.333 29.666 80.666 30.999 81.999
c44 116 105.333 191.333 184 226c4 1.33301 8 2 12 2c4.66699 0 10 -1.33301 16 -4c12.667 -5.33301 19 -15.333 19 -30s-7.33301 -25.334 -22 -32.001c-59.333 -26 -108 -88.333 -146 -187l-1 -3c-17.333 -43.333 -29 -75.666 -35 -96.999
c-8 -23.333 -16.667 -45.666 -26 -66.999c-24.667 -54.667 -59 -82 -103 -82zM251.998 -11.999c8 0 16.6689 7.16504 26.002 21.498s25 52.833 47 115.5c-11.333 42 -17 98.667 -17 170c0 72.667 9 162.334 27 269.001s45.667 225.834 83 357.501s73.333 252.167 108 361.5
l41 133l-106 -22c-82.667 -238.667 -137.334 -399.334 -164.001 -482.001c-89.333 -275.333 -134 -492.666 -134 -651.999c0 -58.667 8 -114.667 24 -168c11.333 -40 26.666 -71.333 45.999 -94c6.66699 -6.66699 13 -10 19 -10z" />
    <glyph glyph-name="th" unicode="th" horiz-adv-x="1102" 
d="M775 -105c-36 4 -65.0029 22.335 -87.0029 55.002c-28 40 -42 87.333 -42 142c0 42 5.33301 88 16 138c31.333 146.667 82 270.667 152 372c-35.333 -12.667 -71 -33.667 -107 -63c-66 -54 -117 -120 -153 -198l-1 -1c-24.667 -54.667 -37 -111.334 -37 -170.001v-13
c4 -58.667 22.333 -111.667 55 -159c4 -6 6 -12.333 6 -19c0 -12 -5 -21.667 -15 -29c-25.333 -16.667 -47.666 -25 -66.999 -25c-8.66699 0 -17 1.33301 -25 4c-47.333 16.667 -84.666 44.334 -111.999 83.001c-24.667 -72 -62.667 -108 -114 -108
c-13.333 0 -27.666 2 -42.999 6c-65.333 20 -113.666 59.667 -144.999 119c-27.333 51.333 -44.333 104.333 -51 159c-4 34.667 -6 71 -6 109c0 160.667 36.667 370.334 110 629.001c38 133.333 79.667 271 125 413c-238.667 -67.333 -405.334 -144 -500.001 -230
c-7.33301 -6 -15 -9 -23 -9c-9.33301 0 -17.333 3.5 -24 10.5s-10 14.5 -10 22.5v8c0 5.33301 3.66699 11.333 11 18c111.333 99.333 301.333 185 570 257c30 96 45 160.333 45 193l-1 11c14.667 14 43.5 26.5 86.5 37.5s82.167 16.833 117.5 17.5c26.667 0 40 -4 40 -12
c0 -4 -1.33301 -9.33301 -4 -16l-4 -13c-11.333 -44.667 -27.333 -98.334 -48 -161.001l82 17c16 56.667 24 96 24 118c0 4.66699 -0.333008 8.66699 -1 12c14.667 14 43.5 26.5 86.5 37.5s82.167 16.833 117.5 17.5c26.667 0 40 -4 40 -12c0 -4 -1.33301 -9.33301 -4 -16
l-4 -13c-7.33301 -30.667 -17.333 -65.334 -30 -104.001c291.333 44.667 544.666 67 759.999 67c35.333 0 70 -0.666992 104 -2c10 -0.666992 18 -4.5 24 -11.5s9 -15.167 9 -24.5c-0.666992 -9.33301 -4.33398 -17 -11.001 -23s-14 -9 -22 -9h-3
c-32.667 1.33301 -67 2 -103 2c-213.333 0 -474 -24 -782 -72l-60 -173c-59.333 -164 -116 -337.333 -170 -520s-83.333 -347 -88 -493c7.33301 33.333 18 65.666 32 96.999c43.333 92 102.166 167.5 176.499 226.5s148.5 89.167 222.5 90.5l8 -1l10 1
c22 0 45.333 -8 70 -24s37 -40 37 -72c-3.33301 -15.333 -21 -59.666 -53 -132.999c-84 -193.333 -137 -334 -159 -422c-3.33301 -14 -5 -24.333 -5 -31c0 -9.33301 3 -14 9 -14l7 1c4.66699 0 18 8.33301 40 25c106.667 92.667 192.334 214.667 257.001 366
c6 14 16.333 21 31 21c4.66699 0 9.33398 -1 14.001 -3c14 -6 21 -16.333 21 -31c0 -4 -1 -8.33301 -3 -13c-19.333 -45.333 -43.666 -93 -72.999 -143c-65.333 -114.667 -133.333 -201.334 -204 -260.001c-46 -38 -86.667 -57 -122 -57zM254.997 -7.99805
c17.333 0 37.333 34.667 60 104c0.666992 0 1 0.333008 1 1s0.333008 1.33398 1 2.00098c-17.333 59.333 -26 126.333 -26 201c0 48 6.5 120.5 19.5 217.5s39.833 219.167 80.5 366.5s80.667 281.666 120 402.999l39 129l-86 -18l-40 -114
c-41.333 -116.667 -82.666 -239.667 -123.999 -369c-89.333 -276.667 -134 -493.667 -134 -651c0 -58.667 8 -114.667 24 -168c11.333 -40 26.666 -71.333 45.999 -94c6.66699 -6.66699 13 -10 19 -10z" />
    <glyph glyph-name="st" unicode="st" horiz-adv-x="1134" 
d="M12 -161c-69.333 0 -115.671 23.334 -139.004 70.001c-14 29.333 -21 58.333 -21 87c0 36 11 71 33 105c26 33.333 64.667 69.666 116 108.999l78 61c-82 82 -130 154.333 -144 217c-3.33301 12 -5 24 -5 36c0 38.667 16.667 77.334 50 116.001
c44.667 51.333 103 84.333 175 99c17.333 3.33301 34 5 50 5c29.333 0 60.333 -7.33301 93 -22s54 -50.667 64 -108c0.666992 -4 1 -8.33301 1 -13c0 -14 -3.33301 -29 -10 -45c-6 -12.667 -15 -19 -27 -19c-4.66699 0 -9.33398 1.33301 -14.001 4
c-11.333 7.33301 -17 17.666 -17 30.999c0 4.66699 1 9.33398 3 14.001v1c0 5.33301 -10 8.33301 -30 9c-20 0 -44.667 -4.16699 -74 -12.5s-56 -21.833 -80 -40.5c-28 -22.667 -42 -51 -42 -85c0 -35.333 21 -82.666 63 -141.999c72 55.333 149.833 125.333 233.5 210
s167.834 190.834 252.501 318.501s164.667 283.5 240 467.5c-191.333 -58.667 -332.666 -127.667 -423.999 -207c-6.66699 -6 -14.334 -9 -23.001 -9s-17 3.66699 -25 11c-5.33301 6.66699 -8 14 -8 22c0 10.667 3.33301 19.334 10 26.001c102 90 267.333 168.667 496 236
c34.667 108 52 179.333 52 214c0 4 -0.333008 7.66699 -1 11c14.667 14 43.5 26.5 86.5 37.5s82.167 16.833 117.5 17.5c14.667 0 25 -0.833008 31 -2.5s9 -4.83398 9 -9.50098c0 -4 -1.33301 -9.33301 -4 -16l-4 -13c-12.667 -48.667 -30.667 -107.667 -54 -177
c249.333 56.667 504.666 97 765.999 121c142.667 12.667 269.667 19 381.001 19c36 0 70 -0.666992 102 -2c9.33301 -0.666992 17 -4.33398 23 -11.001s9 -14 9 -22c0 -10.667 -3.33301 -19.167 -10 -25.5s-15 -9.5 -25 -9.5c-32 1.33301 -65.667 2 -101 2
c-134 0 -305.333 -11.333 -514 -34s-427.667 -60.667 -657 -114l-34 -97c-41.333 -116 -82.666 -238.667 -123.999 -368c-89.333 -276.667 -134 -495.667 -134 -657c0 -54 7.66699 -108.333 23 -163c12 -40 27.667 -71.333 47 -94c6.66699 -6.66699 13 -10 19 -10
c16.667 0 36.667 34.667 60 104c19.333 53.333 29.666 80.666 30.999 81.999c44 116 105.333 191.333 184 226c4 1.33301 8 2 12 2c14.667 0 25.334 -7 32.001 -21c2 -4.66699 3 -9 3 -13c0 -15.333 -7.33301 -26 -22 -32c-59.333 -26 -108 -88.333 -146 -187l-1 -3
c-14 -35.333 -25.667 -67.333 -35 -96c-8 -23.333 -16.667 -46 -26 -68c-23.333 -54.667 -57.666 -82 -102.999 -82c-13.333 0 -27.666 2 -42.999 6c-65.333 20 -113.666 59.667 -144.999 119c-28 51.333 -45 104.333 -51 159c-4 34.667 -6 70.667 -6 108
c0 77.333 9.83301 172 29.5 284s48.834 235.667 87.501 371c-152.667 -269.333 -345.667 -495.333 -579 -678c15.333 -17.333 33.166 -35.333 53.499 -54s39.5 -37.334 57.5 -56.001c38 -38.667 57 -76 57 -112c0 -18 -6.83301 -38.333 -20.5 -61s-42.5 -48.667 -86.5 -78
c-73.333 -46 -147.333 -69 -222 -69zM-13.0049 19.001c30 0 63.667 5.66699 101 17c71.333 22 107 51.667 107 89v2c-4.66699 26 -22 52.667 -52 80l-21 21l-83 -64l-1 -1c-46.667 -36 -81 -68.333 -103 -97c-6.66699 -10 -10 -18 -10 -24c0 -3.33301 2.66699 -8 8 -14
s23.333 -9 54 -9z" />
    <glyph glyph-name=".notdef" horiz-adv-x="1024" 
d="M100 0v1434h824v-1434h-824zM150 50c118 53.333 237.333 80 358 80s242.667 -26.667 366 -80v1334c-128 -39.333 -252.333 -59 -373 -59s-237.667 19.667 -351 59v-1334zM419 334l57 57.999c7.33301 6.66699 14 10 20 10c6.66699 0 14 -3.66699 22 -11l56 -60
c6 -7.33301 9 -14 9 -20c0 -7.33301 -3.33301 -14.666 -10 -21.999l-56 -62c-9.33301 -9.33301 -16.333 -14 -21 -14c-7.33301 0 -14 3.33301 -20 10l-61 71c-4.66699 6 -7 12 -7 18c0 6.66699 3.66699 14 11 22zM413 1191c35.333 20 72.6689 29.9971 112.002 29.9971
c61.333 0 110.666 -15.833 147.999 -47.5s56 -74.167 56 -127.5c0 -32.667 -7.66699 -65.5 -23 -98.5s-44.333 -76.167 -87 -129.5c-42 -53.333 -75 -97.333 -99 -132s-36 -67.667 -36 -99c0 -25.333 8 -69.666 24 -132.999h-32c-23.333 64.667 -35 114 -35 148
c0 50.667 27.167 123.334 81.5 218.001s81.5 167 81.5 217c0 38 -11 68 -33 90s-52.333 33 -91 33c-5.33301 0 -10.666 -0.333008 -15.999 -1l32 -51c3.33301 -6 5 -11.667 5 -17v-4c-1.33301 -7.33301 -6 -14 -14 -20l-66 -50c-10.667 -6.66699 -18.334 -10 -23.001 -10h-1
c-6.66699 1.33301 -12.334 6 -17.001 14l-47 81c-2.66699 4.66699 -4 9.33398 -4 14.001c0 1.33301 0.333008 3 1 5c0.666992 6.66699 10.167 17.5 28.5 32.5s36.5 27.5 54.5 37.5z" />
    <glyph glyph-name="uni0000" horiz-adv-x="0" 
 />
    <glyph glyph-name="uni0000" horiz-adv-x="0" 
 />
    <glyph glyph-name="space" unicode=" " horiz-adv-x="695" 
 />
    <glyph glyph-name="space" unicode="&#xa0;" horiz-adv-x="695" 
 />
    <glyph glyph-name="exclam" unicode="!" horiz-adv-x="394" 
d="M285 7c-80.667 26.667 -140.836 81.166 -180.503 163.499s-64.5 181.5 -74.5 297.5c-6.66699 70.667 -10 143.334 -10 218.001c0 47.333 2.33301 115 7 203s12.334 188.667 23.001 302c12 118.667 18 216 18 292c0 43.333 -2 79.666 -6 108.999
c-0.666992 6 -1 11.333 -1 16c0 20 7.5 39.5 22.5 58.5s37.833 30.833 68.5 35.5c6.66699 0.666992 13 1 19 1c22.667 0 44.667 -6.33301 66 -19s35.333 -32.667 42 -60c3.33301 -20.667 5 -45 5 -73c0 -38 -4.5 -92.333 -13.5 -163s-23.5 -162.334 -43.5 -275.001
c-27.333 -148 -49.666 -296.333 -66.999 -445c-8 -71.333 -12 -137.666 -12 -198.999c0 -68 7 -143.667 21 -227s62 -139 144 -167c10.667 -4 18.334 -10 23.001 -18c3.33301 -5.33301 5 -10.666 5 -15.999c0 -3.33301 -1 -7 -3 -11c-4 -9.33301 -11 -16.333 -21 -21
c-5.33301 -2.66699 -11 -4 -17 -4c-4.66699 0 -9.66699 0.666992 -15 2zM237.998 -30.001c28.667 0 53.5 -9 74.5 -27s31.5 -39.667 31.5 -65s-10.5 -47 -31.5 -65s-45.833 -27 -74.5 -27c-29.333 0 -54.333 9 -75 27s-31 39.667 -31 65s10.333 47 31 65s45.667 27 75 27z
" />
    <glyph glyph-name="quotedbl" unicode="&#x22;" horiz-adv-x="352" 
d="M63 1416c-6 0 -11.667 2.00098 -17 6.00098c-8 6.66699 -12 15 -12 25c0 5.33301 2.33301 11.666 7 18.999c14 19.333 24.667 35.333 32 48c-15.333 3.33301 -28 11 -38 23s-15 26 -15 42c0 18.667 6.5 34.5 19.5 47.5s28.833 19.5 47.5 19.5s34.5 -6.5 47.5 -19.5
s19.5 -28.833 19.5 -47.5v-9c0 -36.667 -21 -82.667 -63 -138c-8 -10.667 -17.333 -16 -28 -16zM211 1416c-6 0 -11.667 2.00098 -17 6.00098c-8 6.66699 -12 15 -12 25c0 5.33301 2.33301 11.666 7 18.999c14 19.333 24.667 35.333 32 48c-15.333 3.33301 -28 11 -38 23
s-15 26 -15 42c0 18.667 6.5 34.5 19.5 47.5s28.833 19.5 47.5 19.5s34.5 -6.5 47.5 -19.5s19.5 -28.833 19.5 -47.5v-9c0 -36.667 -21 -82.667 -63 -138c-8 -10.667 -17.333 -16 -28 -16z" />
    <glyph glyph-name="numbersign" unicode="#" horiz-adv-x="1013" 
d="M627 726l19.0078 0.00683594c72.667 0 138.334 -10.833 197.001 -32.5s98.334 -63.5 119.001 -125.5c0.666992 -2.66699 1 -5.66699 1 -9s-0.833008 -7.5 -2.5 -12.5s-4.83398 -8.83301 -9.50098 -11.5c-2.66699 -1.33301 -5.33398 -2 -8.00098 -2
c-2 0 -4.83301 1.16699 -8.5 3.5s-6.83398 6.83301 -9.50098 13.5c-16.667 50 -53.334 80.333 -110.001 91c-26 4.66699 -54 7 -84 7c-36 0 -75.333 -3.33301 -118 -10c-5.33301 -41.333 -8 -80 -8 -116s4.33301 -76.833 13 -122.5s39.667 -76.5 93 -92.5
c6.66699 -2 11.667 -5.33301 15 -10c2 -2.66699 3 -5.33398 3 -8.00098c0 -2 -0.666992 -4 -2 -6c-2.66699 -5.33301 -7 -9.33301 -13 -12c-4 -1.33301 -8 -2 -12 -2c-2.66699 0 -5.33398 0.333008 -8.00098 1c-66 19.333 -111.333 61.333 -136 126s-37 140 -37 226
c-47.333 -10 -94.333 -20.667 -141 -32c-2.66699 -24.667 -4 -48.334 -4 -71.001c0 -42 5.83301 -84.333 17.5 -127s41.5 -71 89.5 -85c7.33301 -2 12.333 -5.33301 15 -10c2 -2.66699 3 -5.66699 3 -9c0 -1.33301 -0.333008 -3 -1 -5
c-2.66699 -5.33301 -7.33398 -9.33301 -14.001 -12c-3.33301 -1.33301 -7.33301 -2 -12 -2c-2.66699 0 -5.33398 0.333008 -8.00098 1c-59.333 16.667 -101.833 52.167 -127.5 106.5s-40.167 118.833 -43.5 193.5c-82.667 -20.667 -147.334 -31 -194.001 -31
c-10 0 -19 0.333008 -27 1c-14.667 3.33301 -26.334 12.666 -35.001 27.999c-7.33301 12.667 -11 27.334 -11 44.001v8c2.66699 19.333 9.33398 34.666 20.001 45.999c8.66699 9.33301 18.667 14 30 14c3.33301 0 6.33301 -0.333008 9 -1c11.333 -1.33301 24 -2 38 -2
c42 0 98.667 5.66699 170 17c1.33301 35.333 3.66602 70.333 6.99902 105c-52 -12.667 -98.667 -22.334 -140 -29.001c-26 -4.66699 -48.667 -7 -68 -7c-10.667 0 -20.334 0.666992 -29.001 2c-14.667 4 -26.334 13.333 -35.001 28c-6.66699 13.333 -10 28 -10 44v8
c2 20 8.33301 35.667 19 47c9.33301 8.66699 20 13 32 13h7c11.333 -1.33301 24.333 -2 39 -2c44 0 104 6 180 18c5.33301 1.33301 11 2.33301 17 3c7.33301 60.667 11 110.334 11 149.001c0 24 -1.33301 44 -4 60c-0.666992 2.66699 -1 5.66699 -1 9
c0 10.667 4.83301 21.167 14.5 31.5s24.5 16.833 44.5 19.5c4 0.666992 8.33301 1 13 1c14.667 0 28.834 -3.5 42.501 -10.5s22.5 -17.833 26.5 -32.5c2 -12 3 -25.667 3 -41c0 -42.667 -7.66699 -99.334 -23 -170.001c34 4 68.333 7 103 9c6 50.667 9 93 9 127
c0 22.667 -1.33301 41.667 -4 57c-0.666992 3.33301 -1 6.66602 -1 9.99902c0 10.667 4.83301 21 14.5 31s24.167 16.333 43.5 19c4 0.666992 8.33301 1 13 1c14.667 0 29 -3.5 43 -10.5s23 -17.833 27 -32.5c2 -12 3 -25.667 3 -41c0 -40.667 -7 -93.667 -21 -159
c69.333 -2.66699 129.333 -15.834 180 -39.501s84.667 -62.834 102 -117.501c1.33301 -3.33301 2 -6.66602 2 -9.99902s-0.833008 -7.5 -2.5 -12.5s-5.16699 -8.83301 -10.5 -11.5c-2.66699 -1.33301 -5 -2 -7 -2c-2.66699 0 -5.83398 1.16699 -9.50098 3.5
s-6.5 7.16602 -8.5 14.499c-14.667 44 -45.667 72.667 -93 86c-29.333 8 -62.666 12 -99.999 12c-22 0 -45 -1.33301 -69 -4c-10 -47.333 -19.333 -95.333 -28 -144zM418.008 827.007c-8 -39.333 -15.332 -79 -21.999 -119c42 5.33301 84.667 10 128 14
c2.66699 44 6 87 10 129c-38.667 -7.33301 -77.334 -15.333 -116.001 -24z" />
    <glyph glyph-name="dollar" unicode="$" horiz-adv-x="1367" 
d="M446 -339c-10.667 0 -19.335 3 -26.002 9c-9.33301 8 -15.666 45 -18.999 111c-100 4 -181.667 23.667 -245 59c-44 24 -77.667 54 -101 90s-35 75.667 -35 119c0 51.333 15.333 103.666 46 156.999c6.66699 10.667 15.334 16 26.001 16
c5.33301 0 10.666 -1.33301 15.999 -4c10 -5.33301 15 -13.666 15 -24.999c0 -4.66699 -1.66699 -9.66699 -5 -15c-25.333 -44.667 -38 -86 -38 -124c0 -33.333 8.66699 -63.333 26 -90c50 -75.333 148.333 -116.333 295 -123c4 139.333 28.333 274.166 73 404.499
s98 258.166 160 383.499c-36.667 35.333 -72.334 71.666 -107.001 108.999c-134.667 152 -202 290.333 -202 415c0 129.333 65.667 240.333 197 333c100.667 70.667 235.667 125.667 405 165c20 4.66699 39.667 8.66699 59 12c0 32.667 -1.33301 65.667 -4 99v3
c0 8 3 15.667 9 23s14.333 11 25 11c8 0 15.333 -2.83301 22 -8.5s10.667 -13.167 12 -22.5c2.66699 -32.667 4 -65 4 -97c20.667 2 40.334 3 59.001 3c86.667 0 147 -20.333 181 -61c15.333 -18 23 -39.667 23 -65c0 -27.333 -8.66699 -58.666 -26 -93.999
c-7.33301 -11.333 -16.666 -17 -27.999 -17c-4.66699 0 -9 1 -13 3c-11.333 6 -17 14.667 -17 26c0 4.66699 1.33301 9.33398 4 14.001c13.333 26 20 47.333 20 64c0 12.667 -3.66699 23 -11 31c-21.333 26 -67.333 39 -138 39c-17.333 0 -35.666 -1 -54.999 -3
c-10 -154.667 -42.833 -304 -98.5 -448s-118.834 -284.667 -189.501 -422c86.667 -82.667 131.334 -124 134.001 -124c66.667 -59.333 123.667 -113.666 171 -162.999c75.333 -80.667 113 -156 113 -226c0 -118.667 -92.333 -228 -277 -328
c-137.333 -70.667 -283 -110 -437 -118c1.33301 -27.333 3.66602 -55 6.99902 -83v-3c0 -19.333 -10 -31 -30 -35zM468.999 -159c144 8 280.666 45.333 409.999 112c102.667 58.667 154 126 154 202c0 60 -29.333 120.667 -88 182c-45.333 46.667 -99.666 98 -162.999 154
l-96 88c-60 -120.667 -110.333 -241.667 -151 -363s-62.667 -246.333 -66 -375zM713.998 791c65.333 129.333 124 261.167 176 395.5s83.333 272.833 94 415.5c-15.333 -2.66699 -30.666 -6 -45.999 -10c-321.333 -75.333 -482 -195 -482 -359
c0 -110 67.667 -238.333 203 -385c17.333 -19.333 35.666 -38.333 54.999 -57z" />
    <glyph glyph-name="percent" unicode="%" horiz-adv-x="659" 
d="M531 1631c24.667 -1.33301 44.332 -11.665 58.999 -30.998c12.667 -16.667 19 -36.667 19 -60v-11c-7.33301 -51.333 -28.5 -122.5 -63.5 -213.5s-76.167 -192.833 -123.5 -305.5l-136 -334c-44.667 -114 -81.667 -222 -111 -324s-44 -190.333 -44 -265
s21.333 -127.334 64 -158.001c7.33301 -6 11.666 -13.667 12.999 -23v-7c0 -7.33301 -2 -14.666 -6 -21.999c-6 -8.66699 -13.667 -14.334 -23 -17.001c-2.66699 -0.666992 -5.33398 -1 -8.00098 -1c-5.33301 0 -10.666 1.66699 -15.999 5
c-56.667 41.333 -89 107.666 -97 198.999c-1.33301 20.667 -2 42 -2 64c0 76 11 167.667 33 275s53.333 225.5 94 354.5s81.334 251.167 122.001 366.5c68.667 188 110.334 324.333 125.001 409c3.33301 28.667 14.5 52.167 33.5 70.5s41.5 27.833 67.5 28.5z
M348.998 231.001c51.333 0 95 -17.167 131 -51.5s54 -75.833 54 -124.5c0 -48 -18 -89.167 -54 -123.5s-79.667 -51.5 -131 -51.5c-50.667 0 -94.167 17.167 -130.5 51.5s-54.5 75.5 -54.5 123.5c0 48.667 18.167 90.167 54.5 124.5s79.833 51.5 130.5 51.5z
M348.998 -53.999c32.667 0 60.667 10.667 84 32s35 47 35 77c0 30.667 -11.667 56.667 -35 78s-51.333 32 -84 32s-60.667 -10.667 -84 -32s-35 -47.333 -35 -78c0 -30 11.667 -55.667 35 -77s51.333 -32 84 -32zM205.998 1305c-51.333 0 -95.166 17.167 -131.499 51.5
s-54.5 75.833 -54.5 124.5c0 48 18.167 89.167 54.5 123.5s80.166 51.5 131.499 51.5c50.667 0 94.167 -17.167 130.5 -51.5s54.5 -75.5 54.5 -123.5c0 -48.667 -18.167 -90.167 -54.5 -124.5s-79.833 -51.5 -130.5 -51.5zM205.998 1590
c-33.333 0 -61.666 -10.667 -84.999 -32s-35 -47 -35 -77c0 -30.667 11.667 -56.667 35 -78s51.666 -32 84.999 -32c32.667 0 60.667 10.667 84 32s35 47.333 35 78c0 30 -11.667 55.667 -35 77s-51.333 32 -84 32z" />
    <glyph glyph-name="ampersand" unicode="&#x26;" horiz-adv-x="1164" 
d="M1088 506c8.66699 -0.666992 15.333 -4.33301 20 -11c4 -5.33301 6 -11.666 6 -18.999v-3c-6 -44.667 -27 -90.667 -63 -138c8 -22.667 14.333 -46.334 19 -71.001c6 -27.333 9 -54.666 9 -81.999s-4.33301 -61.333 -13 -102s-39 -76 -91 -106
c-7.33301 -3.33301 -15 -5 -23 -5c-5.33301 0 -12.5 1.33301 -21.5 4s-16.833 10 -23.5 22c-4 8 -6 16 -6 24c0 4.66699 1.33301 11.334 4 20.001s10.334 16.334 23.001 23.001c36 20 60.667 47.333 74 82c8.66699 22 13 45 13 69c0 12.667 -1.33301 26 -4 40l-6 27l-46 -44
c-93.333 -82.667 -203 -150.334 -329 -203.001c-47.333 -19.333 -94.333 -35 -141 -47c-44.667 -10.667 -88 -17 -130 -19h-11c-22.667 0 -43.667 1.66699 -63 5c-77.333 14 -139.833 50.333 -187.5 109s-73.5 126.334 -77.5 203.001v16c0 70.667 25 138 75 202
c47.333 54.667 104.5 105.5 171.5 152.5s137.5 92.5 211.5 136.5c6.66699 4 13 8 19 12l20 12c-51.333 37.333 -99.5 75.166 -144.5 113.499s-83.5 79.166 -115.5 122.499c-25.333 36 -43.333 71 -54 105c-8.66699 27.333 -13 54 -13 80c0 9.33301 0.666992 18.333 2 27
c14 96.667 59.667 169.667 137 219c78 48.667 165.667 73 263 73c9.33301 0 19 -0.333008 29 -1c112.667 -9.33301 206.667 -46.833 282 -112.5s118.666 -144.834 129.999 -237.501c1.33301 -12 2 -23.667 2 -35c0 -80.667 -33.667 -160.667 -101 -240
c-62.667 -65.333 -137.334 -125.666 -224.001 -180.999c64 -48 123.667 -100 179 -156s100.333 -119.333 135 -190c16.667 27.333 26.667 53.666 30 78.999c1.33301 8 5.33301 14.333 12 19c4.66699 4 10.334 6 17.001 6h5zM305.999 1086
c32 -42.667 70.998 -83.333 116.998 -122s95.333 -77 148 -115c98.667 60 179.334 122.333 242.001 187c62.667 70.667 96.334 139.667 101.001 207c0.666992 6 1 11.667 1 17c0 60 -24 112.167 -72 156.5s-123 70.166 -225 77.499c-10 0.666992 -19.667 1 -29 1
c-84 0 -159.333 -21 -226 -63c-62.667 -39.333 -99.667 -97.666 -111 -174.999c-0.666992 -6 -1 -12.333 -1 -19c0 -20.667 3.33301 -42 10 -64c8.66699 -28.667 23.667 -58 45 -88zM917.997 280.002c24.667 22 46.333 44.002 65 66.002
c-32 75.333 -77.167 142.833 -135.5 202.5s-122.166 114.5 -191.499 164.5l-93 -57c-63.333 -38.667 -123.5 -77.334 -180.5 -116.001s-105.5 -78.667 -145.5 -120c-41.333 -44.667 -72.666 -94.334 -93.999 -149.001c-11.333 -28 -17 -55 -17 -81
c0 -24 7.66699 -52.833 23 -86.5s63.666 -57.834 144.999 -72.501c16 -2.66699 33.333 -4 52 -4h11c37.333 1.33301 76.666 7 117.999 17c43.333 10.667 87.333 25.334 132 44.001c119.333 50 223 114 311 192z" />
    <glyph glyph-name="quotesingle" unicode="'" horiz-adv-x="204" 
d="M63 1414c-6 0 -11.667 2.00098 -17 6.00098c-8 6.66699 -12 15 -12 25c0 5.33301 2.33301 11.666 7 18.999c14 19.333 24.667 35.333 32 48c-15.333 3.33301 -28 11 -38 23s-15 26 -15 42c0 18.667 6.5 34.5 19.5 47.5s28.833 19.5 47.5 19.5s34.5 -6.5 47.5 -19.5
s19.5 -28.833 19.5 -47.5v-9c0 -36.667 -21 -82.667 -63 -138c-8 -10.667 -17.333 -16 -28 -16z" />
    <glyph glyph-name="parenleft" unicode="(" horiz-adv-x="660" 
d="M582 1698c8.66699 -0.666992 15.666 -4.66992 20.999 -12.0029c4.66699 -6 7 -13.667 7 -23v-3c-0.666992 -9.33301 -4 -17.166 -10 -23.499s-13.333 -9.5 -22 -9.5h-10c-86 0 -158.5 -38.5 -217.5 -115.5s-103.833 -180 -134.5 -309s-46.667 -267.833 -48 -416.5v-10
c0 -144.667 14.333 -284 43 -418s72.667 -247 132 -339s133.666 -146.333 222.999 -163c8.66699 -2 15.334 -6.33301 20.001 -13c4 -7.33301 6 -15 6 -23v-3c-1.33301 -10.667 -5.33301 -18.667 -12 -24c-5.33301 -4.66699 -11.666 -7 -18.999 -7h-3
c-128 22.667 -232.5 84.834 -313.5 186.501s-139.833 225.834 -176.5 372.501c-32 128 -48 261 -48 399c0 20 1.5 74.667 4.5 164s26.833 203 71.5 341s107.667 248.667 189 332c77.333 78 170 117 278 117h19z" />
    <glyph glyph-name="parenright" unicode=")" horiz-adv-x="660" 
d="M48 1698l18.999 0.00292969c108 0 200.667 -39 278 -117c81.333 -83.333 144.333 -194 189 -332s68.5 -251.667 71.5 -341s4.5 -144 4.5 -164c0 -138 -16 -271 -48 -399c-36.667 -146.667 -95.5 -270.834 -176.5 -372.501s-185.5 -163.834 -313.5 -186.501h-3
c-7.33301 0 -13.666 2.33301 -18.999 7c-6.66699 5.33301 -10.667 13.333 -12 24v3c0 8 2 15.667 6 23c4.66699 6.66699 11.334 11 20.001 13c89.333 16.667 163.666 71 222.999 163s103.333 205 132 339s43 273.333 43 418v10c-1.33301 148.667 -17.333 287.5 -48 416.5
s-75.5 232 -134.5 309s-131.167 115.5 -216.5 115.5h-11c-8.66699 0 -16 3.16699 -22 9.5s-9.33301 14.166 -10 23.499v3c0 9.33301 2.33301 17 7 23c5.33301 7.33301 12.333 11.333 21 12z" />
    <glyph glyph-name="asterisk" unicode="*" horiz-adv-x="255" 
d="M195 1666c6.66699 -5.33301 9.99902 -12 9.99902 -20v-3c0 -6.66699 -2.33301 -13 -7 -19l-45 -50l45 -51c4.66699 -6 7 -12.333 7 -19v-8.5c0 -4.33301 -3.33301 -9.16602 -10 -14.499c-6 -4.66699 -12.333 -7 -19 -7h-8.5c-4.33301 0 -9.16602 3 -14.499 9l-10 11v-14
c0 -8.66699 -3 -15.834 -9 -21.501s-13.333 -8.5 -22 -8.5c-8 0 -15 2.83301 -21 8.5s-9 12.834 -9 21.501v14l-10 -11c-6 -6 -13 -9 -21 -9h-3c-6.66699 0 -13 2.33301 -19 7c-6 5.33301 -9 12 -9 20v3c0 6.66699 2.33301 13 7 19l45 51l-45 50c-4.66699 6 -7 12.333 -7 19
v8.5c0 4.33301 3 9.16602 9 14.499s12.667 8 20 8c0.666992 0 3.16699 -0.166992 7.5 -0.5s9.5 -3.5 15.5 -9.5l10 -11v15c0 8 3 15 9 21s13 9 21 9c8.66699 0 16 -3 22 -9s9 -13 9 -21v-15l10 11c5.33301 6 12 9.33301 20 10h2c7.33301 0 14 -2.66699 20 -8z" />
    <glyph glyph-name="plus" unicode="+" horiz-adv-x="1004" 
d="M534 810c30 2.66699 59 4.00195 87 4.00195c64 0 129.167 -8.5 195.5 -25.5s111.833 -61.167 136.5 -132.5c1.33301 -3.33301 2 -6.66602 2 -9.99902s-0.833008 -7.5 -2.5 -12.5s-5.16699 -8.83301 -10.5 -11.5c-2.66699 -1.33301 -5 -2 -7 -2
c-2.66699 0 -5.83398 1.16699 -9.50098 3.5s-6.5 6.83301 -8.5 13.5c-13.333 40 -39.666 67.333 -78.999 82c-32 11.333 -69.333 17 -112 17c-10.667 0 -32.667 -1.16699 -66 -3.5s-81.666 -10.166 -144.999 -23.499c-12.667 -67.333 -20.667 -131.666 -24 -192.999
c-0.666992 -10.667 -1 -21.334 -1 -32.001c0 -47.333 7 -90.5 21 -129.5s42.333 -64.5 85 -76.5c7.33301 -1.33301 12.666 -4.33301 15.999 -9c2 -2.66699 3 -5.33398 3 -8.00098c0 -2 -0.666992 -4.33301 -2 -7c-2.66699 -5.33301 -7 -9 -13 -11c-4 -1.33301 -8 -2 -12 -2
c-2.66699 0 -5.66699 0.333008 -9 1c-52 14 -90.833 43.167 -116.5 87.5s-42.167 97.833 -49.5 160.5c-4 39.333 -6 79.666 -6 120.999c0 24.667 0.666992 49.667 2 75c-21.333 -4.66699 -42.666 -9.66699 -63.999 -15c-61.333 -14.667 -116.333 -26.667 -165 -36
c-34.667 -6.66699 -63.667 -10 -87 -10c-10.667 0 -20 0.666992 -28 2c-14.667 3.33301 -26.334 12.666 -35.001 27.999c-6.66699 13.333 -10 28 -10 44v8c2 20 8.33301 35.333 19 46c9.33301 9.33301 20.333 14 33 14h6c11.333 -1.33301 24.333 -2 39 -2c44 0 104 6 180 18
l120 16c3.33301 30 6.33301 59.333 9 88c8 66.667 12 120.667 12 162c0 22 -1 40.667 -3 56c-0.666992 3.33301 -1 6.66602 -1 9.99902c0 10 4.83301 20 14.5 30s24.167 16.333 43.5 19c5.33301 0.666992 10.333 1 15 1c14 0 27.833 -3.5 41.5 -10.5
s22.5 -17.833 26.5 -32.5c2 -11.333 3 -24.666 3 -39.999c0 -20.667 -3 -50.334 -9 -89.001s-15.333 -88.667 -28 -150c-2 -10.667 -4.33301 -21.667 -7 -33z" />
    <glyph glyph-name="comma" unicode="," horiz-adv-x="204" 
d="M63 -98c-6 0 -11.667 2.00098 -17 6.00098c-8 6.66699 -12 15 -12 25c0 5.33301 2.33301 11.666 7 18.999c14 19.333 24.667 35.333 32 48c-15.333 3.33301 -28 11 -38 23s-15 26 -15 42c0 18.667 6.5 34.5 19.5 47.5s28.833 19.5 47.5 19.5s34.5 -6.5 47.5 -19.5
s19.5 -28.833 19.5 -47.5v-9c0 -36.667 -21 -82.667 -63 -138c-8 -10.667 -17.333 -16 -28 -16z" />
    <glyph glyph-name="hyphen" unicode="-" horiz-adv-x="1005" 
d="M943 773c4.66699 -3.33301 8.00488 -7.99707 10.0049 -13.9971c1.33301 -4 2 -8 2 -12c0 -2.66699 -0.333008 -5.33398 -1 -8.00098c-23.333 -68.667 -71 -113.334 -143 -134.001c-56.667 -16.667 -119.334 -25 -188.001 -25c-19.333 0 -57.333 2 -114 6
s-127 12.333 -211 25c-77.333 12.667 -138 19 -182 19c-14.667 0 -27.334 -0.666992 -38.001 -2c-2.66699 -0.666992 -5.33398 -1 -8.00098 -1c-11.333 0 -22 5.16699 -32 15.5s-16 25.166 -18 44.499v8c0 16.667 4 32 12 46s19 22.667 33 26
c9.33301 1.33301 19.666 2 30.999 2c23.333 0 55.5 -3.83301 96.5 -11.5s92.167 -19.167 153.5 -34.5c80 -20 160.667 -37 242 -51c48.667 -8.66699 93.667 -13 135 -13c27.333 0 62.166 3.5 104.499 10.5s72.166 36.167 89.499 87.5c2 6.66699 5.66699 11.667 11 15
c2.66699 1.33301 5.33398 2 8.00098 2s5 -0.333008 7 -1z" />
    <glyph glyph-name="hyphen" unicode="&#xad;" horiz-adv-x="1005" 
d="M943 773c4.66699 -3.33301 8.00488 -7.99707 10.0049 -13.9971c1.33301 -4 2 -8 2 -12c0 -2.66699 -0.333008 -5.33398 -1 -8.00098c-23.333 -68.667 -71 -113.334 -143 -134.001c-56.667 -16.667 -119.334 -25 -188.001 -25c-19.333 0 -57.333 2 -114 6
s-127 12.333 -211 25c-77.333 12.667 -138 19 -182 19c-14.667 0 -27.334 -0.666992 -38.001 -2c-2.66699 -0.666992 -5.33398 -1 -8.00098 -1c-11.333 0 -22 5.16699 -32 15.5s-16 25.166 -18 44.499v8c0 16.667 4 32 12 46s19 22.667 33 26
c9.33301 1.33301 19.666 2 30.999 2c23.333 0 55.5 -3.83301 96.5 -11.5s92.167 -19.167 153.5 -34.5c80 -20 160.667 -37 242 -51c48.667 -8.66699 93.667 -13 135 -13c27.333 0 62.166 3.5 104.499 10.5s72.166 36.167 89.499 87.5c2 6.66699 5.66699 11.667 11 15
c2.66699 1.33301 5.33398 2 8.00098 2s5 -0.333008 7 -1z" />
    <glyph glyph-name="period" unicode="." horiz-adv-x="205" 
d="M88 -1c-18.667 0 -34.667 6.5 -48 19.5s-20 28.5 -20 46.5c0 18.667 6.66699 34.5 20 47.5s29.333 19.5 48 19.5c18 0 33.667 -6.5 47 -19.5s20 -28.833 20 -47.5c0 -18 -6.66699 -33.5 -20 -46.5s-29 -19.5 -47 -19.5z" />
    <glyph glyph-name="slash" unicode="/" horiz-adv-x="704" 
d="M589 1743c22.667 -4 40.332 -17.3291 52.999 -39.9961c8 -16 12 -34.667 12 -56c0 -8.66699 -0.666992 -18 -2 -28c-10.667 -59.333 -36 -140 -76 -242l-140 -342l-154.5 -376.5c-51 -127.667 -94.333 -249.334 -130 -365.001s-56.5 -216.834 -62.5 -303.501
c-0.666992 -13.333 -1 -26.333 -1 -39c0 -66.667 15.333 -116.667 46 -150c6.66699 -6.66699 10.167 -15.667 10.5 -27s-2.16699 -22.333 -7.5 -33c-6 -9.33301 -13.333 -15.333 -22 -18c-2.66699 -0.666992 -5 -1 -7 -1c-5.33301 0 -10.666 2.33301 -15.999 7
c-48 52 -72 130 -72 234c0 1.33301 0.166992 29.166 0.5 83.499s17 150.333 50 288s73.833 279.5 122.5 425.5l145 415c78 211.333 127.333 365.666 148 462.999c6 32 18.667 57.667 38 77c18 18.667 37.667 28 59 28h6z" />
    <glyph glyph-name="zero" unicode="0" horiz-adv-x="1448" 
d="M579 -213c-125.333 0 -234.001 37.998 -326.001 113.998c-105.333 89.333 -173.666 205 -204.999 347c-18.667 84 -28 169.667 -28 257c0 107.333 14.333 217 43 329c60 233.333 162.667 433 308 599c81.333 92.667 174.333 163.334 279 212.001c78 36.667 162 55 252 55
c30.667 0 62.334 -2.33301 95.001 -7c165.333 -22.667 282.666 -134 351.999 -334c32.667 -102 49 -213 49 -333c0 -50 -2.66699 -101.333 -8 -154c-18.667 -180 -64 -353.333 -136 -520c-80.667 -186.667 -187 -333.667 -319 -441
c-70 -53.333 -147.333 -89.666 -232 -108.999c-40.667 -10 -82 -15 -124 -15zM620.999 -138.002c19.333 0 53.001 4.33301 101.001 13s103.333 37 166 85c124.667 99.333 225.667 238.666 303 417.999c69.333 160.667 113 327.334 131 500.001
c5.33301 51.333 8 100.666 8 147.999c0 113.333 -15.333 217.333 -46 312c-62 178.667 -158 275 -288 289c-16.667 2 -33.334 3 -50.001 3c-78.667 0 -155.667 -21.5 -231 -64.5s-145.333 -106.167 -210 -189.5c-122 -157.333 -211 -342.666 -267 -555.999
c-28.667 -110 -43 -217.667 -43 -323c0 -79.333 8.33301 -157.333 25 -234c24 -105.333 70 -197.666 138 -276.999c28.667 -32.667 61 -59.334 97 -80.001c54.667 -29.333 110 -44 166 -44z" />
    <glyph glyph-name="one" unicode="1" horiz-adv-x="762" 
d="M244 -214c-10.667 0 -20.666 1.99805 -29.999 5.99805c-69.333 33.333 -114.333 92.333 -135 177c-12 51.333 -18 108 -18 170c0 170.667 47.667 405 143 703c46 146 102.333 310.333 169 493l-7 -8c-32.667 -42 -76.834 -86.667 -132.501 -134
s-114.5 -75.666 -176.5 -84.999c-10.667 0 -19.5 3.16699 -26.5 9.5s-10.5 14.5 -10.5 24.5c0 8 2.66699 15.333 8 22s13 10.667 23 12c74.667 10 162 74.667 262 194c82 104.667 132.333 188 151 250c1.33301 8 2 15 2 21c0 4 -0.333008 7.66699 -1 11
c16 14.667 46 26.334 90 35.001c38.667 8 73.667 12 105 12c34.667 -0.666992 52 -5.66699 52 -15c0 -5.33301 -1.66699 -11.666 -5 -18.999c-22 -78 -70.333 -209.333 -145 -394c-55.333 -138.667 -111.166 -286.167 -167.499 -442.5s-100.833 -306.5 -133.5 -450.5
c-23.333 -101.333 -35 -192.666 -35 -273.999c0 -34 2 -66.333 6 -97c10.667 -72.667 39 -128.334 85 -167.001c3.33301 -2.66699 5 -5.33398 5 -8.00098c0 -8.66699 -8.83301 -18.5 -26.5 -29.5s-34.834 -16.5 -51.501 -16.5z" />
    <glyph glyph-name="two" unicode="2" horiz-adv-x="1553" 
d="M1301 -215c-13.333 0 -22.998 6.67285 -28.998 20.0059c-12 28 -48.333 50.333 -109 67c-74 18.667 -169 28 -285 28c-90 0 -193.333 -5.66699 -310 -17c-215.333 -26 -351 -49.667 -407 -71c-18 -16 -38.667 -24 -62 -24c-26 0 -47 10 -63 30c-10.667 14 -16 30 -16 48
v9c10.667 100.667 108 223.334 292 368.001l259 195l292.5 218c97.667 76 185.834 154.333 264.501 235c69.333 72.667 128.666 155.334 177.999 248.001s74 178.667 74 258c0 143.333 -96 220.666 -288 231.999c-96 0 -186.667 -12.333 -272 -37
c-102.667 -29.333 -194.334 -70.833 -275.001 -124.5s-134.667 -112.834 -162 -177.501c-8.66699 -14.667 -13 -37.334 -13 -68.001c0 -24 6 -45.667 18 -65c20 -36 46.333 -59.333 79 -70c1.33301 0 2 -0.333008 2 -1c14.667 -4.66699 22 -14.667 22 -30v-2
c-5.33301 -22.667 -18 -34 -38 -34l-9 1c0 0.666992 -0.666992 1 -2 1c-48 16 -86.667 49.333 -116 100c-16 29.333 -24 61.666 -24 96.999c0 27.333 5 56.666 15 87.999l3 3c32 76 92.667 144.667 182 206s190.666 108.666 303.999 141.999c89.333 26 177.333 39 264 39
c126 0 225 -27.333 297 -82c90.667 -68.667 136 -165.667 136 -291c0 -66.667 -18 -150 -54 -250c-56 -156.667 -211.667 -335.334 -467 -536.001c-104.667 -82.667 -209.667 -161.334 -315 -236.001c-115.333 -82 -216.166 -158 -302.499 -228s-141.5 -130.667 -165.5 -182
c83.333 20.667 187 38 311 52c139.333 16 263.333 24 372 24c268 0 419.333 -45 454 -135l1 -9c0 -16 -7.33301 -28 -22 -36c-4.66699 -2 -9.33398 -3 -14.001 -3z" />
    <glyph glyph-name="three" unicode="3" horiz-adv-x="1400" 
d="M283 -213c-78.667 0 -142.163 19.834 -190.496 59.501s-72.5 103.834 -72.5 192.501c0 28 2.33301 58.333 7 91c4 19.333 15.333 29 34 29c12 0 21.333 -5 28 -15c4 -6 6 -13.667 6 -23c-4.66699 -30.667 -7 -58 -7 -82c0 -112.667 52.667 -169 158 -169
c28.667 0 73.334 8 134.001 24s141.667 54.667 243 116s197.666 131.666 288.999 210.999s165.333 158.333 222 237c54.667 74.667 82 140 82 196c0 91.333 -75.333 137 -226 137c-64 0 -132.833 -13.833 -206.5 -41.5s-152.834 -65.667 -237.501 -114
s-170.667 -88.5 -258 -120.5c-8.66699 -2.66699 -17 -4 -25 -4c-12.667 0 -26.667 4.16699 -42 12.5s-26.666 23.5 -33.999 45.5c-2.66699 9.33301 -4 18.333 -4 27c0 38 18.667 64 56 78c78.667 25.333 189.5 76 332.5 152s278.5 166.333 406.5 271
c51.333 44 96 88.333 134 133c31.333 37.333 58.666 80.333 81.999 129c21.333 45.333 32 88.333 32 129c0 93.333 -67 140 -201 140c-22.667 0 -46.667 -1.33301 -72 -4c-136.667 -16.667 -292.334 -65.334 -467.001 -146.001c-4 -1.33301 -8.33301 -2 -13 -2
c-22.667 0 -34 11.333 -34 34c0 16 6.66699 27.333 20 34c180 82.667 342 132.667 486 150c27.333 3.33301 53.333 5 78 5c27.333 0 53.333 -2 78 -6c115.333 -22 191 -76.667 227 -164c14.667 -36.667 22 -75.667 22 -117c0 -23.333 -4.66699 -58.5 -14 -105.5
s-40.333 -104.167 -93 -171.5c-72.667 -91.333 -174.667 -183.333 -306 -276c21.333 1.33301 41.666 2 60.999 2c29.333 0 57.333 -1.66699 84 -5c124.667 -22.667 206 -78 244 -166c14 -34.667 21 -70 21 -106c0 -54.667 -21 -121 -63 -199s-116.333 -161.667 -223 -251
s-223.167 -165 -349.5 -227s-245.5 -100.333 -357.5 -115c-24.667 -3.33301 -48.334 -5 -71.001 -5z" />
    <glyph glyph-name="four" unicode="4" horiz-adv-x="1287" 
d="M769 -214c-10.667 0 -20.667 1.99902 -30 5.99902c-68.667 34 -113.667 92.667 -135 176c-12 50 -18 106 -18 168c0 142 30.667 320.333 92 535l-90 -12c-73.333 -10.667 -142 -16 -206 -16c-29.333 0 -57.666 1 -84.999 3c-64 7.33301 -117 27 -159 59
c-78.667 58 -118 166.667 -118 326c0 43.333 5 102.333 15 177s28.667 158.5 56 251.5s53 167.833 77 224.5c6 10.667 19 16 39 16c1.33301 0 8 -0.333008 20 -1s30.667 -5.16699 56 -13.5s46 -18.5 62 -30.5c13.333 -9.33301 20 -18.333 20 -27
c0 -2 -0.666992 -4.33301 -2 -7c-27.333 -15.333 -57.166 -63.5 -89.499 -144.5s-59.833 -174.167 -82.5 -279.5c-20 -94 -30 -181 -30 -261c0 -82 12.333 -139.667 37 -173c20 -26.667 56 -43 108 -49c25.333 -2.66699 52 -4 80 -4c66.667 0 169.667 11 309 33h3
c61.333 201.333 122.666 384.666 183.999 549.999c72.667 200.667 109 318.334 109 353.001c0 3.33301 -0.333008 6.33301 -1 9c16 14.667 46 26.334 90 35.001c38.667 8 73.667 12 105 12c34.667 0 52 -5 52 -15c0 -5.33301 -1.66699 -11.666 -5 -18.999
c-22.667 -79.333 -70.667 -210.666 -144 -393.999c-64 -158.667 -127.333 -327.334 -190 -506.001c24.667 2.66699 47.667 4 69 4s45.666 -1.83301 72.999 -5.5s51.333 -14.834 72 -33.501c6.66699 -6.66699 10.334 -14.334 11.001 -23.001c0 -10 -3.16699 -18.333 -9.5 -25
s-14.833 -10 -25.5 -10c-8 0 -15.333 2.66699 -22 8c-14 12 -38 18.667 -72 20c-44 0 -83.667 -1.66699 -119 -5c-82.667 -246.667 -124 -443.667 -124 -591c0 -35.333 2.33301 -68.666 7 -99.999c10.667 -72.667 38.667 -128 84 -166c3.33301 -2.66699 5 -5.66699 5 -9
c0 -8.66699 -8.83301 -18.5 -26.5 -29.5s-34.834 -16.5 -51.501 -16.5z" />
    <glyph glyph-name="five" unicode="5" horiz-adv-x="1510" 
d="M274 -214c-92 0.666992 -160.668 34.666 -206.001 101.999c-32 47.333 -48 114.333 -48 201c0 35.333 2.66699 73.666 8 114.999c4 24 15 36 33 36c12.667 0 22.334 -6 29.001 -18c4 -7.33301 6 -17 6 -29c-4.66699 -38.667 -7 -73 -7 -103
c0 -136.667 52.333 -205 157 -205c28.667 0 73.5 10.167 134.5 30.5s142 68 243 143s197.333 161.167 289 258.5s165.834 193.666 222.501 288.999c54.667 92.667 82 173.334 82 242.001v7c-8.66699 109.333 -81.334 164 -218.001 164c-11.333 0 -39.5 -1.33301 -84.5 -4
s-112.5 -18 -202.5 -46s-174.833 -61.333 -254.5 -100s-143.5 -77 -191.5 -115c-51.333 -42 -96.666 -63 -135.999 -63c-31.333 0 -47 14.667 -47 44c0 36 70.333 246.667 211 632c-28 -15.333 -49.667 -29.666 -65 -42.999c-7.33301 -6 -15 -9 -23 -9
c-9.33301 0 -17.333 3.5 -24 10.5s-10 14.5 -10 22.5c0 10.667 3.66699 19.334 11 26.001c32.667 28 80.334 55.667 143.001 83c26 75.333 39 126 39 152l-1 8c16 14.667 46 26.334 90 35.001c38.667 8 73.667 12 105 12c34.667 -0.666992 52 -6 52 -16
c0 -6.66699 -10.333 -39 -31 -97c58.667 18.667 116 35 172 49c253.333 64 456.333 96 609 96c24 0 47 -0.666992 69 -2c20 -2.66699 30 -13.667 30 -33c0 -10 -4 -18.667 -12 -26c-6 -5.33301 -14 -8 -24 -8c-20 1.33301 -40.667 2 -62 2c-147.333 0 -345 -31.333 -593 -94
c-78 -20 -150.667 -41.333 -218 -64l-90 -230l-143 -369c83.333 49.333 178.5 93.666 285.5 132.999s211.5 66 313.5 80c35.333 4.66699 68.666 7 99.999 7c58.667 0 109.667 -8.66699 153 -26c69.333 -28 121.666 -86.667 156.999 -176c14 -40.667 21 -83 21 -127
c0 -51.333 -13.667 -115.833 -41 -193.5s-81.333 -165.5 -162 -263.5s-173 -187 -277 -267s-209 -143 -315 -189c-98 -42.667 -191 -64 -279 -64z" />
    <glyph glyph-name="six" unicode="6" horiz-adv-x="1596" 
d="M499 -213c-84 0 -158.662 17.6689 -223.995 53.002c-124 66.667 -204.333 205 -241 415c-9.33301 58 -14 118.333 -14 181c0 66.667 8 151.834 24 255.501s54 221.167 114 352.5s138.667 249 236 353s212.666 183.667 345.999 239c104.667 43.333 219.667 65 345 65
c111.333 0 200.666 -15.667 267.999 -47c2.66699 -0.666992 5 -1.66699 7 -3c66 -32.667 115.333 -75.667 148 -129c25.333 -40.667 38 -83.334 38 -128.001c0 -66.667 -26.667 -121 -80 -163c-42.667 -33.333 -97 -52.333 -163 -57c-10.667 0 -19.334 3.16699 -26.001 9.5
s-10 14.833 -10 25.5c0 8.66699 2.83301 16.167 8.5 22.5s13.167 9.83301 22.5 10.5c100.667 9.33301 159.667 50.666 177 123.999c2 9.33301 3 18.666 3 27.999c0 78.667 -47 143 -141 193c-3.33301 0.666992 -6.33301 1.66699 -9 3c-57.333 27.333 -125 41 -203 41
c-116.667 0 -228.834 -31.833 -336.501 -95.5s-205 -155.667 -292 -276s-157.167 -251.833 -210.5 -394.5s-87.333 -282 -102 -418c21.333 30.667 46 60.334 74 89.001c90.667 94.667 198.667 174.667 324 240c152 74.667 287.333 112 406 112
c158.667 -4 275.667 -53 351 -147c51.333 -64 77 -137.333 77 -220c0 -46.667 -8.33301 -96.667 -25 -150c-44.667 -132 -143.334 -254 -296.001 -366c-108 -78.667 -224 -137.334 -348 -176.001c-90 -28 -172.667 -42 -248 -42zM517.005 -139.998
c61.333 0 130.332 11.668 206.999 35.001c116 35.333 224.333 90 325 164c195.333 147.333 293 301.333 293 462c0 68 -20.667 127.667 -62 179c-64 79.333 -162 119 -294 119c-106 0 -228.667 -34.667 -368 -104c-118 -60.667 -219.667 -135.334 -305 -224.001
c-65.333 -68.667 -111 -138.667 -137 -210c5.33301 -143.333 37.333 -249.333 96 -318s140.334 -103 245.001 -103z" />
    <glyph glyph-name="seven" unicode="7" horiz-adv-x="1435" 
d="M511 -214c-13.333 0 -25.002 3.33691 -35.002 10.0039c-62.667 40.667 -94 107 -94 199c0 163.333 79.667 398.333 239 705c-58.667 -8.66699 -110.334 -13 -155.001 -13c-43.333 0 -78.333 6 -105 18c-12.667 7.33301 -19 17 -19 29c0 5.33301 1.33301 10.666 4 15.999
c6.66699 12.667 17.334 19 32.001 19c4.66699 0 9.33398 -1 14.001 -3c16.667 -7.33301 40.667 -11 72 -11c44.667 0 110 6.33301 196 19c100.667 185.333 196.334 353 287.001 503c74.667 124 129 219 163 285c-70 -14 -145.333 -30.667 -226 -50
c-157.333 -40 -308.333 -69.667 -453 -89c-42.667 -4.66699 -81.667 -7 -117 -7c-196 0 -294 73.333 -294 220c0 10 0.5 20.167 1.5 30.5s4.83301 18.166 11.5 23.499s14 8 22 8c10.667 0 19 -3.5 25 -10.5s9 -15.833 9 -26.5l-1 -24c0 -101.333 71 -152 213 -152h67
c80.667 1.33301 247.667 32.333 501 93c106.667 26 202 46.667 286 62c40 13.333 88.333 20 145 20s85 -6.66699 85 -20c0 -4.66699 -4.33301 -13.667 -13 -27c-54 -97.333 -129.333 -221.333 -226 -372l-267 -433c69.333 10 132 15 188 15c9.33301 0 31.833 -0.5 67.5 -1.5
s69.167 -15.5 100.5 -43.5c6.66699 -6.66699 10.334 -14.667 11.001 -24c0 -9.33301 -3.33301 -17.333 -10 -24s-15.334 -10 -26.001 -10c-8 0 -15.333 3 -22 9c-16.667 18 -57.667 27 -123 27c-52.667 0 -129 -7.66699 -229 -23c-197.333 -341.333 -296 -592 -296 -752
c0 -60.667 16 -109.334 48 -146.001c2 -2.66699 3 -5 3 -7c0 -8.66699 -10.667 -18.334 -32 -29.001c-18.667 -8.66699 -34.667 -13 -48 -13z" />
    <glyph glyph-name="eight" unicode="8" horiz-adv-x="1543" 
d="M673 -213c-90 0 -163 4.66992 -219 14.0029l-5 2c-286 54 -429 164.333 -429 331c0 65.333 21.5 133.166 64.5 203.499s104.333 139 184 206s167.834 124.833 264.501 173.5c-83.333 80 -125 164.667 -125 254c0 47.333 10.333 94.666 31 141.999
c34 75.333 85 147.166 153 215.499s141.667 129 221 182s153.666 94.5 222.999 124.5c97.333 42.667 181.666 64 252.999 64c56.667 0 103.334 -14.667 140.001 -44c42.667 -33.333 64 -88 64 -164l-1 -35c-16.667 -174.667 -142 -432.667 -376 -774l-64 -95
c110 -63.333 204 -130.333 282 -201c75.333 -72.667 113.333 -143 114 -211c0 -66 -31.333 -129.667 -94 -191c-132.667 -131.333 -359.667 -197 -681 -197zM681 -144.997c203.333 0 371.335 29.668 504.002 89.001c74 36.667 111 83 111 139c0 54 -31 110.333 -93 169
c-54.667 52 -156.334 121.667 -305.001 209c-113.333 65.333 -217 134.666 -311 207.999c-130.667 -64.667 -243.334 -143.667 -338.001 -237c-107.333 -108 -161 -206.667 -161 -296c0 -56.667 23.333 -104.667 70 -144c68 -58.667 172 -99.667 312 -123
c50.667 -9.33301 121 -14 211 -14zM993.002 623.004l67 98c237.333 350 358.666 597 363.999 741l1 25c0 54 -14 92 -42 114c-25.333 19.333 -59.333 29 -102 29c-124.667 -5.33301 -264.667 -62.333 -420 -171c-69.333 -48.667 -130.666 -104 -183.999 -166
s-87 -126.667 -101 -194c-3.33301 -16 -5 -31.667 -5 -47c0 -61.333 26 -122 78 -182c40.667 -43.333 91.5 -85.5 152.5 -126.5s124.833 -81.167 191.5 -120.5z" />
    <glyph glyph-name="nine" unicode="9" horiz-adv-x="1597" 
d="M481 -213c-111.333 0 -200.668 15.665 -268.001 46.998l-7 2c-66.667 32.667 -116.667 77 -150 133c-24 40.667 -36 82.334 -36 125.001c0 66.667 26.667 121 80 163c42.667 32.667 97.334 51.334 164.001 56.001c10 0 18.333 -3 25 -9s10 -14.667 10 -26
c0 -8 -2.83301 -15.167 -8.5 -21.5s-13.167 -10.166 -22.5 -11.499c-100.667 -8.66699 -159.667 -49.667 -177 -123c-2 -8.66699 -3 -17.667 -3 -27c0 -79.333 47 -144 141 -194c3.33301 -0.666992 6.33301 -1.66699 9 -3c55.333 -28 123.666 -42 204.999 -42
c116.667 0 228.5 32 335.5 96s204 156 291 276s157.167 251.333 210.5 394s87.666 282 102.999 418c-96 -130.667 -229 -240 -399 -328c-150.667 -74.667 -285 -112 -403 -112c-161.333 4.66699 -279.333 53.667 -354 147c-51.333 63.333 -77 136 -77 218
c0 47.333 8.66699 98 26 152c44 131.333 142.333 253.333 295 366c108 78.667 224 137 348 175c90 28 172.667 42 248 42c84.667 0 159.667 -17.667 225 -53c123.333 -66 203.333 -204 240 -414c10 -58.667 15 -119.334 15 -182.001c0 -66 -8 -150.833 -24 -254.5
s-54.167 -221.167 -114.5 -352.5s-139.166 -249 -236.499 -353s-212.666 -183.667 -345.999 -239c-104.667 -43.333 -219.667 -65 -345 -65zM579.998 668.998c106 0 228.667 34.334 368 103.001c118 61.333 219.667 136 305 224c65.333 69.333 111 139.666 137 210.999
c-11.333 280.667 -125.333 421 -342 421c-60.667 0 -129.334 -11.667 -206.001 -35c-115.333 -36 -223.666 -90.667 -324.999 -164c-195.333 -148 -293 -302 -293 -462c0 -68 20.667 -127.667 62 -179c64 -79.333 162 -119 294 -119z" />
    <glyph glyph-name="colon" unicode=":" horiz-adv-x="204" 
d="M87 488c18.667 0 34.5 -6.5 47.5 -19.5s19.5 -28.833 19.5 -47.5c0 -18 -6.5 -33.5 -19.5 -46.5s-28.833 -19.5 -47.5 -19.5s-34.5 6.5 -47.5 19.5s-19.5 28.5 -19.5 46.5c0 18.667 6.5 34.5 19.5 47.5s28.833 19.5 47.5 19.5zM87 1031c18.667 0 34.5 -6.5 47.5 -19.5
s19.5 -28.5 19.5 -46.5c0 -18.667 -6.5 -34.5 -19.5 -47.5s-28.833 -19.5 -47.5 -19.5s-34.5 6.5 -47.5 19.5s-19.5 28.833 -19.5 47.5c0 18 6.5 33.5 19.5 46.5s28.833 19.5 47.5 19.5z" />
    <glyph glyph-name="semicolon" unicode=";" horiz-adv-x="205" 
d="M155 418v-6.99902c0 -21.333 -6.33301 -44.333 -19 -69s-27.667 -48.334 -45 -71.001l-3 -4c-6.66699 -8 -14.667 -12 -24 -12c-6 0 -12 2 -18 6c-6.66699 5.33301 -10.667 11.666 -12 18.999v3c0 6.66699 2 13.334 6 20.001l3 4c13.333 18 23.666 33.333 30.999 46
c-15.333 3.33301 -28.166 11 -38.499 23s-15.5 26 -15.5 42c0 18.667 6.66699 34.5 20 47.5s29.333 19.5 48 19.5c18 0 33.667 -6.5 47 -19.5s20 -28.833 20 -47.5zM88 895.001c-18.667 0 -34.667 6.5 -48 19.5s-20 28.833 -20 47.5c0 18 6.66699 33.5 20 46.5
s29.333 19.5 48 19.5c18 0 33.667 -6.5 47 -19.5s20 -28.5 20 -46.5c0 -18.667 -6.66699 -34.5 -20 -47.5s-29 -19.5 -47 -19.5z" />
    <glyph glyph-name="semicolon" unicode="&#x37e;" horiz-adv-x="205" 
d="M155 418v-6.99902c0 -21.333 -6.33301 -44.333 -19 -69s-27.667 -48.334 -45 -71.001l-3 -4c-6.66699 -8 -14.667 -12 -24 -12c-6 0 -12 2 -18 6c-6.66699 5.33301 -10.667 11.666 -12 18.999v3c0 6.66699 2 13.334 6 20.001l3 4c13.333 18 23.666 33.333 30.999 46
c-15.333 3.33301 -28.166 11 -38.499 23s-15.5 26 -15.5 42c0 18.667 6.66699 34.5 20 47.5s29.333 19.5 48 19.5c18 0 33.667 -6.5 47 -19.5s20 -28.833 20 -47.5zM88 895.001c-18.667 0 -34.667 6.5 -48 19.5s-20 28.833 -20 47.5c0 18 6.66699 33.5 20 46.5
s29.333 19.5 48 19.5c18 0 33.667 -6.5 47 -19.5s20 -28.5 20 -46.5c0 -18.667 -6.66699 -34.5 -20 -47.5s-29 -19.5 -47 -19.5z" />
    <glyph glyph-name="less" unicode="&#x3c;" horiz-adv-x="899" 
d="M829 953c-22.667 -15.333 -58.334 -28.835 -107.001 -40.502s-104 -23.5 -166 -35.5c-98 -16.667 -192.667 -38.167 -284 -64.5s-157.333 -63.166 -198 -110.499c40.667 -46.667 106.834 -83.167 198.501 -109.5s186.167 -48.166 283.5 -65.499
c62 -11.333 117.333 -22.833 166 -34.5s84.334 -25.167 107.001 -40.5c12 -8.66699 18.667 -21.667 20 -39v-6c0 -15.333 -4 -30.666 -12 -45.999c-10 -17.333 -22.333 -28.666 -37 -33.999c-6 -2.66699 -11.667 -4 -17 -4c-8.66699 0 -16.667 2.66699 -24 8
c-38 22.667 -106.667 47.667 -206 75c-68.667 19.333 -139.667 41.833 -213 67.5s-139.333 56.667 -198 93s-99 79.5 -121 129.5c-0.666992 2 -1 4 -1 6c0 2.66699 0.333008 5 1 7c22 50 62.333 93.167 121 129.5s124.667 67.333 198 93s144.333 48.167 213 67.5
c99.333 26.667 168 51.667 206 75c7.33301 4.66699 15.333 7 24 7c5.33301 0 13.166 -1.83301 23.499 -5.5s20.5 -14.167 30.5 -31.5c8 -15.333 12 -30.333 12 -45c0 -2.66699 -0.333008 -8.83398 -1 -18.501s-7 -18.834 -19 -27.501z" />
    <glyph glyph-name="equal" unicode="=" horiz-adv-x="1004" 
d="M942 949c5.33301 -2.66699 8.99902 -7.33496 10.999 -14.002c1.33301 -3.33301 2 -6.66602 2 -9.99902s-0.666992 -6.66602 -2 -9.99902c-23.333 -68 -71 -112.667 -143 -134c-56 -16 -118.333 -24 -187 -24c-19.333 0 -57.5 1.83301 -114.5 5.5
s-127.5 11.834 -211.5 24.501c-76.667 12.667 -137.334 19 -182.001 19c-14 0 -26.333 -0.666992 -37 -2h-7c-12 0 -23 5 -33 15s-16 25 -18 45v8c0 16 3.83301 31 11.5 45s18.834 22.667 33.501 26c9.33301 1.33301 19.666 2 30.999 2c23.333 0 55.333 -3.83301 96 -11.5
s91.667 -18.834 153 -33.501c80.667 -20.667 161.667 -38 243 -52c48.667 -8.66699 93.334 -13 134.001 -13c28 0 63 3.5 105 10.5s72 36.167 90 87.5c2 7.33301 5.33301 12.333 10 15c2.66699 1.33301 5.33398 2 8.00098 2s5 -0.333008 7 -1zM941.999 580.999
c5.33301 -2.66699 9 -7.33203 11 -13.999c1.33301 -2.66699 2 -5.66699 2 -9s-0.666992 -7 -2 -11c-23.333 -68.667 -71 -113.334 -143 -134.001c-56 -16 -118.333 -24 -187 -24c-19.333 0 -57.5 1.83301 -114.5 5.5s-127.5 11.834 -211.5 24.501
c-76.667 12.667 -137.334 19 -182.001 19c-14 0 -26.333 -0.666992 -37 -2h-7c-12 0 -23 5 -33 15s-16 25 -18 45v8c0 16 3.83301 31 11.5 45s18.834 22.667 33.501 26c9.33301 1.33301 19.666 2 30.999 2c23.333 0 55.333 -3.83301 96 -11.5s91.667 -18.834 153 -33.501
c80.667 -20.667 161.667 -38 243 -52c48.667 -8.66699 93.667 -13 135 -13c27.333 0 62 3.5 104 10.5s72 36.167 90 87.5c2 7.33301 5.33301 12.333 10 15c2.66699 1.33301 5.33398 2 8.00098 2s5 -0.333008 7 -1z" />
    <glyph glyph-name="greater" unicode="&#x3e;" horiz-adv-x="900" 
d="M110 1066c38.667 -22.667 107.666 -47.3301 206.999 -73.9971c68 -19.333 138.833 -42 212.5 -68s139.667 -57 198 -93s98.833 -79.333 121.5 -130c1.33301 -2 2 -4.33301 2 -7c0 -2 -0.666992 -4 -2 -6c-22.667 -50 -63.167 -93.167 -121.5 -129.5
s-124.333 -67.333 -198 -93s-144.5 -48.167 -212.5 -67.5c-99.333 -26.667 -168.333 -51.667 -207 -75c-7.33301 -4.66699 -15 -7 -23 -7c-5.33301 0 -13.166 2 -23.499 6s-20.5 14.333 -30.5 31c-8.66699 15.333 -13 30.666 -13 45.999c0 2 0.5 7.83301 1.5 17.5
s7.5 18.834 19.5 27.501c22.667 15.333 58.334 29 107.001 41s104 23.667 166 35c97.333 16.667 191.833 38.167 283.5 64.5s157.834 63.166 198.501 110.499c-40.667 47.333 -106.834 84 -198.501 110s-186.167 47.667 -283.5 65c-62 11.333 -117.333 22.833 -166 34.5
s-84.334 25.167 -107.001 40.5c-12 9.33301 -19 22.333 -21 39v6c0 15.333 4.33301 30.666 13 45.999c10 17.333 22.333 28.666 37 33.999c6 2.66699 11.667 4 17 4c8 0 15.667 -2.66699 23 -8z" />
    <glyph glyph-name="question" unicode="?" horiz-adv-x="1138" 
d="M624 1698c104.667 -8 194.497 -41.1719 269.497 -99.5049s129.167 -132.166 162.5 -221.499c21.333 -57.333 32 -116.666 32 -177.999v-18c-1.33301 -26.667 -4.66602 -54 -9.99902 -82c-18.667 -97.333 -68.667 -187.666 -150 -270.999
c-38.667 -38 -79.834 -72.333 -123.501 -103s-88.167 -59.667 -133.5 -87l-38 -25c-70 -40 -132.667 -83.167 -188 -129.5s-89 -101.166 -101 -164.499c-2.66699 -10.667 -4 -22 -4 -34v-8c4 -53.333 30 -114.666 78 -183.999l7 -11c4 -6.66699 6 -13.667 6 -21
c0 -2 -0.666992 -5.83301 -2 -11.5s-5.66602 -11.5 -12.999 -17.5c-6 -4 -12.333 -6 -19 -6c-2 0 -5.83301 0.5 -11.5 1.5s-11.167 6.16699 -16.5 15.5l-1 2c-1.33301 0.666992 -2.33301 2 -3 4c-64 91.333 -97.333 178.666 -100 261.999v37c6 94.667 38.667 180.667 98 258
s132 142.666 218 195.999c82.667 48 157.334 102.667 224.001 164c83.333 86 132.333 178.333 147 277c3.33301 21.333 5 42.666 5 63.999c-0.666992 72 -22.667 136.667 -66 194c-54.667 73.333 -144.667 115 -270 125l-29 1c-104 0 -202.333 -26.333 -295 -79
c-86.667 -50.667 -148.667 -121.667 -186 -213c-7.33301 -21.333 -11 -44.666 -11 -69.999c0 -19.333 3.66699 -46.833 11 -82.5s32.333 -59.5 75 -71.5c16 -3.33301 28.333 -11.666 37 -24.999c6.66699 -10 10 -20.667 10 -32c0 -4 -0.666992 -8 -2 -12
c-2.66699 -17.333 -10 -30.333 -22 -39c-10 -7.33301 -21 -11 -33 -11c-2.66699 0 -5.66699 0.333008 -9 1c-56 12 -95 38.667 -117 80c-20 37.333 -30 79.333 -30 126c0 4.66699 0.333008 21.334 1 50.001s10 66 28 112c44 108 116 191 216 249
c102.667 58.667 212.334 88 329.001 88h30zM442.997 -22.0049c24 0 44.5 -9 61.5 -27s25.5 -40 25.5 -66c0 -25.333 -8.5 -47 -25.5 -65s-37.5 -27 -61.5 -27s-44.5 9 -61.5 27s-25.5 39.667 -25.5 65c0 26 8.5 48 25.5 66s37.5 27 61.5 27z" />
    <glyph glyph-name="at" unicode="@" horiz-adv-x="1063" 
d="M647 160l-22.0029 -0.000976562c-132 0 -256.667 35 -374 105c-66 42.667 -117 92 -153 148c-52 79.333 -78 168.666 -78 267.999c0 72 13.667 143.333 41 214c38 99.333 97 185 177 257c108.667 98 232 147 370 147c130 0 230.667 -44.667 302 -134
c59.333 -75.333 89 -166.666 89 -273.999c0 -99.333 -26.667 -193.666 -80 -282.999c-35.333 -56.667 -81.666 -102 -138.999 -136c-38.667 -23.333 -71.667 -35 -99 -35c-19.333 0 -37 6.33301 -53 19c-32 30.667 -48 71 -48 121c-4.66699 -6.66699 -9.66699 -13 -15 -19
c-31.333 -36 -60 -63.667 -86 -83c-34 -26 -63.333 -39 -88 -39c-27.333 0 -50.333 12.667 -69 38c-17.333 22 -27.666 45.667 -30.999 71c-1.33301 11.333 -2 23 -2 35c0 67.333 18 136.666 54 207.999c42 85.333 100.333 148.333 175 189c33.333 18 69.333 27 108 27
c46.667 0 79 -19.667 97 -59c20 25.333 38.333 38 55 38c4.66699 0 12.5 -0.833008 23.5 -2.5s23.167 -8 36.5 -19s20 -25.167 20 -42.5c0 -6 -13.333 -37.333 -40 -94l-66 -148c-34 -77.333 -53 -132.333 -57 -165c0 -6.66699 2.33301 -10 7 -10
c12.667 0 29.334 7.66699 50.001 23c49.333 32.667 87.666 71 114.999 115c47.333 79.333 71 163 71 251c0 45.333 -6.33301 89 -19 131c-27.333 84.667 -75.666 144.667 -144.999 180c-48.667 24.667 -104.334 37 -167.001 37c-122.667 0 -232.334 -43.667 -329.001 -131
c-72 -66 -125.667 -144 -161 -234c-24.667 -63.333 -37 -127 -37 -191c0 -156.667 67.667 -279 203 -367c106.667 -64 220.334 -96 341.001 -96c138.667 0 251.334 38 338.001 114c6 5.33301 12.667 8 20 8c9.33301 0 16.833 -3.16699 22.5 -9.5s8.5 -13.166 8.5 -20.499
c0 -8 -3 -15 -9 -21c-93.333 -82 -212.333 -125.667 -357 -131zM422.997 507.999c18 0 51.333 28.333 100 85c32.667 38 60.334 79.333 83.001 124c16 52 37 102 63 150c4 12 6 24.667 6 38c0 10 -2.66699 19.333 -8 28c-10.667 13.333 -22.334 20 -35.001 20
c-25.333 0 -54.333 -23 -87 -69c-26.667 -38 -51 -82 -73 -132c-42.667 -96 -64 -167.333 -64 -214c0 -20 5 -30 15 -30z" />
    <glyph glyph-name="A" unicode="A" 
d="M131 -219c-37.333 0 -74.3291 9.00195 -110.996 27.002c-13.333 6 -20 15.667 -20 29c0 5.33301 1.33301 10.666 4 15.999c6 13.333 15.667 20 29 20c5.33301 0 10.666 -1.33301 15.999 -4c26 -12.667 52.667 -19 80 -19c82.667 0 171.334 58.667 266.001 176
c84 106.667 168.667 239 254 397c-39.333 -9.33301 -79 -14 -119 -14c-47.333 0 -95 7.33301 -143 22c-16 5.33301 -24 16 -24 32c0 3.33301 0.666992 7 2 11c6 16 16.667 24 32 24c3.33301 0 7 -0.666992 11 -2c42.667 -12 85.334 -18 128.001 -18
c52.667 0 105.667 9.33301 159 28l74 136l180 328c61.333 108 125 209 191 303c139.333 198 276.333 326 411 384c19.333 13.333 49.666 24 90.999 32c35.333 6.66699 67.333 10 96 10c20.667 0 36 -1.66699 46 -5c5.33301 -2.66699 8 -6.33398 8 -11.001
c-0.666992 -4.66699 -2.33398 -10.667 -5.00098 -18c-2 -4 -3.66699 -8.66699 -5 -14c-30.667 -96 -77.334 -222 -140.001 -378l-159 -417l22 1c75.333 0 145 -22 209 -66c9.33301 -7.33301 14 -16.666 14 -27.999c0 -6.66699 -1.66699 -13 -5 -19
c-7.33301 -10 -17 -15 -29 -15c-6.66699 0 -13 2 -19 6c-54.667 36 -111.334 54 -170.001 54c-15.333 0 -31 -1.33301 -47 -4c-52 -148 -92.667 -289.667 -122 -425c-20.667 -92 -31 -175.333 -31 -250c0 -35.333 2.33301 -68.333 7 -99
c10.667 -72.667 39 -128.334 85 -167.001c2.66699 -2.66699 4 -5.66699 4 -9c0 -8 -8.66699 -17.5 -26 -28.5s-34.333 -16.5 -51 -16.5c-10.667 0 -20.667 2 -30 6c-70 33.333 -115.333 92.333 -136 177c-12 50 -18 105.333 -18 166c0 146.667 34.333 337.667 103 573
c-58.667 -30 -118.334 -63 -179.001 -99c-131.333 -78 -238.666 -132.333 -321.999 -163c-98 -186 -196 -341.667 -294 -467c-108.667 -134.667 -214.334 -202 -317.001 -202zM793.004 544.002c80 38 158.999 80.668 236.999 128.001c82 49.333 161.667 91.666 239 126.999
c56.667 180 112.334 344 167.001 492c43.333 119.333 75 213 95 281c-159.333 -90 -334 -302.667 -524 -638z" />
    <glyph glyph-name="B" unicode="B" horiz-adv-x="1535" 
d="M322 -263l-3.99805 -0.000976562c-12 0 -23.667 12.667 -35 38c-15.333 34.667 -23 71.334 -23 110.001c0 25.333 5.33301 45.333 16 60h10c95.333 0 224.833 37 388.5 111s315.167 162.667 454.5 266c55.333 41.333 103.333 83.333 144 126c34 36 63.667 77.333 89 124
c23.333 44 35 86.333 35 127c0 30.667 -11.333 57.667 -34 81c-34.667 34 -98.334 51 -191.001 51c-86 0 -182.333 -24 -289 -72c-52 -24 -103.667 -49.333 -155 -76c-85.333 -47.333 -172 -86.333 -260 -117l-4 -1c-22.667 -92.667 -34 -177.667 -34 -255
c0 -104.667 24 -182 72 -232c2 -4.66699 3 -9.33398 3 -14.001c0 -4 -0.666992 -8 -2 -12c-6 -18.667 -20 -31 -42 -37c-6 -1.33301 -11.667 -2 -17 -2c-10 0 -19.667 2 -29 6c-18.667 10 -43.334 42 -74.001 96c-46 79.333 -69 177 -69 293
c0 49.333 8.33301 125.333 25 228s61.334 231.5 134.001 386.5s158.334 294.167 257.001 417.5c7.33301 6 18 9 32 9c4 0 12.167 -0.5 24.5 -1.5s29.333 -5.16699 51 -12.5s38.5 -15.666 50.5 -24.999c8 -6 12 -11.667 12 -17c0 -3.33301 -1.33301 -6.33301 -4 -9
c-132.667 -170.667 -244 -380 -334 -628c89.333 36 192.333 86 309 150s226.334 136.667 329.001 218c51.333 41.333 96 83.333 134 126c31.333 36 58.666 77.333 81.999 124c21.333 42.667 32 84 32 124c0 89.333 -68.333 134 -205 134c-21.333 0 -44 -1.33301 -68 -4
c-136 -16.667 -290.667 -62.667 -464 -138l-3 -2c-18 -7.33301 -59 -28.333 -123 -63s-134.667 -77 -212 -127c-80 -53.333 -139 -98 -177 -134c-57.333 -55.333 -86 -97.666 -86 -126.999c0 -28 28.667 -49.667 86 -65c16.667 -4.66699 25 -15.667 25 -33
c0 -11.333 -4.33301 -20.333 -13 -27c-6.66699 -4.66699 -13.667 -7 -21 -7l-9 1c-90.667 25.333 -136 68.666 -136 129.999c0 82.667 98 189 294 319c74 48 144 90 210 126s111 59.333 135 70h1c180 78.667 341.667 126.667 485 144c27.333 3.33301 53.333 5 78 5
c27.333 0 53.333 -2 78 -6c115.333 -21.333 191 -74 227 -158c14.667 -34.667 22 -71.667 22 -111c0 -22.667 -4.66699 -56.5 -14 -101.5s-40.333 -99.833 -93 -164.5c-71.333 -86 -173.333 -174 -306 -264c21.333 1.33301 41.666 2 60.999 2
c29.333 0 57.333 -1.66699 84 -5c124.667 -21.333 206 -74 244 -158c16 -34.667 24 -71.667 24 -111c0 -22.667 -5 -56.5 -15 -101.5s-43.333 -99.833 -100 -164.5c-50 -55.333 -108.667 -108 -176 -158c-136.667 -101.333 -283.834 -189 -441.501 -263
s-316.167 -140.333 -475.5 -199z" />
    <glyph glyph-name="C" unicode="C" horiz-adv-x="1297" 
d="M535 -220c-54 0 -105.338 7.66602 -154.005 22.999c-75.333 24 -140.666 63.333 -195.999 118c-123.333 123.333 -185 299 -185 527c0 96 11 193 33 291c96 408.667 281.667 691.334 557 848.001c110 62.667 233 98 369 106l32 1c148 0 260 -49.667 336 -149
c19.333 -26 35.333 -56 48 -90c18 -48 27 -97.667 27 -149c0 -12 -0.666992 -23.167 -2 -33.5s-5.33301 -18.166 -12 -23.499s-14.334 -8 -23.001 -8c-10 0 -18.667 4.33301 -26 13c-4.66699 6 -7 13 -7 21v3c1.33301 9.33301 2 19 2 29c0 15.333 -1.33301 31.333 -4 48
c-7.33301 56.667 -26.666 106.667 -57.999 150c-61.333 80 -144.666 120 -249.999 120c-15.333 0 -31 -1 -47 -3c-206.667 -26 -382.667 -143.667 -528 -353c-107.333 -150.667 -187.666 -335.334 -240.999 -554.001c-21.333 -94 -32 -186.667 -32 -278
c0 -33.333 1.33301 -66.333 4 -99c10 -127.333 49.667 -240.333 119 -339c33.333 -46 74 -82 122 -108c44 -25.333 94.667 -38 152 -38c44.667 0 93.334 7.66699 146.001 23c127.333 35.333 275 128.333 443 279c6.66699 6 14 9 22 9c10.667 0 19.167 -3.33301 25.5 -10
s9.5 -14 9.5 -22c0 -10 -3.66699 -18.667 -11 -26c-176 -158 -332.333 -256.333 -469 -295c-71.333 -20.667 -138.666 -31 -201.999 -31z" />
    <glyph glyph-name="D" unicode="D" horiz-adv-x="1332" 
d="M422 -19c-7.33301 0 -14.668 0.999023 -22.001 2.99902c-22 8.66699 -50 37.667 -84 87c-70 96.667 -105 224.667 -105 384c0 18 2.33301 70.167 7 156.5s34.834 210.333 90.501 372s125.834 308.834 210.501 441.501c8 8 22.333 12.333 43 13
c23.333 0 45.666 -2.33301 66.999 -7c42.667 -9.33301 64 -21.333 64 -36c0 -2.66699 -1 -5.33398 -3 -8.00098c-56.667 -88.667 -108.5 -192.667 -155.5 -312s-84.833 -241.666 -113.5 -366.999c-28 -122.667 -42 -236.667 -42 -342c0 -112 19.333 -200.333 58 -265
c12 -19.333 26.333 -36 43 -50c2.66699 -6 4 -11.667 4 -17c0 -23.333 -13 -40 -39 -50c-7.33301 -2 -15 -3 -23 -3zM363.998 -211.001c-63.333 0 -123.331 13.999 -179.998 41.999c-118 58.667 -179.333 186 -184 382c0 10 3.16699 18.167 9.5 24.5s14.5 9.83301 24.5 10.5
c9.33301 0 17.333 -3.16699 24 -9.5s10 -14.5 10 -24.5c4.66699 -167.333 54 -275 148 -323c43.333 -21.333 88.333 -32 135 -32c12 0 24.333 0.666992 37 2c106.667 15.333 213.334 65 320.001 149c150 116.667 276.333 264.334 379 443.001
c80 141.333 127.667 289.333 143 444c2 22.667 3 45 3 67c0 113.333 -25.667 223.666 -77 330.999c-56.667 113.333 -137 201.333 -241 264c-76.667 46.667 -164 70 -262 70c-34 0 -69.333 -3 -106 -9h-2c-88 -16.667 -164.5 -48.5 -229.5 -95.5
s-115.833 -101.5 -152.5 -163.5c-42 -70 -63 -139 -63 -207c0 -27.333 6.66699 -59.166 20 -95.499s48.333 -64.833 105 -85.5c16 -4.66699 24 -15 24 -31c0 -3.33301 -0.666992 -7 -2 -11c-7.33301 -16 -18 -24 -32 -24c-4 0 -7.66699 0.333008 -11 1
c-114 40 -171 124.333 -171 253v18c9.33301 110 56.666 213.667 141.999 311c87.333 102 206.666 167.667 357.999 197h3c46 7.33301 91 11 135 11c109.333 0 221.166 -27.333 335.499 -82s210.5 -145.334 288.5 -272.001c73.333 -126 110 -257.333 110 -394
c0 -19.333 -0.666992 -39 -2 -59c-13.333 -167.333 -64.666 -327.666 -153.999 -480.999c-124.667 -212.667 -283.334 -377.667 -476.001 -495c-121.333 -74 -247.333 -115.667 -378 -125z" />
    <glyph glyph-name="E" unicode="E" horiz-adv-x="1142" 
d="M183 -214c-10.667 0 -20.999 1.99707 -30.999 5.99707c-82 41.333 -130.333 117.666 -145 228.999c-4.66699 36.667 -7 75.334 -7 116.001c0 83.333 12.333 187.333 37 312s62.167 264.334 112.5 419.001s98.833 296 145.5 424l69 196
c-50.667 -18.667 -88 -36.667 -112 -54c-6.66699 -4.66699 -13.334 -7 -20.001 -7c-10.667 0 -19.667 4.66699 -27 14c-4.66699 6.66699 -7 13.334 -7 20.001c0 11.333 4.66699 20.666 14 27.999c40 28 99 54.667 177 80c10 36 15 62.333 15 79v7c15.333 14 45 25.667 89 35
c36 8 69 12 99 12c38.667 0 58 -5.33301 58 -16c0 -5.33301 -1.33301 -11.666 -4 -18.999c-2 -3.33301 -5.66699 -14.333 -11 -33c56 12 110.667 22.333 164 31c193.333 31.333 357 47 491 47c73.333 0 137.666 -4.66699 192.999 -14c18 -4 27 -15 27 -33v-6
c-4 -18.667 -15 -28 -33 -28l-7 1c-50.667 8 -109.667 12 -177 12c-130 0 -291 -15.333 -483 -46c-71.333 -12 -138.333 -25 -201 -39c-29.333 -82 -65.333 -177 -108 -285c-67.333 -167.333 -133.666 -345 -198.999 -533c100.667 42 203.667 75.333 309 100
c87.333 20.667 172.333 31 255 31c72 0 136.333 -13.667 193 -41c12 -6.66699 18 -16.334 18 -29.001c0 -5.33301 -1.33301 -11 -4 -17c-6.66699 -12 -16.334 -18 -29.001 -18c-5.33301 0 -11 1.33301 -17 4c-43.333 22 -99.666 33 -168.999 33
c-65.333 0 -142.666 -9.66699 -231.999 -29c-123.333 -28.667 -240.666 -68.667 -351.999 -120c-54 -166 -89 -318.333 -105 -457c-4 -33.333 -6 -65 -6 -95c0 -92.667 19 -167.667 57 -225c84.667 38 177 62.667 277 74c94.667 10.667 165 16 211 16h43
c230 0 373.667 -32.667 431 -98c4.66699 -6 7 -12.667 7 -20c0 -1.33301 -0.333008 -4.66602 -1 -9.99902s-4.33398 -10.666 -11.001 -15.999s-13.667 -8 -21 -8c-11.333 0 -20.333 4.33301 -27 13c-16 19.333 -59.667 36.333 -131 51c-66 13.333 -150.333 20 -253 20
c-210.667 0 -374.334 -27 -491.001 -81c-5.33301 -6 -12.333 -11.667 -21 -17c-17.333 -10.667 -34 -16 -50 -16z" />
    <glyph glyph-name="F" unicode="F" horiz-adv-x="643" 
d="M183 -213c-10.667 0 -20.668 2.00684 -30.001 6.00684c-82.667 41.333 -131.334 117.666 -146.001 228.999c-4.66699 36 -7 74 -7 114c0 83.333 12.5 187.666 37.5 312.999s62.5 265.333 112.5 420s98.333 296 145 424l49 137
c-33.333 -17.333 -58.666 -33.666 -75.999 -48.999c-7.33301 -6 -15 -9 -23 -9c-9.33301 0 -17.166 3.66699 -23.499 11s-9.5 15 -9.5 23c0 10.667 3.66699 19.334 11 26.001c34 29.333 84.333 58.666 151 87.999c20.667 61.333 31 103.666 31 126.999
c0 3.33301 -0.333008 6.33301 -1 9c16 14 46 25.667 90 35c36 8 69 12 99 12c23.333 0 40 -1.66699 50 -5c5.33301 -2.66699 8 -6.33398 8 -11.001s-7.33301 -29 -22 -73c55.333 17.333 109.333 33 162 47c253.333 64.667 456.333 97 609 97c24 0 47 -0.666992 69 -2
c9.33301 -0.666992 16.833 -4.33398 22.5 -11.001s8.5 -14.334 8.5 -23.001c0 -10 -4.33301 -18.667 -13 -26c-6 -4.66699 -14 -7 -24 -7c-19.333 1.33301 -39.666 2 -60.999 2c-147.333 0 -345.333 -32 -594 -96c-74 -19.333 -143 -39.666 -207 -60.999l-100 -259
c-71.333 -176.667 -140.666 -364 -207.999 -562c188 98 367.667 157.333 539 178c22.667 2.66699 44.667 4 66 4c55.333 0 106.333 -9.33301 153 -28c14 -6.66699 21 -17 21 -31c0 -4.66699 -1 -9.33398 -3 -14.001c-7.33301 -13.333 -17.666 -20 -30.999 -20
c-4.66699 0 -9.33398 1 -14.001 3c-34.667 14 -76.334 21 -125.001 21c-74.667 0 -166.334 -16.333 -275.001 -49c-129.333 -40.667 -249.666 -93.334 -360.999 -158.001c-65.333 -214.667 -98 -385.334 -98 -512.001c0 -30.667 3.33301 -72.5 10 -125.5
s33.667 -99.833 81 -140.5c3.33301 -2.66699 5 -5.66699 5 -9c0 -8 -8.83301 -17.5 -26.5 -28.5s-34.834 -16.5 -51.501 -16.5z" />
    <glyph glyph-name="G" unicode="G" horiz-adv-x="1297" 
d="M1305 -217l-5.00195 -0.00195312c-92.667 18 -156.667 85.667 -192 203c-13.333 46.667 -20 95 -20 145c0 18.667 1 37.667 3 57c-40 -73.333 -88.333 -145 -145 -215l-2 -1c-42 -50.667 -92 -92.667 -150 -126c-73.333 -39.333 -156.666 -59 -249.999 -59
c-144 0 -263.333 47.333 -358 142c-97.333 100 -155.666 223.333 -174.999 370c-7.33301 52.667 -11 105.667 -11 159c0 94.667 11 191 33 289c96 407.333 282 690 558 848c110 62.667 232.667 98 368 106l33 1c148.667 0 260.334 -50 335.001 -150
c50 -70 75 -148.667 75 -236c0 -12.667 -0.666992 -24.334 -2 -35.001s-5.33301 -18.667 -12 -24s-14 -8 -22 -8c-10.667 0 -19 3.66699 -25 11s-9 15 -9 23v3c1.33301 10 2 20.667 2 32c0 74 -20.667 138.667 -62 194c-60 80 -142.333 120 -247 120
c-16 0 -32.333 -1 -49 -3c-111.333 -13.333 -211 -52.333 -299 -117c-226 -165.333 -382.667 -428.666 -470 -789.999c-21.333 -93.333 -32 -185.333 -32 -276c0 -49.333 3 -98 9 -146c14.667 -109.333 52.667 -207 114 -293c25.333 -35.333 55.333 -65 90 -89
c58.667 -38.667 122.667 -58 192 -58c120 0 224.333 52 313 156v1h1c59.333 74 110 150.667 152 230l61 101c-63.333 -20.667 -149.333 -33.667 -258 -39h-1c-9.33301 0 -17.166 3 -23.499 9s-9.83301 13.667 -10.5 23c0 10 3.16699 18.333 9.5 25
s14.166 10.334 23.499 11.001c125.333 6.66699 217.666 23 276.999 49c67.333 29.333 101 48 101 56c6.66699 6.66699 14.667 10 24 10c10.667 0 19.167 -3.5 25.5 -10.5s9.5 -14.5 9.5 -22.5c0 -10 -3.66699 -18.667 -11 -26c-77.333 -73.333 -116 -174.666 -116 -303.999
c0 -43.333 5.33301 -84.666 16 -123.999c27.333 -90.667 73.333 -142.334 138 -155.001c9.33301 -2 16.333 -6.33301 21 -13s7 -13.667 7 -21v-5c-4 -18.667 -15.333 -28 -34 -28z" />
    <glyph glyph-name="H" unicode="H" horiz-adv-x="1228" 
d="M1088 -210c-10 0 -19.6641 1.99805 -28.9971 5.99805c-60.667 28.667 -102.334 76.334 -125.001 143.001c-19.333 59.333 -29 127.333 -29 204c0 170 46 398.667 138 686c-15.333 -0.666992 -31.333 -2 -48 -4c-212 -22 -417.333 -65.333 -616 -130
c-81.333 -248 -122 -443.667 -122 -587c0 -28.667 1.33301 -56 4 -82c9.33301 -80 38.333 -140.667 87 -182c3.33301 -2.66699 5 -5.66699 5 -9c0 -8 -8.83301 -17.5 -26.5 -28.5s-34.834 -16.5 -51.501 -16.5c-10.667 0 -20.667 2 -30 6
c-80.667 40 -128.667 113.333 -144 220c-6 38 -9 79 -9 123c0 122.667 24.667 278.334 74 467.001c-49.333 -26.667 -84 -53.667 -104 -81c-8 -9.33301 -17.333 -14 -28 -14c-6.66699 0 -13.334 2 -20.001 6c-9.33301 7.33301 -14 17 -14 29c0 6 2 12 6 18
c39.333 49.333 100.666 92.666 183.999 129.999c64.667 218.667 130.334 417.667 197.001 597c73.333 198.667 110 316 110 352c0 3.33301 -0.333008 6.33301 -1 9c16 14.667 46 26.334 90 35.001c38.667 8 73.667 12 105 12c34.667 0 52 -5.33301 52 -16
c0 -4.66699 -1.66699 -10.667 -5 -18c-43.333 -130 -91.666 -260.667 -144.999 -392c-62.667 -156.667 -125 -322.667 -187 -498c190.667 58.667 384.667 98 582 118c25.333 2.66699 51 4.66699 77 6l136 392c34 94 61.333 173 82 237c18 56 27 97.333 27 124
c15.333 14.667 45 26.334 89 35.001c38.667 8 78 12 118 12c26 -2 39 -7 39 -15v-4c0 -2.66699 -1.33301 -7.66699 -4 -15c-2 -4 -3.66699 -8.66699 -5 -14c-30.667 -96 -77.334 -222 -140.001 -378l-144 -375c74 -6.66699 129 -25.334 165 -56.001
c6.66699 -6.66699 10.334 -14.334 11.001 -23.001c0 -9.33301 -3.33301 -17.5 -10 -24.5s-15.334 -10.5 -26.001 -10.5c-8 0 -15.333 3 -22 9c-17.333 18.667 -64.666 31.334 -141.999 38.001c-59.333 -164 -105.333 -321 -138 -471c-20.667 -92.667 -31 -176 -31 -250
c0 -46 4 -88.667 12 -128c13.333 -59.333 40 -105.333 80 -138c2.66699 -2.66699 4 -5.66699 4 -9c0 -8 -8.83301 -17.5 -26.5 -28.5s-34.834 -16.5 -51.501 -16.5z" />
    <glyph glyph-name="I" unicode="I" horiz-adv-x="397" 
d="M264 -217c-10.667 0 -21.002 1.99609 -31.002 5.99609c-82.667 41.333 -131 118.333 -145 231c-4.66699 36.667 -7 75.334 -7 116.001c0 83.333 12.5 187.166 37.5 311.499s62.5 263.833 112.5 418.5s98.333 296 145 424l67 190
c-40.667 -37.333 -85.667 -75.166 -135 -113.499s-94.333 -76.5 -135 -114.5c-69.333 -65.333 -104 -126.333 -104 -183c0 -21.333 4.33301 -43 13 -65c2 -4.66699 3 -9.33398 3 -14.001c0 -14 -7.33301 -24.333 -22 -31c-4 -2 -8.33301 -3 -13 -3
c-13.333 0 -23.666 7 -30.999 21c-12.667 32.667 -19 64 -19 94c0 26.667 7.66699 59.334 23 98.001c26 62.667 107.333 146.667 244 252c46.667 36 89.667 72.333 129 109s66 73 80 109c6.66699 20.667 42.334 37.334 107.001 50.001c34.667 6.66699 66.334 10 95.001 10
h14c26 -2 39 -7 39 -15c0 -5.33301 -1.33301 -11.666 -4 -18.999c-2 -4.66699 -3.66699 -9.66699 -5 -15c-30.667 -96 -77.334 -222.333 -140.001 -379c-53.333 -133.333 -107 -274.666 -161 -423.999c-117.333 -322 -176 -572 -176 -750c0 -18 0.666992 -35.667 2 -53
c6 -92 36 -160.667 90 -206c2.66699 -2.66699 4 -5.66699 4 -9c0 -8.66699 -8.66699 -18.5 -26 -29.5s-34.333 -16.5 -51 -16.5z" />
    <glyph glyph-name="J" unicode="J" horiz-adv-x="1231" 
d="M645 -204c-4 0 -23.8291 0.667969 -59.4961 2.00098s-85.834 20.166 -150.501 56.499s-124 78.833 -178 127.5c-115.333 98.667 -194 209.334 -236 332.001c-14 40.667 -21 81.334 -21 122.001c0 24 2.33301 47.667 7 71c19.333 129.333 129.333 227.333 330 294l10 1
c5.33301 0 11.333 -1.66699 18 -5c10.667 -5.33301 16 -14.666 16 -27.999c0 -16 -8 -27 -24 -33c-192.667 -60.667 -289 -159.334 -289 -296.001c0 -55.333 16.333 -115.333 49 -180c42.667 -80.667 104.334 -156.334 185.001 -227.001
c121.333 -110 224.666 -165 309.999 -165c50 0 97.333 26 142 78c43.333 55.333 85.333 130 126 224c75.333 178 142.166 380.167 200.499 606.5s104.166 425.333 137.499 597s50 264.5 50 278.5c16 14.667 45.667 26.334 89 35.001c38.667 8 74 12 106 12
c20 0 34.667 -1.66699 44 -5c5.33301 -2.66699 8 -6.33398 8 -11.001c-0.666992 -6 -4 -17 -10 -33c-17.333 -60 -39.333 -145.667 -66 -257c-29.333 -120.667 -64 -256.334 -104 -407.001c-98.667 -368 -203.334 -655.333 -314.001 -862
c-116.667 -218.667 -242 -328 -376 -328z" />
    <glyph glyph-name="K" unicode="K" horiz-adv-x="938" 
d="M1000 -217c-12.667 0 -32.165 2.83008 -58.498 8.49707s-55.166 23.834 -86.499 54.501c-34.667 33.333 -65 74.333 -91 123c-34.667 65.333 -71.334 155.666 -110.001 270.999c-12 37.333 -23.333 70 -34 98c-17.333 45.333 -37.666 84.333 -60.999 117
c-43.333 58.667 -102.333 88 -177 88c-41.333 0 -90.333 -8.66699 -147 -26c-46.667 -162 -70 -304 -70 -426c0 -117.333 30.667 -201.666 92 -252.999c2.66699 -2.66699 4 -5.66699 4 -9c0 -8.66699 -8.83301 -18.5 -26.5 -29.5s-34.834 -16.5 -51.501 -16.5
c-10.667 0 -20.667 2 -30 6c-44 20.667 -78 52.334 -102 95.001c-34 59.333 -51 141.666 -51 246.999c0 88.667 13.167 196.667 39.5 324s64.166 266.833 113.499 418.5s97 290.5 143 416.5c34 94.667 61.333 173.667 82 237c18 56.667 27 95.667 27 117v8
c15.333 14.667 45 26.334 89 35.001c38.667 8 73.667 12 105 12h13c26 -2.66699 39 -7.66699 39 -15c0 -5.33301 -1.66699 -11.666 -5 -18.999l-4 -15c-30.667 -96 -77.667 -222.333 -141 -379c-78.667 -194.667 -153.667 -400 -225 -616c32 16 74.333 40 127 72
c126.667 78 256.334 169.333 389.001 274c168 132.667 301.167 256.167 399.5 370.5s154.833 211.5 169.5 291.5c4 18.667 15.333 28 34 28h6c18 -4 27 -15.333 27 -34v-6c-16.667 -80.667 -59 -164.834 -127 -252.501s-145 -171 -231 -250s-164.333 -146.167 -235 -201.5
c-178.667 -139.333 -345.334 -252 -500.001 -338c22.667 2.66699 44.334 4 65.001 4c36.667 0 70.667 -4.33301 102 -13c95.333 -28 172.666 -89.667 231.999 -185c39.333 -65.333 68.666 -139 87.999 -221l17 -68c26 -111.333 53.333 -186.666 82 -225.999
c23.333 -31.333 52.333 -47 87 -47c19.333 0 41.666 5 66.999 15c4.66699 2 9.33398 3 14.001 3c14.667 0 25 -7 31 -21c2 -4 3 -8.33301 3 -13c0 -14.667 -7 -25 -21 -31c-36.667 -15.333 -70.667 -23 -102 -23z" />
    <glyph glyph-name="L" unicode="L" horiz-adv-x="1019" 
d="M183 -217c-10.667 0 -20.6641 1.99902 -29.9971 5.99902c-82.667 41.333 -131.334 117.666 -146.001 228.999c-4.66699 36.667 -7 75.334 -7 116.001c0 83.333 12.333 187.333 37 312c40 201.333 126 482.333 258 843c72.667 203.333 109 321.666 109 354.999v8
c15.333 14.667 45 26.334 89 35.001c38.667 8 73.667 12 105 12c20.667 0 35.667 -1.66699 45 -5c5.33301 -2.66699 8 -6.33398 8 -11.001c-0.666992 -4.66699 -2.33398 -10.667 -5.00098 -18c-2 -4.66699 -3.66699 -9.66699 -5 -15
c-30.667 -96 -77.334 -222.333 -140.001 -379c-129.333 -322 -221.333 -585 -276 -789c-41.333 -152.667 -62 -281.667 -62 -387c0 -91.333 19 -164.666 57 -219.999c84.667 38.667 177 63.667 277 75c94.667 10.667 165 16 211 16h42c85.333 0 170.333 -7 255 -21
s143.667 -39.667 177 -77c4.66699 -6.66699 7 -13.667 7 -21c0 -1.33301 -0.166992 -4.66602 -0.5 -9.99902s-4 -10.666 -11 -15.999s-14.167 -8 -21.5 -8c-10.667 0 -19.667 4.33301 -27 13c-16 19.333 -59 36.166 -129 50.499s-159.333 21.5 -268 21.5h-15
c-200.667 -4.66699 -355 -32 -463 -82c-5.33301 -6 -12.5 -11.833 -21.5 -17.5s-17.5 -9.66699 -25.5 -12s-16 -3.5 -24 -3.5z" />
    <glyph glyph-name="M" unicode="M" horiz-adv-x="1918" 
d="M128 -218c-35.333 0 -71.3271 8.66016 -107.994 25.9932c-13.333 6 -20 15.667 -20 29c0 5.33301 1.33301 10.666 4 15.999c6 13.333 15.667 20 29 20c5.33301 0 10.666 -1.33301 15.999 -4c26.667 -12.667 52.667 -19 78 -19c108.667 0 220 138.333 334 415
c42 102.667 84.333 212.334 127 329.001l131 340c45.333 112.667 95 219 149 319c104 188 216.333 316.333 337 385c8 7.33301 22.333 14.666 43 21.999c22.667 10.667 38 16 46 16l7 -1c46 11.333 86.333 17 121 17c17.333 0 26 -3 26 -9c0 -3.33301 -1 -8 -3 -14l-4 -11
c-24 -76.667 -61.667 -178 -113 -304c-48.667 -119.333 -96.667 -245.833 -144 -379.5s-80.666 -259.167 -99.999 -376.5c-7.33301 -44 -11 -84.667 -11 -122c0 -63.333 10.667 -118 32 -164c38 88.667 173 275.334 405 560.001l296 378
c93.333 124 158.666 227.667 195.999 311c11.333 38 17 65.333 17 82l-1 9c16 14.667 46 26.334 90 35.001c38.667 8 73.667 12 105 12h13c26 -2.66699 39 -7.66699 39 -15c0 -5.33301 -1.66699 -11.666 -5 -18.999c-22.667 -78.667 -71 -209.334 -145 -392.001l-166 -439
c-113.333 -313.333 -170 -555.666 -170 -726.999c0 -31.333 1.66699 -61 5 -89c10 -76 38.667 -134 86 -174c3.33301 -2.66699 5 -5.66699 5 -9c0 -8 -8.83301 -17.5 -26.5 -28.5s-34.834 -16.5 -51.501 -16.5c-10.667 0 -20.667 2 -30 6
c-78 38.667 -125.333 108.334 -142 209.001c-7.33301 42.667 -11 88.334 -11 137.001c0 74 11 169.667 33 287s57.667 253 107 407s97.666 296 144.999 426c-100.667 -137.333 -212.667 -281.666 -336 -432.999c-266.667 -326.667 -402.334 -519.667 -407.001 -579
c8.66699 -7.33301 18.334 -13.666 29.001 -18.999c3.33301 -2 5 -4.33301 5 -7c0 -6 -7.66699 -13.667 -23 -23c-19.333 -12 -39.333 -18 -60 -18c-7.33301 0 -14.333 0.666992 -21 2c-85.333 24 -139 78 -161 162c-12 46 -18 96.333 -18 151
c0 47.333 6.83301 113.833 20.5 199.5s40.167 190.167 79.5 313.5s77.666 236 114.999 338c28.667 80 51 146 67 198c-79.333 -61.333 -150.833 -144.166 -214.5 -248.499s-121.834 -219.833 -174.501 -346.5s-102 -253.5 -148 -380.5s-91.333 -244.167 -136 -351.5
s-91.834 -198 -141.501 -272s-105.167 -124 -166.5 -150c-26 -10.667 -52.667 -16 -80 -16z" />
    <glyph glyph-name="N" unicode="N" horiz-adv-x="1070" 
d="M943 -210c-10.667 0 -20.6699 2 -30.0029 6c-74.667 36.667 -121.334 102.334 -140.001 197.001c-8.66699 46 -13 95.667 -13 149c0 74 11.333 171.167 34 291.5s59.834 260.333 111.501 420s101.5 305.5 149.5 437.5l6 17l-193 -295
c-215.333 -322.667 -371.666 -569 -468.999 -739c-104 -184.667 -156 -310.334 -156 -377.001c0 -13.333 2.33301 -22.333 7 -27c7.33301 -6 11.333 -13.333 12 -22c0 -10.667 -2.33301 -19 -7 -25s-13.667 -13 -27 -21s-28.333 -12 -45 -12c-10.667 0 -20.667 2 -30 6
c-64 30.667 -107 83 -129 157c-16 56 -24 119 -24 189c0 62.667 9.83301 151.667 29.5 267s56.334 256.833 110.001 424.5s105.834 320.167 156.501 457.5c34 94.667 61.333 173.667 82 237c18 54.667 27 93 27 115c0 3.33301 -0.333008 6.33301 -1 9
c16 14.667 46 26.334 90 35.001c38.667 8 73.667 12 105 12c34.667 0 52 -5 52 -15v-4c0 -2.66699 -1.66699 -7.66699 -5 -15c-22.667 -78.667 -71 -209.334 -145 -392.001c-58 -145.333 -116.167 -299.333 -174.5 -462s-103.166 -318 -134.499 -466
c-18 -85.333 -27 -162.666 -27 -231.999c0 -59.333 6 -110 18 -152c30 128.667 156.667 366 380 712l248 378c216 322.667 333 511 351 565c2 11.333 3 20.333 3 27c0 3.33301 -0.333008 6.33301 -1 9c16 14.667 46 26.334 90 35.001c38 8 73 12 105 12
c34.667 0 52 -5.33301 52 -16c0 -4.66699 -1.66699 -10.667 -5 -18c-40.667 -121.333 -88.834 -251.833 -144.501 -391.5s-111.5 -287.5 -167.5 -443.5c-112.667 -310 -169 -550.333 -169 -721c0 -34.667 2 -67.334 6 -98.001c10.667 -72.667 39 -128.334 85 -167.001
c3.33301 -2.66699 5 -5.66699 5 -9c0 -8 -9 -17.5 -27 -28.5s-35 -16.5 -51 -16.5z" />
    <glyph glyph-name="O" unicode="O" horiz-adv-x="1345" 
d="M418 -222c-109.333 0 -198.665 30.998 -267.998 92.998c-76.667 70.667 -124 165.667 -142 285c-5.33301 29.333 -8 65.333 -8 108c0 105.333 21.333 214 64 326c34.667 90 81.334 175 140.001 255c-30 60 -45 124.333 -45 193c0 29.333 2.66699 59.666 8 90.999v4
c25.333 117.333 81.666 223 168.999 317c76 82.667 167 146.667 273 192c82 34.667 166.333 52 253 52c143.333 0 263 -47 359 -141c123.333 -126 185 -298.333 185 -517c0 -7.33301 -0.333008 -36.166 -1 -86.499s-11.334 -122.166 -32.001 -215.499l-3 -12
c82.667 40 149.667 81 201 123c7.33301 5.33301 14.666 8 21.999 8c1.33301 0 4.5 -0.333008 9.5 -1s10.167 -4.33398 15.5 -11.001s8 -13.667 8 -21c0 -11.333 -4 -20.666 -12 -27.999c-60 -49.333 -148.333 -100.666 -265 -153.999
c-124.667 -423.333 -347.667 -694 -669 -812c-82.667 -30.667 -170 -46.667 -262 -48zM828.001 588.998c117.333 1.33301 230.998 19.333 340.998 54c42 144 63 274.667 63 392c0 59.333 -4.66699 117.666 -14 174.999c-17.333 98 -53.666 186.333 -108.999 265
c-38.667 53.333 -87.334 93 -146.001 119c-44 18 -89.333 27 -136 27c-24 0 -60.167 -4.5 -108.5 -13.5s-104.666 -33 -168.999 -72s-118.833 -82.5 -163.5 -130.5c-78.667 -86 -129.334 -181 -152.001 -285v-4c-5.33301 -23.333 -8 -48.666 -8 -75.999
c0 -8 0.5 -23 1.5 -45s8.83301 -52.333 23.5 -91c52.667 64 87 96 103 96c10.667 0 19.334 -3.5 26.001 -10.5s10 -14.833 10 -23.5c0 -9.33301 -3.66699 -17.333 -11 -24c-33.333 -32.667 -64.666 -67.334 -93.999 -104.001c30 -47.333 76.333 -92.666 139 -135.999
c115.333 -75.333 250 -113 404 -113zM388.999 -152.002c77.333 0 155.667 19.666 235 58.999c67.333 32.667 129 74.667 185 126c140 129.333 251.333 307 334 533c-102 -30 -210 -45 -324 -45c-161.333 0 -305.666 41.667 -432.999 125
c-58.667 40 -106.334 85 -143.001 135c-116 -170 -174 -343.667 -174 -521c0 -35.333 2.33301 -66.666 7 -93.999c15.333 -104 55.333 -185.667 120 -245c58.667 -48.667 123 -73 193 -73z" />
    <glyph glyph-name="P" unicode="P" horiz-adv-x="885" 
d="M412 -218c-9.33301 0 -18.3291 2.67285 -26.9961 8.00586c-19.333 11.333 -44.333 48.666 -75 111.999c-46 93.333 -69 208 -69 344c0 58.667 8.5 148.667 25.5 270s61.833 273.333 134.5 456s158 346.667 256 492c7.33301 7.33301 18.666 11 33.999 11
c21.333 0 46 -5.33301 74 -16c41.333 -16.667 62 -33.334 62 -50.001c0 -4 -1.33301 -7.66699 -4 -11c-114.667 -172 -214.667 -384 -300 -636c89.333 36.667 192 86.667 308 150s225 135.666 327 216.999s173.667 164.666 215 249.999c22 44 33 86.333 33 127
c0 31.333 -10.667 58.333 -32 81c-32 33.333 -88.667 50 -170 50c-141.333 0 -320 -47.333 -536 -142l-2 -2c-18 -7.33301 -59 -28.166 -123 -62.499s-134.667 -76.833 -212 -127.5c-80 -53.333 -139 -98 -177 -134c-58 -56 -87 -98.667 -87 -128v-3
c4.66699 -26.667 33.667 -47 87 -61c16 -4.66699 24 -15.334 24 -32.001l-1 -10c-4.66699 -16.667 -15.334 -25 -32.001 -25c-3.33301 0 -6.33301 0.333008 -9 1c-90.667 25.333 -136 69 -136 131c0 82.667 97.667 188.667 293 318
c131.333 85.333 246.333 150.666 345 195.999h1c180 79.333 342 127.333 486 144c27.333 3.33301 53.333 5 78 5c27.333 0 53.333 -2 78 -6c115.333 -21.333 190.666 -74 225.999 -158c15.333 -34.667 23 -71.334 23 -110.001c0 -23.333 -4.66699 -57.5 -14 -102.5
s-40.333 -99.5 -93 -163.5c-46.667 -55.333 -101.334 -108.333 -164.001 -159c-137.333 -108 -282.5 -200.833 -435.5 -278.5s-271.5 -129.834 -355.5 -156.501h-3c-44 -165.333 -66 -311 -66 -437c0 -126.667 24.333 -218.334 73 -275.001
c1.33301 -5.33301 2 -10.666 2 -15.999c0 -29.333 -14.667 -48.666 -44 -57.999c-6 -2 -12 -3 -18 -3z" />
    <glyph glyph-name="Q" unicode="Q" horiz-adv-x="1343" 
d="M418 -222c-108.667 0 -198.332 31.001 -268.999 93.001c-76 70.667 -123.333 165.667 -142 285l-3 30c-2.66699 26 -4 52.333 -4 79c0 105.333 21 213.666 63 324.999c34.667 90 81.667 174.667 141 254c-30.667 60.667 -46 125.334 -46 194.001
c0 29.333 2.66699 59.333 8 90c0 2 0.333008 3.66699 1 5c24.667 117.333 80.667 223 168 317c76.667 82.667 168 146.667 274 192c81.333 34.667 165.333 52 252 52c144 0 263.667 -47 359 -141c96.667 -99.333 155 -222 175 -368c7.33301 -52.667 11 -106 11 -160
c0 -94.667 -11.333 -191.667 -34 -291c-82.667 -353.333 -234.334 -613.666 -455.001 -780.999c36 -67.333 80 -101 132 -101c20 0 41.667 4.66699 65 14c4.66699 2 9 3 13 3c14.667 0 25 -7.33301 31 -22c1.33301 -4 2 -8 2 -12c0 -14.667 -7 -25.334 -21 -32.001
c-31.333 -12 -61.333 -18 -90 -18c-28 0 -54.667 6 -80 18c-44 23.333 -80 60.666 -108 111.999c-137.333 -89.333 -285 -135 -443 -137zM388.002 -151.999c10 0 20.334 0.663086 31.001 1.99609c138.667 12 268.334 73 389.001 183c-20.667 60.667 -39 122 -55 184
c-22 87.333 -45.333 156.333 -70 207c-2.66699 5.33301 -4 11 -4 17c0 13.333 5.66699 23 17 29c5.33301 2.66699 10.666 4 15.999 4c14 0 24 -5.66699 30 -17c28.667 -57.333 54 -131.666 76 -222.999c13.333 -49.333 28 -98.666 44 -147.999
c156 168 268.333 392.333 337 673c22 94.667 33 187.667 33 279c0 34.667 -3.66699 91.834 -11 171.501s-45 168.167 -113 265.5c-38.667 53.333 -87 93 -145 119c-44.667 18 -90.334 27 -137.001 27c-23.333 0 -59.166 -4.5 -107.499 -13.5s-104.833 -33 -169.5 -72
s-119 -82.5 -163 -130.5c-78.667 -86 -129.334 -181 -152.001 -285l-1 -4c-4.66699 -25.333 -7 -52.333 -7 -81c0 -6 0.5 -19.667 1.5 -41s8.83301 -51.333 23.5 -90c52.667 64 87 96 103 96c10.667 0 19.334 -3.5 26.001 -10.5s10 -14.833 10 -23.5
c-0.666992 -9.33301 -4.33398 -17.333 -11.001 -24c-34 -32.667 -65.333 -67.334 -94 -104.001c30 -47.333 76.333 -92.666 139 -135.999c10 -6.66699 15 -16 15 -28c0 -6.66699 -2 -13 -6 -19c-8 -10 -17.333 -15 -28 -15c-6.66699 0 -13 2 -19 6
c-59.333 40 -107.333 85 -144 135c-115.333 -170 -173 -343.333 -173 -520c0 -23.333 1 -46.666 3 -69.999c0 -8 1 -16.333 3 -25c16 -104 56 -185.667 120 -245c58.667 -48.667 123 -73 193 -73z" />
    <glyph glyph-name="R" unicode="R" horiz-adv-x="1180" 
d="M413 -218c-10 0 -19.3311 2.66016 -27.998 7.99316c-20.667 12 -45.667 49.333 -75 112c-46 96.667 -69 211.334 -69 344.001c0 58.667 8.5 148.667 25.5 270s61.833 273.333 134.5 456s158.334 346.667 257.001 492c7.33301 7.33301 18.333 11 33 11
c3.33301 0 11.166 -0.666992 23.499 -2s29.166 -6.16602 50.499 -14.499s38.333 -18.166 51 -29.499c7.33301 -7.33301 11 -14 11 -20c0 -4 -1.33301 -7.66699 -4 -11c-114 -172 -214 -384 -300 -636c89.333 36 192 85.833 308 149.5s224.833 136 326.5 217
s173.834 164.5 216.501 250.5c21.333 44 32 86.333 32 127c0 31.333 -10.667 58.333 -32 81c-31.333 33.333 -88 50 -170 50c-141.333 0 -320 -47.333 -536 -142l-2 -2c-18 -7.33301 -59 -28.333 -123 -63s-134.667 -77 -212 -127c-80 -53.333 -139 -98 -177 -134
c-57.333 -55.333 -86 -97.333 -86 -126s28.667 -50.667 86 -66c16.667 -4.66699 25 -15.667 25 -33l-1 -9c-6 -16.667 -17 -25 -33 -25c-3.33301 0 -6.33301 0.333008 -9 1c-90.667 25.333 -136 69 -136 131c0 82.667 97.667 188.667 293 318c74.667 48 145 90 211 126
s111 59.333 135 70l2 1c179.333 78.667 340.666 126.334 483.999 143.001c27.333 3.33301 53.333 5 78 5c27.333 0 53.333 -2 78 -6c115.333 -21.333 191 -74 227 -158c14.667 -34 22 -70.333 22 -109c0 -23.333 -4.66699 -57.666 -14 -102.999s-40.333 -100 -93 -164
c-46 -55.333 -100.667 -108.333 -164 -159c-110 -88 -228.167 -166.5 -354.5 -235.5s-237.166 -122.5 -332.499 -160.5c20 2 39 3 57 3c37.333 0 71.666 -4.33301 102.999 -13c95.333 -28 172.666 -89.667 231.999 -185c39.333 -65.333 68.666 -139 87.999 -221l17 -68
c26 -111.333 53.333 -186.666 82 -225.999c23.333 -31.333 52.333 -47 87 -47c19.333 0 41.666 5 66.999 15c4.66699 2 9.33398 3 14.001 3c14.667 0 25 -7 31 -21c2 -4 3 -8.33301 3 -13c0 -14.667 -7 -25 -21 -31c-36.667 -15.333 -70.667 -23 -102 -23
c-12.667 0 -32.167 2.83301 -58.5 8.5s-55.166 23.834 -86.499 54.501c-34.667 33.333 -65 74.333 -91 123c-34.667 65.333 -71.334 155.666 -110.001 270.999c-12 37.333 -23.333 70 -34 98c-17.333 45.333 -37.666 84.333 -60.999 117c-43.333 58.667 -102 88 -176 88
c-45.333 0 -99.333 -10.333 -162 -31c-34.667 -144.667 -52 -270.334 -52 -377.001c0 -126.667 24.333 -218.667 73 -276c1.33301 -5.33301 2 -10.666 2 -15.999c0 -29.333 -14.667 -48.666 -44 -57.999c-6 -2 -11.667 -3 -17 -3z" />
    <glyph glyph-name="S" unicode="S" horiz-adv-x="1251" 
d="M436 -204l-22.9971 -0.00390625c-114.667 0 -206.667 19.333 -276 58c-91.333 51.333 -137 122.333 -137 213c0 47.333 15 97.333 45 150c0 1.33301 0.666992 3 2 5c57.333 96.667 158.666 188.334 303.999 275.001c80 46.667 171 92.334 273 137.001
c-40 38.667 -78.667 78.334 -116 119.001c-134.667 151.333 -202 289.666 -202 414.999c0 27.333 3.33301 54.333 10 81c51.333 196 248.333 334.667 591 416c69.333 16 132 24 188 24c85.333 0 145.333 -20.333 180 -61c15.333 -18 23 -39.667 23 -65
c0 -27.333 -9 -58.666 -27 -93.999c-6 -11.333 -15.333 -17 -28 -17c-4 0 -8.33301 1 -13 3c-10.667 6 -16 14 -16 24c0 5.33301 1.33301 10.666 4 15.999c12.667 25.333 19 46.666 19 63.999c0 12.667 -3.33301 23 -10 31c-22.667 26 -68.334 39 -137.001 39
c-50.667 0 -107.667 -7.33301 -171 -22c-322 -75.333 -483 -194.666 -483 -357.999c0 -110.667 67.667 -239.667 203 -387c50.667 -54 103.667 -106 159 -156c121.333 46 245.666 86.667 372.999 122c3.33301 1.33301 6.33301 2 9 2c4.66699 0 10 -1.66699 16 -5
c8.66699 -5.33301 13 -13.666 13 -24.999c0 -15.333 -7.33301 -25 -22 -29c-116 -32.667 -229.333 -69.667 -340 -111c11.333 -9.33301 22 -19 32 -29c66.667 -58.667 124 -112.667 172 -162c75.333 -81.333 113 -156.666 113 -225.999c0 -120.667 -92.667 -230 -278 -328
c-142 -73.333 -292 -113 -450 -119zM437.003 -145.004c148 6 288.667 43.334 422 112.001c102.667 58.667 154 125.667 154 201c0 60 -29.333 121.333 -88 184c-44.667 46.667 -98.667 98 -162 154l-92 84c-108.667 -47.333 -205 -95.666 -289 -144.999
c-136.667 -80.667 -231 -165.334 -283 -254.001l-2 -3c-24 -42.667 -36 -83.667 -36 -123c0 -66.667 35.333 -119.334 106 -158.001c62.667 -34.667 147 -52 253 -52h17z" />
    <glyph glyph-name="T" unicode="T" horiz-adv-x="673" 
d="M524 -216c-10.667 0 -20.668 2.00195 -30.001 6.00195c-83.333 41.333 -132 118 -146 230c-4.66699 36.667 -7 75.334 -7 116.001c0 83.333 12.5 187.166 37.5 311.499s62.5 263.833 112.5 418.5s98.333 296 145 424c36 100 64.333 182.667 85 248
c-98 -14 -188.667 -21 -272 -21c-241.333 0 -390.333 67.667 -447 203c-1.33301 4.66699 -2 9 -2 13c0 4.66699 1 10 3 16c5.33301 12.667 15.333 19 30 19c15.333 0 26 -7 32 -21c45.333 -108 172.333 -162 381 -162c109.333 0 235.333 12.333 378 37
c122 21.333 241.333 44.666 358 69.999c260 56 440.333 84 541 84c18.667 0 36.334 -0.666992 53.001 -2c20 -2.66699 30 -14 30 -34c0 -10.667 -4 -19.334 -12 -26.001c-6 -4.66699 -13.333 -7 -22 -7h-3c-14 1.33301 -29 2 -45 2c-90 0 -266 -27.667 -528 -83l-238 -49
c-30.667 -85.333 -69.334 -187 -116.001 -305c-55.333 -138 -110.666 -284.333 -165.999 -439c-114 -316.667 -171 -560.667 -171 -732c0 -30 1.66699 -58.667 5 -86c10 -77.333 39 -136.333 87 -177c2.66699 -2.66699 4 -5.66699 4 -9c0 -8 -8.66699 -17.5 -26 -28.5
s-34.333 -16.5 -51 -16.5z" />
    <glyph glyph-name="U" unicode="U" horiz-adv-x="1164" 
d="M280 -235c-186.667 0 -279.998 124 -279.998 372c0 74.667 11.333 172.334 34 293.001c36.667 194.667 123.667 481 261 859c72.667 203.333 109 321.666 109 354.999v8c15.333 14.667 45 26.334 89 35.001c38.667 8 74 12 106 12c20 0 34.667 -1.66699 44 -5
c5.33301 -2.66699 8 -6.33398 8 -11.001c-0.666992 -4.66699 -2.33398 -10.667 -5.00098 -18c-20.667 -73.333 -69 -204.666 -145 -393.999c-55.333 -138 -110.666 -284.667 -165.999 -440c-113.333 -316 -170 -559 -170 -729c0 -178 47 -267 141 -267
c71.333 0 155 39.667 251 119c39.333 33.333 79.333 75 120 125l2 2c70 87.333 135 194 195 320c45.333 230.667 134.333 526.667 267 888c72.667 203.333 109 321.666 109 354.999v8c15.333 14.667 45 26.334 89 35.001c38.667 8 73.667 12 105 12h13c26 -2 39 -7 39 -15
c0 -5.33301 -1.33301 -11.666 -4 -18.999c-2 -4.66699 -3.66699 -9.66699 -5 -15c-30.667 -96 -77.334 -222.333 -140.001 -379c-54.667 -136 -109.334 -280 -164.001 -432c-115.333 -320.667 -173 -567.334 -173 -740.001c0 -24 1 -47.333 3 -70
c8.66699 -84.667 38.334 -148.334 89.001 -191.001c2.66699 -2.66699 4 -5.66699 4 -9c0 -8.66699 -8.83301 -18.5 -26.5 -29.5s-34.834 -16.5 -51.501 -16.5c-10.667 0 -20.667 2 -30 6c-45.333 21.333 -80 54 -104 98c-32.667 59.333 -49 140 -49 242
c0 25.333 1 51.333 3 78c-37.333 -62.667 -76 -119 -116 -169l-1 -1c-43.333 -54 -86.333 -99 -129 -135c-96 -78 -183.667 -122.333 -263 -133c-20 -2.66699 -39.667 -4 -59 -4z" />
    <glyph glyph-name="V" unicode="V" horiz-adv-x="737" 
d="M231 -217c-7.33301 0 -14.334 0.999023 -21.001 2.99902c-140 42 -210 203 -210 483c0 36.667 3 101.667 9 195c10.667 162 56 427.333 136 796c40.667 188.667 61 302 61 340c0 11.333 -1 20 -3 26c14 16 42.333 31.333 85 46c51.333 18 96 27 134 27
c14 0 21.333 -3.66699 22 -11c0 -4.66699 -1 -10.667 -3 -18l-2 -15c-17.333 -97.333 -46.333 -226 -87 -386c-34 -133.333 -67.333 -274.333 -100 -423c-55.333 -251.333 -83 -455 -83 -611c0 -65.333 5 -125.666 15 -180.999c14 -75.333 41.333 -134.333 82 -177
c46 48.667 99 132.334 159 251.001l186 387c76 166 155 330 237 492s166.833 303.833 254.5 425.5s177.834 205.167 270.501 250.5c4.66699 2 9.33398 3 14.001 3c4 0 9 -1 15 -3c12.667 -5.33301 19 -15.666 19 -30.999c0 -14.667 -6.66699 -25 -20 -31
c-85.333 -42 -170.333 -123.5 -255 -244.5s-167 -261 -247 -420s-155.333 -315.833 -226 -470.5c-81.333 -176.667 -152 -321.834 -212 -435.501s-114 -191.834 -162 -234.501c-20.667 -22 -43.334 -33 -68.001 -33z" />
    <glyph glyph-name="W" unicode="W" horiz-adv-x="1506" 
d="M1010 -217c-6.66699 0 -13.335 0.668945 -20.002 2.00195c-86 24 -144 79.667 -174 167c-24 70.667 -36 152 -36 244c0 139.333 24.667 317 74 533c-126 -273.333 -255 -508.333 -387 -705c-73.333 -109.333 -130.333 -179.333 -171 -210
c-20.667 -20.667 -42.667 -31 -66 -31c-7.33301 0 -14.333 1 -21 3c-139.333 41.333 -209 203.666 -209 486.999c0 227.333 48.333 556.333 145 987c40.667 187.333 61 301 61 341c0 10.667 -1 19 -3 25c13.333 16 41.333 31.333 84 46c51.333 18 96 27 134 27
c5.33301 0 10.333 -0.666992 15 -2s7 -5.66602 7 -12.999c0 -4 -0.666992 -8.33301 -2 -13s-2.33301 -10 -3 -16c-17.333 -97.333 -46.333 -226 -87 -386c-34.667 -137.333 -68.667 -282.833 -102 -436.5s-57.333 -301.167 -72 -442.5
c-5.33301 -54.667 -8 -106.334 -8 -155.001c0 -172 32 -291.333 96 -358c40.667 37.333 95.5 108.166 164.5 212.499s146.5 238.5 232.5 402.5c96 184 171.667 348.667 227 494s84 253 86 323c0.666992 13.333 6.66699 23.333 18 30c19.333 12 48.333 23.333 87 34
c46 12.667 84.667 19 116 19c8 0 14.667 -0.5 20 -1.5s8 -4.16699 8 -9.5c0 -3.33301 -0.666992 -7.16602 -2 -11.499s-2.33301 -8.83301 -3 -13.5c-17.333 -82 -46.333 -190.333 -87 -325c-33.333 -111.333 -66.333 -229.5 -99 -354.5s-56.667 -245.5 -72 -361.5
c-7.33301 -54.667 -11 -105.667 -11 -153c0 -54.667 4.66699 -104.667 14 -150c12.667 -60 37.334 -107.667 74.001 -143c46 44.667 100 127.5 162 248.5s125.667 253.5 191 397.5c76 166 155 330 237 492s166.833 303.833 254.5 425.5s177.834 205.167 270.501 250.5
c4.66699 2 9.33398 3 14 3c14.667 0 25 -6.66699 31 -20c2 -4.66699 3 -9.33398 3 -14.001c0 -14.667 -6.66699 -25 -20 -31c-85.333 -42 -170.333 -123.5 -255 -244.5s-167 -260.833 -247 -419.5s-155.333 -315.667 -226 -471c-78 -169.333 -146.167 -310 -204.5 -422
s-110.833 -191 -157.5 -237c-2 -6.66699 -7.66699 -13.667 -17 -21c-20.667 -15.333 -42 -23 -64 -23z" />
    <glyph glyph-name="X" unicode="X" horiz-adv-x="1297" 
d="M34 -287c-10 0 -19 3.99707 -27 11.9971c-4.66699 6.66699 -7 13.334 -7 20.001c0 12 4 21.333 12 28c49.333 44 105.333 130.833 168 260.5s129 276.834 199 441.501l51 119c-75.333 191.333 -141 368 -197 530c-35.333 101.333 -65.833 185.333 -91.5 252
s-45.834 107 -60.501 121c2.66699 22.667 17.667 53.167 45 91.5s54.666 69.166 81.999 92.499c15.333 12 26 18 32 18s11.333 -7.33301 16 -22c1.33301 -4.66699 3.33301 -9.66699 6 -15c39.333 -100.667 85.666 -237 138.999 -409l138 -415
c60 133.333 122 258.833 186 376.5s130.333 218.834 199 303.501s139.334 144.334 212.001 179.001c4.66699 2 9.33398 3 14.001 3c14.667 0 25 -6.33301 31 -19c2 -5.33301 3 -10.333 3 -15c0 -14 -6.66699 -24 -20 -30c-69.333 -34 -138 -95.667 -206 -185
c-115.333 -150 -244.333 -385.333 -387 -706c182.667 -508 356 -785.333 520 -832c3.33301 42.667 5 89.334 5 140.001v19c0 70 3.33301 140.333 10 211s24.667 128.667 54 174c6.66699 9.33301 15.667 14 27 14c6.66699 0 13.334 -2 20.001 -6
c10 -6.66699 15 -16.334 15 -29.001c0 -6 -2 -12 -6 -18c-23.333 -37.333 -38 -90.333 -44 -159c-5.33301 -62.667 -8 -124.667 -8 -186v-21c-0.666992 -67.333 -3 -120 -7 -158l1 -8c0 -6.66699 -1.5 -15.334 -4.5 -26.001s-7.16699 -20.667 -12.5 -30
c-10.667 -18 -25.667 -30 -45 -36s-39 -9 -59 -9c-55.333 0 -109.333 21.667 -162 65c-136 110.667 -272 329.667 -408 657c-104 -239.333 -181.667 -411.666 -233 -516.999c-64 -131.333 -123.667 -221.333 -179 -270c-6.66699 -4.66699 -13.667 -7 -21 -7z" />
    <glyph glyph-name="Y" unicode="Y" horiz-adv-x="917" 
d="M749 -217c-10.667 0 -20.666 1.99707 -29.999 5.99707c-68.667 33.333 -113.334 92 -134.001 176c-12.667 50.667 -19 107.334 -19 170.001c0 218.667 81.333 554.667 244 1008c-56 -87.333 -111.333 -163.666 -166 -228.999c-146 -174 -274.333 -261 -385 -261
c-11.333 0 -22.333 1 -33 3c-95.333 18.667 -158.666 69.667 -189.999 153c-24 63.333 -36 134.666 -36 213.999c0 25.333 3.16699 72.833 9.5 142.5s24.333 157.167 54 262.5s57.834 189.666 84.501 252.999c6 10 18.333 15 37 15c24 0 49.333 -4.33301 76 -13
s48 -19 64 -31c13.333 -9.33301 20 -18.666 20 -27.999l-2 -7c-22 -11.333 -46.5 -47 -73.5 -107s-51.833 -132.333 -74.5 -217c-36.667 -136.667 -55 -253.334 -55 -350.001c0 -43.333 5.16699 -88.5 15.5 -135.5s37.5 -75.167 81.5 -84.5c6.66699 -1.33301 14 -2 22 -2
c90 0 201 78.667 333 236v1h1c112 135.333 226.333 317.333 343 546c23.333 69.333 35 116.333 35 141v7c15.333 14.667 45 26.334 89 35.001c38.667 8 73.667 12 105 12h13c26 -2 39 -7 39 -15c0 -5.33301 -1.33301 -11.666 -4 -18.999
c-2 -4.66699 -3.66699 -9.66699 -5 -15c-30.667 -96 -77.334 -222.333 -140.001 -379c-56 -140 -112.167 -288.333 -168.5 -445s-100.833 -307 -133.5 -451c-23.333 -100.667 -35 -191 -35 -271c0 -35.333 2.33301 -68.666 7 -99.999c10.667 -72.667 39 -128 85 -166
c2.66699 -2.66699 4 -5.66699 4 -9c0 -8.66699 -8.83301 -18.5 -26.5 -29.5s-34.834 -16.5 -51.501 -16.5z" />
    <glyph glyph-name="Z" unicode="Z" horiz-adv-x="1252" 
d="M112 -217l-6.99902 -0.00195312c-33.333 0 -57 13.667 -71 41c-22.667 46.667 -34 97 -34 151c0 38.667 5.66699 79 17 121c45.333 169.333 163.333 370 354 602c-26.667 -2.66699 -51.334 -4 -74.001 -4c-43.333 0 -78.666 6 -105.999 18c-13.333 6 -20 16.333 -20 31
c0 4.66699 1 9.33398 3 14.001c7.33301 13.333 17.333 20 30 20c5.33301 0 10.666 -1.33301 15.999 -4c16.667 -7.33301 40.334 -11 71.001 -11c36.667 0 84.334 4 143.001 12c131.333 154 316 350 554 588c113.333 112 197 199 251 261c-18.667 2 -41.334 3 -68.001 3
c-80.667 0 -208.334 -11 -383.001 -33c-195.333 -24 -338.333 -36 -429 -36h-20c-46.667 0 -95.334 5.5 -146.001 16.5s-87.334 37.167 -110.001 78.5c-2 4.66699 -3 9.33398 -3 14.001c0 14.667 6.66699 25 20 31c4.66699 2 9.33398 3 14.001 3
c14 0 24.333 -6.33301 31 -19c4 -13.333 21.833 -26 53.5 -38s85.167 -18 160.5 -18c94 0 234.333 11.667 421 35c182.667 22.667 313.667 34 393 34c42 0 78.667 -2.66699 110 -8l14 1c20.667 0 49.5 -8 86.5 -24s69.5 -36 97.5 -60c17.333 -14.667 26 -25.667 26 -33
c0 -0.666992 -0.166992 -2.66699 -0.5 -6s-9.5 -14 -27.5 -32c-79.333 -84.667 -189 -192 -329 -322l-401 -389c48 6.66699 92.333 10 133 10c18 0 44.5 -1.16699 79.5 -3.5s67.833 -15.833 98.5 -40.5c8 -7.33301 12 -16 12 -26c0 -8 -3.16699 -15.667 -9.5 -23
s-14.833 -11 -25.5 -11c-7.33301 0 -14.333 2.66699 -21 8c-25.333 18.667 -65.666 28 -120.999 28c-61.333 0 -135.666 -7 -222.999 -21c-267.333 -276 -435 -508.333 -503 -697c-20 -56.667 -30 -110 -30 -160v-18c153.333 66 380 99 680 99
c104 0 207.833 -6.83301 311.5 -20.5s176.167 -38.834 217.5 -75.501c6 -6.66699 9 -14 9 -22c0 -10.667 -3.5 -19.334 -10.5 -26.001s-14.833 -10 -23.5 -10c-9.33301 0 -17.333 3.66699 -24 11c-20.667 20.667 -76 38.334 -166 53.001
c-86.667 14.667 -199.334 22 -338.001 22h-18c-295.333 -5.33301 -507 -40.666 -635 -105.999c-8 -5.33301 -18 -8.33301 -30 -9z" />
    <glyph glyph-name="bracketleft" unicode="[" horiz-adv-x="642" 
d="M435 1621c-36.667 6 -72.001 8.99609 -106.001 8.99609c-8 0 -24.167 -0.5 -48.5 -1.5s-46.833 -15.833 -67.5 -44.5c-16 -31.333 -28.333 -129 -37 -293c-8 -152.667 -12 -324 -12 -514v-189.5c0 -111.667 5.83301 -249 17.5 -412s29.834 -259.5 54.501 -289.5
c22.667 -18.667 50.334 -28 83.001 -28c2.66699 0 13.667 0.166992 33 0.5s48.333 4.83301 87 13.5c40.667 9.33301 79 14 115 14c8 0 15 -3.5 21 -10.5s9 -15.167 9 -24.5c0 -10.667 -3 -19.334 -9 -26.001s-13 -10 -21 -10c-32.667 0 -68 -4.33301 -106 -13
c-44.667 -10 -88.667 -15 -132 -15c-42.667 0 -81.334 14.667 -116.001 44c-64 62.667 -110.333 175.334 -139 338.001c-27.333 155.333 -41 327.333 -41 516c0 8.66699 0.166992 64.834 0.5 168.501s13.333 239.834 39 408.501s60.834 290.334 105.501 365.001
c30.667 44 71.334 68 122.001 72c14.667 0.666992 29.667 1 45 1c36 0 72.667 -3.33301 110 -10h1c32 -4.66699 60.333 -7 85 -7c10.667 0 20.667 0.666992 30 2h3c6.66699 0 13.167 -2.66699 19.5 -8s10.166 -12.666 11.499 -21.999v-6c0 -8 -2.16699 -15.333 -6.5 -22
s-10.5 -11 -18.5 -13c-12 -1.33301 -24.333 -2 -37 -2c-28.667 0 -60.334 3 -95.001 9z" />
    <glyph glyph-name="backslash" unicode="\" horiz-adv-x="691" 
d="M84 1723l5.00098 0.000976562c21.333 0 41 -9.5 59 -28.5s30 -44.5 36 -76.5c20 -97.333 68.667 -252 146 -464l141.5 -412.5c47.667 -145.667 87.667 -287.334 120 -425.001s48.666 -259.667 48.999 -366s-23.167 -185.833 -70.5 -238.5
c-4.66699 -4.66699 -10 -7 -16 -7c-2 0 -5.66699 0.833008 -11 2.5s-11 7.16699 -17 16.5c-5.33301 10 -8 19.667 -8 29v11.5c0 6.33301 3.33301 12.833 10 19.5c30.667 34 46 85 46 153c0 11.333 -1.66699 41.666 -5 90.999s-22.5 131.833 -57.5 247.5
s-77.333 237.334 -127 365.001l-150.5 375.5l-137.5 341.5c-39 101.667 -63.833 182.167 -74.5 241.5c-1.33301 9.33301 -2 18.333 -2 27c0 21.333 5 41.833 15 61.5s26.333 31.5 49 35.5z" />
    <glyph glyph-name="bracketright" unicode="]" horiz-adv-x="642" 
d="M177 1621c-34 -6 -65.334 -8.99609 -94.001 -8.99609c-13.333 0 -26 0.666992 -38 2c-8 2 -14.167 6.33301 -18.5 13s-6.5 14 -6.5 22v6c1.33301 9.33301 5.16602 16.666 11.499 21.999s12.833 8 19.5 8h3c9.33301 -1.33301 19.666 -2 30.999 -2
c24.667 0 52.667 2.33301 84 7h1c37.333 6.66699 74 10 110 10c15.333 0 30.333 -0.333008 45 -1c50.667 -4 91.334 -28 122.001 -72c44.667 -74.667 79.834 -196.334 105.501 -365.001s38.667 -304.834 39 -408.501s0.5 -159.834 0.5 -168.501
c0 -188.667 -13.667 -360.667 -41 -516c-28.667 -162.667 -75 -275.334 -139 -338.001c-34.667 -29.333 -73.334 -44 -116.001 -44c-43.333 0 -87.333 5 -132 15c-38 8.66699 -73.333 13 -106 13c-8 0 -15 3.33301 -21 10s-9 15.334 -9 26.001c0 9.33301 3 17.5 9 24.5
s13 10.5 21 10.5c36 0 74.333 -4.66699 115 -14c38.667 -8.66699 67.667 -13.167 87 -13.5s30.333 -0.5 33 -0.5c32.667 0 60.334 9.33301 83.001 28c24.667 30 42.834 126.5 54.501 289.5s17.5 300.333 17.5 412v189.5c0 190 -4 361.333 -12 514
c-8.66699 164 -21 261.667 -37 293c-20.667 28.667 -43.167 43.5 -67.5 44.5s-40.166 1.5 -47.499 1.5c-34.667 0 -70.334 -3 -107.001 -9z" />
    <glyph glyph-name="asciicircum" unicode="^" horiz-adv-x="442" 
d="M209 1698c36.667 -17.333 66.0029 -51.501 88.0029 -102.501s40 -102.167 54 -153.5c13.333 -47.333 25.666 -80.333 36.999 -99c2.66699 -3.33301 4 -7 4 -11c0 -2.66699 -1.16699 -6.5 -3.5 -11.5s-7.5 -9.83301 -15.5 -14.5c-7.33301 -4 -14.666 -6 -21.999 -6
c-0.666992 0 -3.5 0.166992 -8.5 0.5s-9.83301 3.5 -14.5 9.5c-14 24.667 -26 68.334 -36 131.001c-8.66699 46.667 -19.334 92.167 -32.001 136.5s-30.667 76.166 -54 95.499c-23.333 -19.333 -41.333 -51.166 -54 -95.499s-23.334 -89.833 -32.001 -136.5
c-10 -62.667 -22 -106.334 -36 -131.001c-4.66699 -6 -11.334 -9.33301 -20.001 -10h-3c-7.33301 0 -14.666 2 -21.999 6c-8 4.66699 -13.667 10.667 -17 18c-1.33301 2.66699 -2 5.33398 -2 8.00098c0 4 1.33301 7.66699 4 11c11.333 18.667 23.666 52 36.999 100
c14 50.667 32 101.5 54 152.5s51.333 85.167 88 102.5c1.33301 0.666992 2.33301 1 3 1c1.33301 0 2.33301 -0.333008 3 -1z" />
    <glyph glyph-name="underscore" unicode="_" horiz-adv-x="1004" 
d="M942 196c5.33301 -2.66699 9 -7.33203 11 -13.999c1.33301 -2.66699 2 -5.66699 2 -9s-0.666992 -7 -2 -11c-22.667 -68 -70.334 -112.667 -143.001 -134c-56 -16 -118 -24 -186 -24c-20 0 -58.5 1.83301 -115.5 5.5s-127.5 12.167 -211.5 25.5c-76 12 -136 18 -180 18
c-14.667 0 -27.667 -0.666992 -39 -2h-7c-12 0 -23 5 -33 15s-16 25 -18 45v8c0 16 3.83301 31 11.5 45s18.834 22.667 33.501 26c9.33301 1.33301 19.666 2 30.999 2c23.333 0 55.5 -3.83301 96.5 -11.5s91.833 -18.834 152.5 -33.501c80.667 -20.667 161.667 -38 243 -52
c47.333 -8 91 -12 131 -12c29.333 0 65.333 3.33301 108 10s72.667 35.667 90 87c2 7.33301 5.33301 12.333 10 15c2.66699 2 5.33398 3 8.00098 3c2 0 4.33301 -0.666992 7 -2z" />
    <glyph glyph-name="grave" unicode="`" horiz-adv-x="229" 
d="M174 1560c3.33301 -4.66699 5.00098 -9.66699 5.00098 -15c0 -2 -0.5 -5.66699 -1.5 -11s-5.16699 -10.333 -12.5 -15c-4.66699 -2.66699 -9.66699 -4 -15 -4c-2.66699 0 -6.66699 0.5 -12 1.5s-10.333 5.16699 -15 12.5c-21.333 30.667 -43 55 -65 73
c-15.333 14 -27.666 27.333 -36.999 40c-0.666992 1.33301 -1 3 -1 5c0 4 2.66699 9.33301 8 16s13.5 13.667 24.5 21s21.5 12.333 31.5 15c3.33301 0.666992 6.66602 1 9.99902 1c5.33301 0 9.66602 -1.66699 12.999 -5c8 -14 16.667 -31.667 26 -53
c11.333 -26.667 25 -54 41 -82z" />
    <glyph glyph-name="a" unicode="a" horiz-adv-x="730" 
d="M453 -3c-33.333 3.33301 -60.6631 19.334 -81.9961 48.001c-26 34.667 -39 73 -39 115v14l-20 -24c-38.667 -45.333 -74.334 -80 -107.001 -104c-42.667 -32.667 -81 -49 -115 -49c-34 3.33301 -61.5 19.166 -82.5 47.499s-33.5 58.166 -37.5 89.499
c-1.33301 14 -2 28 -2 42c0 84.667 22.333 172 67 262c52 106 124.667 184.667 218 236c40.667 21.333 84.667 32 132 32l27 -1c45.333 -5.33301 77.666 -29 96.999 -71c12 14.667 24.333 27.334 37 38.001c8 6 18.333 9 31 9c6 0 16 -1.16699 30 -3.5
s29.333 -10.166 46 -23.499s25 -30.333 25 -51c0 -10.667 -16.667 -50.667 -50 -120c-78.667 -170 -128.334 -291.667 -149.001 -365c-2.66699 -10.667 -4 -20 -4 -28s2.66699 -12 8 -12c6.66699 0 15 3 25 9c35.333 22.667 73.666 58.334 114.999 107.001
c48.667 57.333 88.334 119.666 119.001 186.999c7.33301 13.333 17.666 20 30.999 20c4.66699 0 9.33398 -1 14.001 -3c13.333 -6 20 -16.333 20 -31c0 -4.66699 -1 -9.33398 -3 -14.001c-32.667 -72.667 -75 -139.667 -127 -201l-2 -2
c-38.667 -45.333 -74.334 -80 -107.001 -104c-42.667 -32.667 -81 -49 -115 -49zM135.003 88.001c22 0 63.667 35.334 125 106.001c40.667 47.333 75 98.666 103 153.999c20 66 46.333 128.667 79 188c5.33301 18 8 33.333 8 46c0 16 -3.33301 28 -10 36
c-13.333 17.333 -28 26 -44 26c-32 0 -68 -29 -108 -87c-66.667 -95.333 -117.667 -205.333 -153 -330c-12.667 -44 -19 -78.667 -19 -104c0 -23.333 6.33301 -35 19 -35z" />
    <glyph glyph-name="b" unicode="b" horiz-adv-x="867" 
d="M263 -290c-37.333 0 -68.667 12.001 -94 36.001c-22.667 23.333 -34 57 -34 101c0 20.667 3 43 9 67c-74 40 -119.333 110.333 -136 211c-7.33301 44.667 -11 93 -11 145c0 63.333 8 146.666 24 249.999c27.333 174.667 92 421 194 739c57.333 178 86 284.333 86 319
c0 5.33301 -0.666992 10 -2 14c14.667 14 43.667 26.5 87 37.5s82.333 16.833 117 17.5c15.333 0 25.833 -0.833008 31.5 -2.5s8.5 -5.83398 8.5 -12.501c0 -3.33301 -0.833008 -7.33301 -2.5 -12s-3.16699 -9.33398 -4.5 -14.001c-24 -88.667 -62 -205.667 -114 -351
c-45.333 -126.667 -90.5 -261.334 -135.5 -404.001s-79.5 -279.334 -103.5 -410.001c22 42 48.333 80.333 79 115v1c27.333 32 56.333 58 87 78c57.333 39.333 114.333 59 171 59c26.667 0 51 -5.33301 73 -16c39.333 -19.333 71 -49.666 95 -90.999
c29.333 -53.333 47.333 -116.666 54 -189.999c28 3.33301 56.333 5 85 5c83.333 0 130.333 -7.33301 141 -22c4.66699 -6 7 -12.667 7 -20c0 -11.333 -4.33301 -20.666 -13 -27.999c-6 -4 -12.667 -6 -20 -6h-5c-39.333 5.33301 -76.666 8 -111.999 8
c-28 0 -55 -1.66699 -81 -5c-2.66699 -91.333 -21.334 -181.666 -56.001 -270.999c-54 -140 -140.333 -240.333 -259 -301c-60.667 -31.333 -116 -47 -166 -47zM197.999 46.001c56 95.333 132.999 175.335 230.999 240.002c48.667 31.333 100.334 56.333 155.001 75
c5.33301 28 8 51.333 8 70c0 81.333 -15 137.666 -45 168.999c-13.333 14 -30.333 21 -51 21c-33.333 0 -69.333 -13.667 -108 -41c-24 -16.667 -49 -39.334 -75 -68.001c0 -0.666992 -0.333008 -1 -1 -1c-46 -51.333 -82 -118 -108 -200c-14 -44 -21 -90 -21 -138
c0 -40.667 5 -83 15 -127zM250.998 -220.997c27.333 0 60.6689 22.332 100.002 66.999c21.333 24 36.333 42.667 45 56c67.333 102.667 123.333 229 168 379c-84.667 -38 -153.834 -85.167 -207.501 -141.5s-92.5 -110.166 -116.5 -161.499c10 -10 21.333 -19 34 -27
c3.33301 -2.66699 5 -5.66699 5 -9c0 -7.33301 -7.83301 -16.333 -23.5 -27s-30.834 -16.667 -45.501 -18c-4.66699 -20 -7 -38 -7 -54c0 -42.667 16 -64 48 -64z" />
    <glyph glyph-name="c" unicode="c" horiz-adv-x="596" 
d="M150 -11c-68 0 -116.337 21.3311 -145.004 63.998c-18.667 26.667 -29.667 54.334 -33 83.001c-1.33301 14.667 -2 29.667 -2 45c0 83.333 22 169.666 66 258.999c52.667 106 125.667 184.667 219 236c40.667 21.333 84.667 32 132 32s84 -16 110 -48
c16 -20.667 24 -45.667 24 -75c0 -28.667 -8.33301 -63 -25 -103c-6 -14 -16.333 -21 -31 -21c-4 0 -8.33301 0.666992 -13 2c-14 6 -21 16.333 -21 31c0 4.66699 0.666992 9 2 13c12 30.667 18 56.334 18 77.001c0 16 -3 28 -9 36c-13.333 17.333 -28 26 -44 26
c-32 0 -68.333 -29 -109 -87c-33.333 -47.333 -63.666 -102 -90.999 -164c-52.667 -119.333 -79 -206.666 -79 -261.999c0 -30.667 7.33301 -50.667 22 -60c10.667 -6 23 -9 37 -9c32.667 0 76.334 15 131.001 45c76.667 42 148.334 98 215.001 168
c38.667 40.667 64.667 74 78 100c1.33301 1.33301 2 3 2 5c7.33301 13.333 17.666 20 30.999 20c4.66699 0 9.33398 -1 14.001 -3c14 -6 21 -16 21 -30c0 -4.66699 -0.833008 -9 -2.5 -13s-3.16699 -7.33301 -4.5 -10c-15.333 -29.333 -44.333 -66.833 -87 -112.5
s-92.667 -89.5 -150 -131.5s-116.666 -73.667 -177.999 -95c-34 -12 -66.667 -18 -98 -18z" />
    <glyph glyph-name="d" unicode="d" horiz-adv-x="981" 
d="M717 -99c-12.667 0 -26.335 1.66406 -41.002 4.99707c-65.333 20.667 -113.666 60.667 -144.999 120c-28 50.667 -45 103.667 -51 159c-4 34 -6 69.333 -6 106c0 53.333 4 109.666 12 168.999c-34 -53.333 -66 -112.666 -96 -177.999l-22 -46
c-30.667 -65.333 -62.667 -120.666 -96 -165.999c-39.333 -51.333 -87 -80 -143 -86c-42 0.666992 -77.333 15.834 -106 45.501s-45.667 64.5 -51 104.5c-1.33301 14.667 -2 29.667 -2 45c0 83.333 22 169.666 66 258.999c52.667 106 125.667 184.667 219 236
c40.667 21.333 84.667 32 132 32s84 -16 110 -48c6.66699 -8.66699 12 -19 16 -31c33.333 164.667 93 383.667 179 657c57.333 178 86 284.333 86 319c0 5.33301 -0.666992 10 -2 14c15.333 14 44.5 26.5 87.5 37.5s82.167 16.833 117.5 17.5c26.667 0 40 -4 40 -12
c0 -4 -1.33301 -9.33301 -4 -16l-4 -14c-24 -88 -62 -204.333 -114 -349c-41.333 -116 -82.666 -239 -123.999 -369c-89.333 -278.667 -134 -497.667 -134 -657c0 -52.667 7.66699 -106.667 23 -162c12 -40 27.667 -71.333 47 -94c6.66699 -6.66699 13 -10 19 -10
c16.667 0 36.667 34.333 60 103c16.667 46.667 27 74.334 31 83.001c44 115.333 105.333 190.333 184 225c4.66699 2 9 3 13 3c14.667 0 25 -7.33301 31 -22c2 -4 3 -8.33301 3 -13c0 -14.667 -7.33301 -25 -22 -31c-58.667 -25.333 -107.334 -87.666 -146.001 -186.999
l-1 -4c-16.667 -41.333 -28.667 -73.5 -36 -96.5s-15.666 -45.167 -24.999 -66.5c-23.333 -54.667 -58.333 -82 -105 -82zM151.999 65.9971c40.667 0 91.999 66.333 153.999 199l23 47c32.667 71.333 67 134.666 103 189.999c0 1.33301 0.333008 2.33301 1 3
c12 30.667 18 56.334 18 77.001c0 16 -3 28 -9 36c-13.333 17.333 -28 26 -44 26c-32 0 -68.333 -29 -109 -87c-33.333 -47.333 -63.666 -102 -90.999 -164c-53.333 -118 -80 -206 -80 -264l1 -15c4.66699 -32 15.667 -48 33 -48z" />
    <glyph glyph-name="e" unicode="e" horiz-adv-x="437" 
d="M102 16h-7.99805c-35.333 4.66699 -63 20 -83 46c-26 32 -39 73.667 -39 125c0 35.333 5.33301 74.333 16 117c29.333 124 76 230.333 140 319c32.667 39.333 70.667 59 114 59c37.333 0 66.666 -6 87.999 -18c26.667 -16.667 47 -39.334 61 -68.001
c6.66699 -14 10 -29.667 10 -47c0 -52.667 -30.667 -109.334 -92 -170.001h-1c-34 -32.667 -77.667 -66.667 -131 -102c-3.33301 -2 -6.33301 -3.33301 -9 -4c-35.333 -93.333 -53 -149.666 -53 -168.999c0 -12 5 -18 15 -18c11.333 0 29.333 6 54 18
c43.333 19.333 88 51.333 134 96c54 53.333 99.333 114 136 182c6.66699 12.667 16.667 19 30 19c5.33301 0 10.666 -1.33301 15.999 -4c12 -6.66699 18 -16.667 18 -30c0 -5.33301 -1.33301 -10.666 -4 -15.999c-39.333 -74.667 -88.333 -141 -147 -199h-1v-1
c-52 -50.667 -103.667 -87 -155 -109c-36 -17.333 -72.333 -26 -109 -26zM211.002 385c18.667 14.667 35.001 28.667 49.001 42l1 1c48 46 72 85.667 72 119c0 20 -5 30 -15 30c-20.667 0 -56.334 -64 -107.001 -192z" />
    <glyph glyph-name="f" unicode="f" horiz-adv-x="509" 
d="M131 -573c-5.33301 0 -10.3301 0.331055 -14.9971 0.998047c-44.667 8.66699 -80.334 30 -107.001 64c-51.333 62.667 -77 169.667 -77 321c0 46 4.33301 114.333 13 205c14 148.667 60.667 387.334 140 716.001c41.333 166.667 62 267.334 62 302.001
c0 9.33301 -1 16 -3 20c12.667 12.667 38.667 25.334 78 38.001c54 16.667 96.667 25 128 25c10 0 15.333 -2.33301 16 -7c0 -3.33301 -0.666992 -7.16602 -2 -11.499s-2.33301 -8.5 -3 -12.5c-14 -67.333 -39 -165 -75 -293c-73.333 -262 -126 -476.667 -158 -644h6
c28.667 0 80.667 35 156 105c37.333 35.333 75.666 67.333 114.999 96s79.666 45.667 120.999 51c9.33301 0 17.833 -3.16699 25.5 -9.5s11.5 -14.5 11.5 -24.5c0 -8.66699 -2.83301 -16.334 -8.5 -23.001s-13.167 -10.334 -22.5 -11.001c-30.667 -4 -63 -19 -97 -45
s-67.333 -54.333 -100 -85c-50 -49.333 -98.667 -86.333 -146 -111c29.333 -32 57.333 -71.333 84 -118c42 -75.333 63 -152.333 63 -231c0 -110 -45.667 -207 -137 -291h-1c-20.667 -18 -43 -27 -67 -27zM157.003 -492.002c74 69.333 111.002 148.334 111.002 237.001
c0 20.667 -2 42 -6 64c-12.667 60 -33.834 113 -63.501 159s-57.834 81 -84.501 105c-18.667 -106.667 -28 -202.334 -28 -287.001c0 -46 2.66699 -88.667 8 -128c9.33301 -65.333 30.333 -115.333 63 -150z" />
    <glyph glyph-name="g" unicode="g" horiz-adv-x="549" 
d="M-161 -639c-40 0 -77.999 10.335 -113.999 31.002c-31.333 19.333 -52.666 48 -63.999 86c-4 14 -6 28 -6 42c0 57.333 26.333 112.333 79 165v1h1c53.333 51.333 119.666 95.666 198.999 132.999c57.333 27.333 154 67.666 290 120.999c28 79.333 51 156.666 69 231.999
c-33.333 -48 -67.333 -91.333 -102 -130c-57.333 -62.667 -107.333 -94 -150 -94c-11.333 0 -22 2.33301 -32 7c-46 21.333 -70.333 69.666 -73 144.999c1.33301 62 15.666 129 42.999 201s58.833 138.333 94.5 199s66.5 105.334 92.5 134.001c48 52.667 97 79 147 79
c26.667 0 53.667 -7 81 -21c50 -28 75 -67.667 75 -119c0 -43.333 -17 -90 -51 -140c22 -2 41 -7.5 57 -16.5s24 -19.833 24 -32.5v-3c-10.667 -73.333 -26.667 -154.666 -48 -243.999c-45.333 -192 -110 -355.333 -194 -490c-96.667 -154.667 -218 -248 -364 -280
c-18 -4 -36 -6 -54 -6zM76.001 36.002c4.66699 0 10.832 2.66895 18.499 8.00195s22.5 19 44.5 41l2 3c33.333 36.667 66.333 79 99 127l2 2c18 27.333 41.333 60.333 70 99c-44 -28 -73.667 -42 -89 -42c-6.66699 0 -13 3.16699 -19 9.5s-9 16.5 -9 30.5c0 10 3 17 9 21
c35.333 21.333 68 53.5 98 96.5s50.333 82.833 61 119.5c2.66699 9.33301 4 16.666 4 21.999c0 3.33301 -0.666992 5.16602 -2 5.49902s-2.33301 0.5 -3 0.5c-29.333 0 -82.666 -70.333 -159.999 -211c-34 -61.333 -63.667 -120.333 -89 -177
c-31.333 -70 -47 -116.333 -47 -139c0 -10.667 3.33301 -16 10 -16zM-184.001 -572.996c56.667 0 117.666 40.001 182.999 120.001c74.667 90.667 139 196 193 316l-6 -3c-72.667 -26.667 -146.667 -57.667 -222 -93s-137.666 -76.333 -186.999 -123v-1
c-40.667 -40.667 -61 -82.334 -61 -125.001c0 -8.66699 1 -16.667 3 -24c14 -44.667 46.333 -67 97 -67z" />
    <glyph glyph-name="h" unicode="h" horiz-adv-x="806" 
d="M485 -105l-4.00195 0.00683594c-36 4 -65.167 22.167 -87.5 54.5s-35.5 66.833 -39.5 103.5c-1.33301 14.667 -2 29.334 -2 44.001c0 40 5.33301 85 16 135c31.333 145.333 82 268.666 152 369.999c-35.333 -13.333 -71 -34.333 -107 -63
c-66.667 -54.667 -117.667 -120.667 -153 -198c0 -0.666992 -0.333008 -1 -1 -1c-24.667 -55.333 -37 -112 -37 -170c0 -60.667 18.333 -118.334 55 -173.001c4 -6.66699 6 -13.334 6 -20.001c0 -10 -5 -19 -15 -27l-6 -3c-20 -14.667 -40.333 -22 -61 -22
c-8.66699 0 -17 1.33301 -25 4c-119.333 42.667 -179 164 -179 364c0 32 4.5 93.167 13.5 183.5s35 215.166 78 374.499s85.833 304.666 128.5 435.999c27.333 87.333 49.333 160.333 66 219c12.667 46.667 19 80.334 19 101.001c0 5.33301 -0.333008 9.66602 -1 12.999
c14.667 14 43.5 26.5 86.5 37.5s82.167 16.833 117.5 17.5c26.667 0 40 -4 40 -12c0 -4 -1.33301 -9.33301 -4 -16l-4 -14c-24 -88 -62 -204.667 -114 -350c-59.333 -163.333 -116 -336.333 -170 -519s-83.333 -347 -88 -493c7.33301 33.333 18 65.333 32 96v1
c43.333 92 102.166 167.5 176.499 226.5s148.5 89.167 222.5 90.5l8 -2l11 1c22 0 45.167 -7.83301 69.5 -23.5s36.5 -39.834 36.5 -72.501c-3.33301 -14.667 -21 -58.334 -53 -131.001c-83.333 -192.667 -136.333 -333.667 -159 -423c-3.33301 -14 -5 -24.333 -5 -31
c0 -10 3 -15 9 -15c8 0 23.667 8.66699 47 26c106.667 94 192.334 216 257.001 366c6 14.667 16.333 22 31 22c4.66699 0 9.33398 -1 14.001 -3c14 -6 21 -16.333 21 -31c0 -4 -1 -8.33301 -3 -13c-19.333 -45.333 -43.666 -93 -72.999 -143
c-66.667 -116.667 -134.667 -203.334 -204 -260.001c-44.667 -38 -84 -57 -118 -57z" />
    <glyph glyph-name="i" unicode="i" horiz-adv-x="366" 
d="M97 -2c-36.667 0 -66.333 14.333 -89 43s-36 59.667 -40 93c-1.33301 12 -2 24.333 -2 37c0 68.667 17.333 147.334 52 236.001c44 118 98.333 206.333 163 265c8 6 18 9 30 9c6 0 16 -1.16699 30 -3.5s29.5 -10.333 46.5 -24s25.5 -31.167 25.5 -52.5
c0 -8 -16.667 -47.333 -50 -118c-76 -160 -125.667 -281.667 -149 -365c-3.33301 -11.333 -5 -20 -5 -26c0 -10 3 -15 9 -15c5.33301 0 11.333 2 18 6c36 22 75.333 57.667 118 107l1 1c50 58 90.667 121.333 122 190c6 13.333 16 20 30 20c4.66699 0 9.66699 -1 15 -3
c13.333 -6 20 -16.333 20 -31c0 -4.66699 -1 -9.33398 -3 -14.001c-34 -74.667 -78 -143.667 -132 -207h-1c-38 -44 -73.667 -78 -107 -102c-31.333 -26 -65.333 -41.333 -102 -46zM323.001 669c-13.333 0 -25.168 6.83301 -35.501 20.5s-17.666 28.5 -21.999 44.5
s-6.5 32 -6.5 48c0 28 6 58 18 90c8 18.667 33.667 28 77 28c38.667 0 68 -7.33301 88 -22c7.33301 -5.33301 11 -11.333 11 -18c0 -6 -3 -12.667 -9 -20c-62.667 -72 -99 -128.333 -109 -169c-4.66699 -1.33301 -8.66699 -2 -12 -2z" />
    <glyph glyph-name="j" unicode="j" horiz-adv-x="294" 
d="M-519 -639c-39.333 0 -75.8311 9.66992 -109.498 29.0029s-56.834 48.666 -69.501 87.999c-3.33301 14 -5 28.333 -5 43c0 57.333 26 112 78 164v1h1c53.333 51.333 119.5 95.666 198.5 132.999s156.167 69.666 231.5 96.999l48 19
c47.333 114.667 87.666 226.667 120.999 336c54.667 178.667 82 299 82 361c0 15.333 -2.33301 24 -7 26c2.66699 13.333 15 24 37 32c24 8 53 12 87 12c20.667 0 39 -2.33301 55 -7c18.667 -5.33301 28 -14 28 -26v-2c-14 -96 -40 -211.833 -78 -347.5
s-87.5 -272 -148.5 -409s-133 -255.667 -216 -356s-176.167 -162.833 -279.5 -187.5c-18.667 -4 -36.667 -6 -54 -6zM-542.998 -572.997c20 0 40.6689 5.00195 62.002 15.002c99.333 52.667 199.666 191 300.999 415c-72 -26.667 -144.833 -57.334 -218.5 -92.001
s-134.834 -75 -183.501 -121v-1c-40.667 -40.667 -61 -82.334 -61 -125.001c0 -8.66699 1 -16.667 3 -24c14 -44.667 46.333 -67 97 -67z" />
    <glyph glyph-name="k" unicode="k" horiz-adv-x="727" 
d="M216 -78c-9.33301 0 -18.335 1.33105 -27.002 3.99805c-91.333 31.333 -148.666 96.666 -171.999 195.999c-12.667 52.667 -19 110.667 -19 174c0 56 7.83301 134 23.5 234s44.667 221.167 87 363.5s83.833 272.5 124.5 390.5c29.333 87.333 53 160.333 71 219
c13.333 46 20 79.333 20 100c0 5.33301 -0.333008 10 -1 14c16 14 47.167 26.5 93.5 37.5s88.166 16.833 125.499 17.5c28.667 0 43 -4 43 -12c0 -4 -1.33301 -9.33301 -4 -16l-4 -14c-26 -88 -67 -204.667 -123 -350c-112 -292.667 -190 -530 -234 -712
c88.667 129.333 171.334 194 248.001 194c39.333 -1.33301 70.833 -17.166 94.5 -47.499s35.834 -64.166 36.501 -101.499c-0.666992 -43.333 -14 -84.666 -40 -123.999c-57.333 -86.667 -150.333 -152.334 -279 -197.001c58.667 -15.333 97.834 -39.166 117.501 -71.499
s31.834 -63.833 36.501 -94.5c4 -19.333 9.16699 -35.666 15.5 -48.999s18.166 -20 35.499 -20c37.333 0 79.666 29 126.999 87c48.667 60.667 91 139.667 127 237c6 14.667 16.333 22 31 22c4 0 8 -0.666992 12 -2c14.667 -5.33301 22 -16 22 -32c0 -4 -0.666992 -8 -2 -12
c-38 -103.333 -83.333 -188 -136 -254v-1h-1c-61.333 -76 -121 -114 -179 -114l-16 1c-40.667 6 -72.5 22.167 -95.5 48.5s-42.667 54.666 -59 84.999s-34 56.333 -53 78s-44.5 33.167 -76.5 34.5c-4 0 -7 0.333008 -9 1c4 -128 43.667 -214.667 119 -260
c4 -2.66699 6 -5.66699 6 -9c0 -7.33301 -8.33301 -16 -25 -26c-20 -12.667 -40.333 -19 -61 -19zM197.998 392.998c65.333 19.333 126.5 52.833 183.5 100.5s96.167 92.5 117.5 134.5c7.33301 14 11 26 11 36c0 20 -14.667 30 -44 30c-15.333 0 -34 -7 -56 -21
c-68 -40.667 -138.667 -134 -212 -280z" />
    <glyph glyph-name="l" unicode="l" horiz-adv-x="295" 
d="M213 -78c-9.33301 0 -18.3311 1.33105 -26.998 3.99805c-90.667 31.333 -148 96.333 -172 195c-12.667 52.667 -19 110.334 -19 173.001c0 56 7.66699 134.333 23 235c27.333 177.333 98 429 212 755c60.667 180.667 91 287.667 91 321
c0 4.66699 -0.333008 8.66699 -1 12c15.333 14 46.166 26.5 92.499 37.5s88.166 16.833 125.499 17.5c28.667 0 43 -4 43 -12c0 -4 -1.33301 -9.66699 -4 -17l-4 -13c-25.333 -88 -66 -204.333 -122 -349c-46.667 -122.667 -93.5 -252.5 -140.5 -389.5
s-83.5 -269.167 -109.5 -396.5c-18 -85.333 -27 -163 -27 -233c0 -35.333 2.33301 -68.666 7 -99.999c12.667 -85.333 50 -147.333 112 -186c3.33301 -2.66699 5 -5.66699 5 -9c0 -7.33301 -8.33301 -16 -25 -26c-20 -12.667 -40 -19 -60 -19z" />
    <glyph glyph-name="m" unicode="m" horiz-adv-x="1067" 
d="M68 -17c-12 0 -24.998 7.00391 -38.998 21.0039c-30.667 31.333 -49.667 69 -57 113c-3.33301 20.667 -5 42 -5 64c0 23.333 3 52.666 9 87.999c7.33301 42 29 109.333 65 202c44.667 105.333 67 181.333 67 228l-1 18c8 5.33301 16 8 24 8
c8.66699 0 19 -3.83301 31 -11.5s23 -18.834 33 -33.501c23.333 -34 35 -81.667 35 -143c0 -58 -12.333 -119.333 -37 -184c53.333 76.667 108.333 144.667 165 204s100.334 96 131.001 110c23.333 10.667 41.666 16 54.999 16l13 -2c23.333 -1.33301 45.166 -9 65.499 -23
s30.5 -33.333 30.5 -58c0 -9.33301 -16.667 -48.666 -50 -117.999c-26 -54.667 -53.333 -115.334 -82 -182.001c62.667 98 129.334 184.667 200.001 260c76.667 81.333 137.334 122 182.001 122c27.333 0 52.333 -7.16699 75 -21.5s34 -34.5 34 -60.5
c0 -8.66699 -16.333 -47.667 -49 -117c-78.667 -164.667 -128.334 -286.334 -149.001 -365.001c-3.33301 -11.333 -5 -20 -5 -26c0 -10 3 -15 9 -15c4.66699 0 10.667 2 18 6c36 22 75.333 57.667 118 107l2 2c49.333 58 89.666 121 120.999 189c6 13.333 16 20 30 20
c4.66699 0 9.66699 -1 15 -3c12.667 -6 19 -16.333 19 -31c0 -4.66699 -1 -9.33398 -3 -14.001c-33.333 -74.667 -77.333 -143.667 -132 -207c-80 -91.333 -150 -140.666 -210 -147.999c-36 0 -65.333 14.333 -88 43s-36 59.667 -40 93c-1.33301 13.333 -2 26.666 -2 39.999
c0 34 5.33301 72.333 16 115c18 76 43 146 75 210c-70 -77.333 -135 -164.333 -195 -261c-56 -95.333 -84 -159 -84 -191c0 -3.33301 0.333008 -6 1 -8s1 -4.33301 1 -7c0 -6.66699 -2 -13.334 -6 -20.001c-5.33301 -9.33301 -13 -14 -23 -14l-12 -1
c-32.667 0 -61.334 13 -86.001 39c-30.667 32.667 -46 77 -46 133c0 36 5 75.667 15 119c16 70 41.667 141.667 77 215c-74 -81.333 -142.667 -172.666 -206 -273.999c-58.667 -95.333 -88 -160.333 -88 -195c0 -2 0.333008 -4 1 -6s1 -4.33301 1 -7
c0 -6 -1.5 -11.833 -4.5 -17.5s-8 -10.5 -15 -14.5s-13.5 -6 -19.5 -6z" />
    <glyph glyph-name="n" unicode="n" horiz-adv-x="704" 
d="M70 -17c-13.333 0 -26.333 7.00293 -39 21.0029c-30.667 31.333 -49.667 69 -57 113c-3.33301 20.667 -5 42 -5 64c0 23.333 3 52.666 9 87.999c7.33301 44.667 29 111.667 65 201c44.667 107.333 67 183.666 67 228.999l-1 18c8 5.33301 16 8 24 8
c8.66699 0 19 -3.83301 31 -11.5s23 -18.834 33 -33.501c23.333 -35.333 35 -83 35 -143c0 -58 -12.333 -119.333 -37 -184c53.333 76.667 108.333 144.667 165 204s100.334 96 131.001 110c23.333 10.667 41.666 16 54.999 16l13 -2c22.667 -1.33301 44.334 -9 65.001 -23
s31 -33.333 31 -58c0 -9.33301 -16.667 -48.666 -50 -117.999c-74.667 -154.667 -124.334 -276 -149.001 -364c-2.66699 -10.667 -4 -20 -4 -28s2.66699 -12 8 -12c6.66699 0 15 3 25 9c33.333 21.333 71.666 57 114.999 107c48.667 57.333 88.334 119.666 119.001 186.999
c6 13.333 16.333 20 31 20c4.66699 0 9.33398 -1 14.001 -3c13.333 -6 20 -16.333 20 -31c0 -4.66699 -1 -9.33398 -3 -14.001c-32.667 -72.667 -75 -139.667 -127 -201l-2 -2c-38.667 -45.333 -74.334 -80 -107.001 -104c-42.667 -32.667 -81 -49 -115 -49
c-34 3.33301 -61.333 19.333 -82 48c-26 34.667 -39 76 -39 124c0 36 5 75.667 15 119c16 70 41.667 141.667 77 215c-74 -81.333 -143 -172.666 -207 -273.999c-58 -96 -87 -161 -87 -195c0 -2 0.333008 -4 1 -6s1 -4.33301 1 -7c0 -6 -1.5 -11.833 -4.5 -17.5
s-8 -10.5 -15 -14.5s-13.5 -6 -19.5 -6z" />
    <glyph glyph-name="o" unicode="o" horiz-adv-x="491" 
d="M97 -3c-11.333 0 -21.998 1.66895 -31.998 5.00195c-26 9.33301 -47.333 26.333 -64 51c-22.667 31.333 -34 70.666 -34 117.999c0 68.667 17.333 147.334 52 236.001c44 118 98.333 206.333 163 265c8 6 18 9 30 9c38 0 68 -14 90 -42c28.667 32 59.667 48 93 48
c29.333 0 48.666 -18.333 57.999 -55l1 -4c1.33301 -6.66699 2 -14.334 2 -23.001c-0.666992 -38 -12 -90.333 -34 -157c54.667 4.66699 107.667 35 159 91c7.33301 7.33301 15.666 11 24.999 11c7.33301 0 14.333 -2.83301 21 -8.5s10 -13.834 10 -24.501
c0 -7.33301 -2.33301 -14 -7 -20c-68 -75.333 -142 -113 -222 -113h-10l-3 -7c-14 -36 -29.333 -70.667 -46 -104c-30 -62 -60 -113.667 -90 -155c-39.333 -56 -75.333 -92 -108 -108c-19.333 -8.66699 -37.333 -13 -54 -13zM355.002 456.002c24 59.333 36 108 36 146l-1 16
c0 2.66699 -0.333008 4.66699 -1 6c-8.66699 -2 -20.667 -10 -36 -24s-28.333 -32 -39 -54c-5.33301 -12.667 -8 -23.667 -8 -33c0 -7.33301 2.33301 -15.666 7 -24.999c7.33301 -14.667 21.333 -25.334 42 -32.001zM117.002 78.002c3.33301 0 8.5 3.00098 15.5 9.00098
s15.833 14.667 26.5 26c22 25.333 49 64.166 81 116.499s61.667 108.166 89 167.499c-34 12.667 -59 34.334 -75 65.001c-70.667 -148 -117 -262.667 -139 -344c-3.33301 -13.333 -5 -23.333 -5 -30s2.33301 -10 7 -10z" />
    <glyph glyph-name="p" unicode="p" horiz-adv-x="853" 
d="M22 -736l-13.999 1.00098c-118.667 24 -178 127.333 -178 310c0 44.667 5.33301 106.334 16 185.001c18 126.667 69 322.667 153 588c45.333 142 68 227.667 68 257c0 6 -0.666992 10.667 -2 14c13.333 12.667 39.666 25.334 78.999 38.001c52.667 16.667 96 25 130 25
c2.66699 0 5.83398 -0.333008 9.50098 -1s5.5 -3.66699 5.5 -9c0 -2.66699 -0.666992 -5.83398 -2 -9.50098l-4 -11.5c-6 -24.667 -14 -52.667 -24 -84c18.667 22.667 37.667 42.667 57 60c49.333 42.667 103.666 64 162.999 64c46 0 88.667 -14.5 128 -43.5
s66.333 -74.5 81 -136.5c4.66699 -22 7 -44.333 7 -67v-9h10c41.333 0 85.333 -2.66699 132 -8c24.667 -2.66699 49.667 -6 75 -10c9.33301 -1.33301 16.333 -5.33301 21 -12s7 -13.667 7 -21c0 -12 -4.33301 -21.333 -13 -28c-6 -4 -12.667 -6 -20 -6h-6
c-20.667 3.33301 -40.667 6 -60 8c-48.667 6 -93.667 9 -135 9h-18c-24.667 -131.333 -97.334 -235.333 -218.001 -312c-66.667 -42.667 -136 -67.334 -208 -74.001l-16 -1c-64 0 -102 29.667 -114 89c-0.666992 6 -1 12.333 -1 19c0 29.333 8.5 60.833 25.5 94.5
s37.5 62.667 61.5 87s52.667 46.833 86 67.5v1c52.667 35.333 130.334 63 233.001 83c10.667 31.333 16.334 56 17.001 74c0 90 -27.333 135 -82 135c-32 0 -68.667 -17.667 -110 -53c-46 -42.667 -88 -99.334 -126 -170.001l-1 -2c-33.333 -64 -78 -165.667 -134 -305
c-40.667 -120.667 -72.334 -238 -95.001 -352c-13.333 -67.333 -20 -129 -20 -185c0 -38 3 -73.333 9 -106c13.333 -69.333 48 -117 104 -143c3.33301 -1.33301 5 -3.33301 5 -6c0 -6 -7 -13.667 -21 -23c-20.667 -14 -41 -21 -61 -21zM231.001 40.001
c4.66699 0 9.66602 0.666992 14.999 2c83.333 25.333 160 105 230 239c11.333 22 22 43.667 32 65c-72.667 -18 -128.667 -40.333 -168 -67c-51.333 -30.667 -92.666 -72 -123.999 -124c-14.667 -23.333 -22 -46.333 -22 -69l1 -11c4 -23.333 16 -35 36 -35z" />
    <glyph glyph-name="q" unicode="q" horiz-adv-x="857" 
d="M491 -716c-5.33301 0 -10.666 0.670898 -15.999 2.00391c-84 18.667 -139.667 69.334 -167 152.001c-19.333 57.333 -29 124 -29 200c0 13.333 1.16699 46.666 3.5 99.999s13.166 130.5 32.499 231.5s40.666 197.833 63.999 290.5c-31.333 -66 -64 -122.333 -98 -169
c-22.667 -30.667 -52 -59.334 -88 -86.001c-22.667 -16 -44 -24 -64 -24c-31.333 0 -59.166 12 -83.499 36s-40.833 51.333 -49.5 82c-9.33301 37.333 -14 76.333 -14 117c0 61.333 10.667 125.666 32 192.999c36.667 112 97.334 200.333 182.001 265
c44 32 94.667 50 152 54c36.667 0 66.334 -11.333 89.001 -34c11.333 -11.333 17 -21 17 -29c0 -4 -1.66699 -10.333 -5 -19s-12.333 -13 -27 -13c-10.667 0 -23.667 6.33301 -39 19c-12 9.33301 -23.667 14 -35 14c-33.333 0 -67 -34 -101 -102
c-26 -52 -48 -110.667 -66 -176c-27.333 -100 -41 -181.333 -41 -244c0 -44.667 7.66699 -67 23 -67c10 0 23 8.66699 39 26c37.333 39.333 76.333 102.333 117 189c34.667 73.333 64 142.333 88 207s39 108 45 130c6 17.333 39 35 99 53c46.667 14 82.667 21 108 21
c5.33301 0 10 -0.333008 14 -1s6 -3.66699 6 -9c0 -2.66699 -0.5 -5.83398 -1.5 -9.50098s-1.83301 -7.5 -2.5 -11.5c-15.333 -72.667 -41.333 -168.667 -78 -288c-30 -99.333 -59.667 -204.333 -89 -315l47 54c49.333 61.333 102.166 120.166 158.499 176.499
s111.833 90.5 166.5 102.5h5c7.33301 0 14.833 -2.66699 22.5 -8s11.5 -13.666 11.5 -24.999c0 -18.667 -9.33301 -30 -28 -34c-42.667 -10.667 -90.167 -42.834 -142.5 -96.501s-99.5 -106.5 -141.5 -158.5c-38 -46 -67.333 -79.333 -88 -100
c34 -30 67.167 -71.167 99.5 -123.5s55.5 -111.5 69.5 -177.5c4.66699 -25.333 7 -50.333 7 -75c0 -110 -45.667 -207.333 -137 -292l-2 -1c-20.667 -18 -42.334 -27 -65.001 -27zM515 -634.996c74.667 69.333 112 148.666 112 237.999c0 20.667 -2 42 -6 64
c-12.667 58.667 -33.5 110.834 -62.5 156.501s-56.833 80.834 -83.5 105.501c-26.667 -124.667 -40 -230 -40 -316c0 -116.667 26.667 -199.334 80 -248.001z" />
    <glyph glyph-name="r" unicode="r" horiz-adv-x="636" 
d="M65 -6c-11.333 0 -29.6689 10.335 -55.002 31.002c-34 27.333 -51.667 59 -53 95v23c0 26 1.66699 53 5 81c5.33301 38 17.333 80.333 36 127c26 71.333 54.667 139.666 86 204.999c45.333 96.667 83.666 163 114.999 199c68 -14 102 -45 102 -93
c0 -24.667 -3.66699 -48.334 -11 -71.001c21.333 22 45 44.667 71 68c49.333 44 85 69 107 75c4.66699 1.33301 11.334 2 20.001 2c14 0 27.333 -3.66699 40 -11c26.667 -16.667 40 -39.667 40 -69c0 -14 -4 -27.667 -12 -41
c-21.333 -36.667 -39.666 -74.334 -54.999 -113.001s-25 -69 -29 -91c20.667 12.667 43 28 67 46c6.66699 4.66699 13.334 7 20.001 7c11.333 0 20.666 -4.66699 27.999 -14c4 -6 6 -12.667 6 -20c0 -10.667 -4.33301 -19.667 -13 -27
c-79.333 -57.333 -132.666 -88 -159.999 -92c-8.66699 -3.33301 -18 -5 -28 -5c-19.333 0 -36.333 6.66699 -51 20c-19.333 16 -29 38.333 -29 67c0 50 12.333 103.667 37 161c-93.333 -93.333 -160 -172.666 -200 -237.999c-24.667 -45.333 -44.667 -92 -60 -140
c-14 -50 -21 -98 -21 -144v-22c0 -10.667 -1 -16 -3 -16z" />
    <glyph glyph-name="s" unicode="s" horiz-adv-x="510" 
d="M45 -170c-12.667 0 -25.3369 0.999023 -38.0039 2.99902c-79.333 14 -119 64.667 -119 152c0 28.667 5.66699 58.334 17 89.001c22 50.667 55 91.334 99 122.001c35.333 24.667 72.333 46.334 111 65.001c-82 80.667 -130.667 153.667 -146 219
c-2.66699 11.333 -4 22.666 -4 33.999c0 39.333 16.667 78.666 50 117.999c46.667 51.333 104.667 84 174 98c18.667 4 36.334 6 53.001 6c28.667 0 58.834 -8.5 90.501 -25.5s52.834 -51.833 63.501 -104.5l1 -13c0 -14 -3.33301 -29 -10 -45
c-6 -12.667 -14.667 -19 -26 -19c-4.66699 0 -9.33398 1.33301 -14.001 4c-11.333 5.33301 -17 15.666 -17 30.999c0 4.66699 1 9.33398 3 14.001v1c0 5.33301 -9.66699 8 -29 8c-21.333 0 -46.666 -4.16699 -75.999 -12.5s-55.666 -21.833 -78.999 -40.5
c-29.333 -23.333 -44 -53.333 -44 -90c0 -40 24.667 -91 74 -153c47.333 20.667 95 39.334 143 56.001l69 22c72.667 22 128 33 166 33c14 0 23.667 -3.16699 29 -9.5s8 -12.833 8 -19.5c0 -10 -3.33301 -17.667 -10 -23s-14 -8 -22 -8h-8c-32.667 0 -103 -17.333 -211 -52
h-1c-40 -14 -80 -29.333 -120 -46c12.667 -12.667 25.667 -25 39 -37c20.667 -18.667 39.667 -37.667 57 -57c38.667 -38.667 58 -75.334 58 -110.001c0 -46 -35.667 -93 -107 -141c-73.333 -46 -148 -69 -224 -69zM18.9971 9.99902c32 0 66.667 5.66504 104 16.998
c71.333 22 107 51.667 107 89v2c-4.66699 26.667 -22 53.334 -52 80.001l-18 18c-103.333 -48 -170 -104.333 -200 -169c-1.33301 -3.33301 -2 -6.66602 -2 -9.99902c0 -18 20.333 -27 61 -27z" />
    <glyph glyph-name="t" unicode="t" horiz-adv-x="506" 
d="M242 -101c-12.667 0 -26.666 1.66992 -41.999 5.00293c-65.333 20.667 -113.666 60.667 -144.999 120c-27.333 50.667 -44.333 103.667 -51 159c-4 34.667 -6 70.667 -6 108c0 73.333 7.33301 152.666 22 237.999c21.333 128.667 50.666 258.834 87.999 390.501
s73.666 252.5 108.999 362.5l28 91l-82 -26c-162 -54.667 -282.667 -117.334 -362 -188.001c-7.33301 -6 -15 -9 -23 -9c-9.33301 0 -17.333 3.5 -24 10.5s-10 14.5 -10 22.5c0 10.667 3.33301 19.334 10 26.001c103.333 90.667 274.666 171.334 513.999 242.001
c22.667 76 34 126.333 34 151c0 5.33301 -0.333008 9.66602 -1 12.999c14.667 14 43.5 26.333 86.5 37s82.167 16.667 117.5 18c26.667 0 40 -4 40 -12c0 -4.66699 -1.33301 -10.334 -4 -17.001l-4 -13c-9.33301 -34.667 -20.666 -73.667 -33.999 -117
c64.667 15.333 124.334 28 179.001 38c189.333 35.333 366.166 60.5 530.499 75.5s301.5 22.5 411.5 22.5c38 0 74 -0.666992 108 -2c10 -0.666992 18 -4.33398 24 -11.001s9 -15 9 -25c-1.33301 -9.33301 -5.33301 -17 -12 -23s-14.667 -9 -24 -9c-34 1.33301 -70 2 -108 2
c-264.667 0 -572 -32 -922 -96c-76 -14.667 -149.667 -30.334 -221 -47.001l-55 -158c-111.333 -312.667 -185.333 -556 -222 -730c-24 -111.333 -36 -208 -36 -290c0 -58.667 8 -114.667 24 -168c11.333 -39.333 26.666 -70.333 45.999 -93
c6.66699 -6.66699 13.334 -10 20.001 -10c17.333 0 37 34.333 59 103c9.33301 26 19.333 52.333 30 79c43.333 116.667 105 193 185 229c4.66699 2 9.33398 3 14.001 3c14.667 0 24.667 -7.33301 30 -22c2 -4 3 -8.33301 3 -13c0 -14.667 -7 -25 -21 -31
c-62 -27.333 -111.333 -91 -148 -191l-27 -75c-0.666992 -0.666992 -2 -4.33398 -4 -11.001c-21.333 -65.333 -43.333 -109.666 -66 -132.999c-16.667 -17.333 -39.334 -26 -68.001 -26z" />
    <glyph glyph-name="u" unicode="u" horiz-adv-x="756" 
d="M486 -2c-36 0 -65.499 14.3301 -88.499 42.9971s-36.5 59.667 -40.5 93c-1.33301 12.667 -2 25.334 -2 38.001c0 31.333 3.66699 63.666 11 96.999c-12.667 -24 -25.667 -47.333 -39 -70l-2 -3c-78 -131.333 -157.667 -197 -239 -197
c-34.667 2.66699 -62.334 18 -83.001 46c-26 34.667 -39 77.667 -39 129c0 63.333 17 141 51 233c44.667 118 99.334 206.333 164.001 265c8 6 18 9 30 9c6 0 16 -1.16699 30 -3.5s29.333 -10.166 46 -23.499s25 -30.333 25 -51c0 -10.667 -16.667 -51 -50 -121
c-78 -166 -127.333 -287.333 -148 -364c-3.33301 -11.333 -5 -19.666 -5 -24.999c0 -10 3 -15.333 9 -16c6 0 13.667 2.66699 23 8c41.333 24 83.666 72.667 126.999 146c28.667 48 56.334 98 83.001 150c40 78.667 79.167 146 117.5 202s80.5 88.667 126.5 98
c29.333 0 54.833 -7.16699 76.5 -21.5s32.5 -34.166 32.5 -59.499c0 -7.33301 -16.667 -46.666 -50 -117.999c-74.667 -154.667 -124.334 -276 -149.001 -364c-2.66699 -14 -4 -23.667 -4 -29c0 -8 2.66699 -12 8 -12c8 0 20.667 6.66699 38 20l3 2
c28.667 20.667 60.667 51 96 91v1h1c49.333 58.667 89.666 122 120.999 190c6 13.333 16.333 20 31 20c4.66699 0 9.33398 -1 14.001 -3c13.333 -6 20 -16.333 20 -31c0 -4.66699 -1 -9.33398 -3 -14.001c-34 -74.667 -78 -143.667 -132 -207
c-38.667 -44 -74.667 -78 -108 -102c-31.333 -26 -65.333 -41.333 -102 -46z" />
    <glyph glyph-name="v" unicode="v" horiz-adv-x="756" 
d="M96 -1c-35.333 0 -64.333 15.332 -87 45.999c-26 34.667 -39 77.667 -39 129c0 63.333 17 141 51 233c44.667 118 99.334 206.333 164.001 265c8 6 18 9 30 9c6 0 16 -1.16699 30 -3.5s29.333 -10.166 46 -23.499s25 -30.333 25 -51c0 -10.667 -16.667 -51 -50 -121
c-78 -166 -127.333 -287.333 -148 -364c-3.33301 -11.333 -5 -20 -5 -26c0 -9.33301 3.33301 -14 10 -14c4.66699 0 10 1.33301 16 4v-2c39.333 18 84.833 52.833 136.5 104.5s100.167 110.834 145.5 177.501c-30 42 -45 103.667 -45 185c0 16.667 0.666992 34.334 2 53.001
v5c7.33301 66 23 115.333 47 148c28.667 39.333 61 59 97 59c34.667 0 62.667 -17.667 84 -53c12 -23.333 18 -49.333 18 -78c0 -82 -39.333 -186.333 -118 -313c2.66699 -2.66699 5.66699 -5 9 -7c20 -13.333 46.667 -20 80 -20c49.333 0 109.666 19 180.999 57
c5.33301 2.66699 11 4 17 4c12.667 0 22.334 -6 29.001 -18c2.66699 -5.33301 4 -11 4 -17c0 -12.667 -6 -22.334 -18 -29.001c-80.667 -43.333 -152.334 -65 -215.001 -65c-52 0 -93.667 12.667 -125 38c-47.333 -68.667 -98.333 -129.834 -153 -183.501
s-107 -91.5 -157 -113.5c-20 -10 -40.667 -15 -62 -15zM463 427.999l9 15.999c55.333 100.667 83 178.667 83 234c0 18.667 -3 34.334 -9 47.001s-14 19 -24 19c-16.667 0 -32.667 -13.667 -48 -41c-14 -24 -23.333 -58.667 -28 -104v-4c-1.33301 -16.667 -2 -32.667 -2 -48
c0 -47.333 6.33301 -87 19 -119z" />
    <glyph glyph-name="w" unicode="w" horiz-adv-x="1123" 
d="M486 -1c-35.333 0 -64.3291 15.3262 -86.9961 45.9932c-26.667 34 -40 76 -40 126c0 32.667 4 66.334 12 101.001c-13.333 -25.333 -27 -49.666 -41 -72.999l-2 -3c-30 -50.667 -61.667 -93.334 -95 -128.001c-47.333 -46 -95.333 -69 -144 -69
c-34 2.66699 -61.5 17.834 -82.5 45.501s-33.5 57.5 -37.5 89.5c-1.33301 12 -2 24.333 -2 37c0 68.667 17.333 147.334 52 236.001c44 118 98.333 206.333 163 265c8 6 18 9 30 9c6 0 16 -1.16699 30 -3.5s29.5 -10.333 46.5 -24s25.5 -31.167 25.5 -52.5
c0 -8 -16.667 -47.333 -50 -118c-76 -160 -125.667 -281.667 -149 -365c-2.66699 -13.333 -4 -22.666 -4 -27.999c0 -8 2.66699 -12.333 8 -13c6 0 13.667 2.66699 23 8c41.333 24 83.666 72.667 126.999 146h1c28 48 55.667 98.333 83 151
c39.333 78 78.166 145 116.499 201s80.5 88.667 126.5 98c29.333 0 55 -7 77 -21s33 -34 33 -60c0 -7.33301 -16.667 -46.666 -50 -117.999c-74.667 -154.667 -124.334 -276 -149.001 -364c-2.66699 -14 -4 -23.333 -4 -28c0 -8 3.33301 -12 10 -12c4 0 9 1.33301 15 4v-2
c40 18 85.667 52.833 137 104.5s99.666 110.834 144.999 177.501l-9 14c-24 44.667 -36 101.667 -36 171c0 32.667 1 52 3 58c6.66699 66 22 115.333 46 148c28.667 39.333 61 59 97 59c34.667 0 62.667 -17.667 84 -53c12 -24 18 -50.667 18 -80
c0 -45.333 -13 -98.666 -39 -159.999c-22 -50.667 -48.333 -101 -79 -151c22.667 -18 52.334 -27 89.001 -27c50.667 0 111 19 181 57c5.33301 2.66699 11 4 17 4c12.667 0 22.667 -6 30 -18c2.66699 -5.33301 4 -10.666 4 -15.999c0 -13.333 -6 -23.333 -18 -30
c-82 -43.333 -154 -65 -216 -65c-44 0 -82.333 10.333 -115 31c-3.33301 2 -6.33301 4.33301 -9 7c-48 -68.667 -99.333 -129.834 -154 -183.501s-107 -91.5 -157 -113.5h1c-20.667 -10 -41.334 -15 -62.001 -15zM852.004 427.993l8.99902 16.001
c56 101.333 84 179.666 84 234.999c0 18 -3 33.333 -9 46s-14.333 19 -25 19c-16.667 0 -32.667 -13.667 -48 -41c-13.333 -24 -22.666 -58.667 -27.999 -104v-4c-1.33301 -16.667 -2 -32.667 -2 -48c0 -47.333 6.33301 -87 19 -119z" />
    <glyph glyph-name="x" unicode="x" horiz-adv-x="475" 
d="M-92 -90c-14.667 0 -25.667 7.66797 -33 23.001c-1.33301 4 -2 7.66699 -2 11c0 16.667 8 27.334 24 32.001c45.333 16.667 97.666 80 156.999 190c-42 111.333 -63 219 -63 323c0 50 5.66699 96 17 138c6 14.667 23.333 28 52 40c32 13.333 62.667 20 92 20
s49.666 -8.66699 60.999 -26c-17.333 -40 -26.666 -118.667 -27.999 -236c61.333 123.333 114.666 206.333 159.999 249c7.33301 6 15.666 9 24.999 9c8.66699 -0.666992 16.167 -4.33398 22.5 -11.001s9.5 -14 9.5 -22v-9c0 -4.66699 -3.66699 -10.334 -11 -17.001
c-30 -29.333 -60.667 -72.5 -92 -129.5s-62.666 -117.833 -93.999 -182.5l-13 -26c6.66699 -58 19.334 -100.333 38.001 -127c9.33301 -12.667 20.333 -19 33 -19c20 0 41.667 16.333 65 49c16.667 22.667 32 46.334 46 71.001s31 50.667 51 78h1
c22.667 29.333 45.334 49.666 68.001 60.999c5.33301 2.66699 10.666 4 15.999 4c13.333 0 23.333 -6.33301 30 -19c2.66699 -5.33301 4 -10.666 4 -15.999c0 -13.333 -6.5 -23.333 -19.5 -30s-27.833 -20.334 -44.5 -41.001c0 -0.666992 -0.333008 -1 -1 -1
c-13.333 -17.333 -33 -47 -59 -89c-50 -84.667 -92.333 -140 -127 -166c-21.333 -16 -45 -24 -71 -24c-8 0 -16 0.666992 -24 2c-44 10.667 -79.333 36 -106 76c-58.667 -102.667 -116.667 -163.667 -174 -183c-3.33301 -1.33301 -6.66602 -2 -9.99902 -2z" />
    <glyph glyph-name="y" unicode="y" horiz-adv-x="649" 
d="M-170 -638c-36.667 0 -72.333 9.00586 -107 27.0059s-58.667 48 -72 90c-3.33301 14 -5 28.333 -5 43c0 57.333 26 112 78 164v1h1c53.333 51.333 119.333 95.666 198 132.999s155.667 69.666 231 96.999l49 19c25.333 62 49 124.333 71 187
c-29.333 -32.667 -57 -58.334 -83 -77.001c-42.667 -32.667 -79.334 -49 -110.001 -49c-34 0 -62.667 15.667 -86 47c-25.333 34 -38 68 -38 102c0 40 18.667 124.5 56 253.5s56 212.833 56 251.5c0 12.667 -1.66699 23 -5 31c8.66699 6 22.334 9 41.001 9
c6.66699 0 19.834 -0.833008 39.501 -2.5s42.834 -9.33398 69.501 -23.001s40 -31.834 40 -54.501c-0.666992 -8.66699 -17.334 -62.667 -50.001 -162c-48.667 -148.667 -82.334 -259.334 -101.001 -332.001c-3.33301 -11.333 -5 -20.333 -5 -27c0 -8 3 -12 9 -12s14 3 24 9
c32.667 20 71 55.333 115 106v1h1c36.667 43.333 68.667 90 96 140c42 147.333 63 247.333 63 300c0 14.667 -2.33301 23 -7 25c2.66699 13.333 15 24 37 32c24 8 53 12 87 12c20.667 0 39 -2.33301 55 -7c18.667 -5.33301 28 -14 28 -26v-2
c-14 -96 -40 -211.833 -78 -347.5s-87.5 -272 -148.5 -409s-133 -255.667 -216 -356s-176.167 -162.833 -279.5 -187.5c-18 -4 -36 -6 -54 -6zM-192.999 -571.994c20 0 40.334 5.00098 61.001 15.001c99.333 52.667 199.666 191 300.999 415
c-72 -26.667 -144.833 -57.334 -218.5 -92.001s-134.834 -75 -183.501 -121c-40.667 -42.667 -61 -84.667 -61 -126c0 -8.66699 1 -16.667 3 -24c14.667 -44.667 47.334 -67 98.001 -67z" />
    <glyph glyph-name="z" unicode="z" horiz-adv-x="630" 
d="M-42 -670h-15.999c-109.333 0 -173.333 45 -192 135c-2 13.333 -3 26.666 -3 39.999c0 56.667 17 117.334 51 182.001l2 3c61.333 106.667 145.5 206 252.5 298s207.833 152.667 302.5 182c-8.66699 43.333 -32.334 74.333 -71.001 93c-25.333 2 -44 7.33301 -56 16
c-6.66699 2.66699 -12 7 -16 13c-13.333 15.333 -20 33 -20 53c0 28 11.333 49.667 34 65c14 10 30 15 48 15l24 -2c25.333 0 49.333 9 72 27c32.667 24.667 57.667 50.334 75 77.001c12 18 18 34.667 18 50c0 35.333 -35.333 53 -106 53c-34 0 -67.667 -5.33301 -101 -16
c-60 -18.667 -101.333 -53.334 -124 -104.001c-5.33301 -14.667 -16 -22 -32 -22c-4 0 -8 0.666992 -12 2c-14.667 6.66699 -22 17.334 -22 32.001c0 4 0.666992 8 2 12c14 35.333 36 65 66 89c62 50 137.333 75 226 75c76.667 0 137.667 -21.333 183 -64
c33.333 -30.667 50 -68 50 -112c0 -66.667 -41.667 -132.667 -125 -198c-12.667 -10 -26 -18.667 -40 -26c65.333 -41.333 104 -99.666 116 -174.999c3.33301 -22 5 -44.667 5 -68c0 -56 -12.333 -122 -37 -198s-66 -154.833 -124 -236.5s-124.333 -149.334 -199 -203.001
s-151.667 -82.834 -231 -87.501zM-121.999 -593c16 0 34.001 4.33203 54.001 12.999c60.667 28.667 123.5 82.834 188.5 162.501s120.333 167.667 166 264s70.5 183.833 74.5 262.5c-86.667 -30 -179.334 -88.167 -278.001 -174.5s-175.667 -177.833 -231 -274.5v-1
c-30 -54 -45 -105.333 -45 -154c0 -10.667 0.666992 -20.667 2 -30c8.66699 -45.333 31.667 -68 69 -68z" />
    <glyph glyph-name="braceleft" unicode="{" horiz-adv-x="465" 
d="M385 -213c-7.33301 0 -14 2.99609 -20 8.99609c-15.333 14 -37 21 -65 21c-4 0 -16 -0.666992 -36 -2s-46.833 -5.66602 -80.5 -12.999s-62.167 -11 -85.5 -11c-42 0 -63 27 -63 81c0 48 14.333 134 43 258c40.667 174 61 303 61 387c0 29.333 -3.5 66.333 -10.5 111
s-35.167 76.334 -84.5 95.001c-16 2 -24 9 -24 21c0 2.66699 0.666992 5 2 7c4 8 11 12.333 21 13c50 19.333 80 60.333 90 123c4 26 6 53.667 6 83c0 84 -20.333 213 -61 387c-28.667 125.333 -43 211.666 -43 258.999c0 53.333 20 80 60 80
c25.333 0 55.333 -3.33301 90 -10c44.667 -10 84 -15 118 -15c26.667 0 47.334 7 62.001 21c5.33301 5.33301 11.666 8 18.999 8h7c4.66699 0 9.83398 -3.5 15.501 -10.5s8.5 -15.167 8.5 -24.5s-3 -17.666 -9 -24.999c-24.667 -26 -61.334 -39 -110.001 -39
c-40 0 -80.333 5.33301 -121 16c0 -61.333 5.66699 -131.666 17 -210.999c18 -136 27 -243.667 27 -323c0 -62.667 -6.66699 -126.167 -20 -190.5s-46.333 -113.833 -99 -148.5c52.667 -34 86.667 -88.333 102 -163c11.333 -54 17 -113 17 -177c0 -78.667 -9 -186 -27 -322
c-11.333 -80 -17 -150.333 -17 -211c41.333 9.33301 83 14.666 125 15.999c44 0 79.333 -13 106 -39c6 -7.33301 9 -15.666 9 -24.999s-3 -17.666 -9 -24.999s-13 -11 -21 -11z" />
    <glyph glyph-name="bar" unicode="|" horiz-adv-x="306" 
d="M235 -184c8 -4 13.668 -10.999 17.001 -20.999c2.66699 -6 4 -12 4 -18c0 -4 -0.666992 -8 -2 -12c-3.33301 -10.667 -8.33301 -18.667 -15 -24c-4.66699 -3.33301 -9.33398 -5 -14.001 -5c-2.66699 0 -5.66699 0.666992 -9 2c-60 30.667 -104.667 93.167 -134 187.5
s-47.666 208.166 -54.999 341.499c-4.66699 80.667 -7 164 -7 250c0 54 1.66699 131.333 5 232s9 216.334 17 347.001c8.66699 136 13 247.333 13 334c0 49.333 -1.33301 90.666 -4 123.999c-0.666992 6.66699 -1 13 -1 19c0 22.667 5.5 44.834 16.5 66.501
s27.833 35.5 50.5 41.5c4.66699 0.666992 9.33398 1 14.001 1c17.333 0 33.666 -7.5 48.999 -22.5s25.333 -37.5 30 -67.5c2.66699 -24.667 4 -53.334 4 -86.001c0 -43.333 -3.33301 -105.5 -10 -186.5s-17.334 -185.833 -32.001 -314.5
c-14 -126 -26.833 -253.667 -38.5 -383s-18.167 -251 -19.5 -365v-12c0 -109.333 8.83301 -202.5 26.5 -279.5s49.167 -126.833 94.5 -149.5z" />
    <glyph glyph-name="braceright" unicode="}" horiz-adv-x="465" 
d="M50 -213c-8 0 -15 3.6709 -21 11.0039s-9 15.666 -9 24.999s3 17.666 9 24.999c26.667 26 62 39 106 39c42 -1.33301 83.667 -6.66602 125 -15.999c0 60.667 -5.66699 131 -17 211c-18 136 -27 243.333 -27 322c0 64 5.66699 123 17 177
c15.333 74.667 49.333 129 102 163c-52.667 34.667 -85.667 84.167 -99 148.5s-20 127.833 -20 190.5c0 79.333 9 187 27 323c11.333 79.333 17 149.666 17 210.999c-40.667 -10.667 -81 -16 -121 -16c-48.667 0 -85.334 13 -110.001 39c-6 7.33301 -9 15.666 -9 24.999
s2.83301 17.5 8.5 24.5s10.834 10.5 15.501 10.5h7c7.33301 0 13.666 -2.66699 18.999 -8c14.667 -14 35.334 -21 62.001 -21c34 0 73.333 5 118 15c34.667 6.66699 64.667 10 90 10c40 0 60 -26.667 60 -80c0 -47.333 -14.333 -133.666 -43 -258.999
c-40.667 -174 -61 -303 -61 -387c0 -29.333 2 -57 6 -83c10 -62.667 40 -103.667 90 -123c10 -0.666992 17 -5 21 -13c1.33301 -2 2 -4.33301 2 -7c0 -12 -8 -19 -24 -21c-49.333 -18.667 -77.5 -50.334 -84.5 -95.001s-10.5 -81.667 -10.5 -111c0 -84 20.333 -213 61 -387
c28.667 -124 43 -210 43 -258c0 -54 -21 -81 -63 -81c-23.333 0 -51.833 3.66699 -85.5 11s-60.5 11.666 -80.5 12.999s-32 2 -36 2c-28 0 -49.667 -7 -65 -21c-6 -6 -12.667 -9 -20 -9z" />
    <glyph glyph-name="asciitilde" unicode="~" horiz-adv-x="672" 
d="M606 868c10 -8 15.332 -17.6641 15.999 -28.9971v-5c0 -10 -3.33301 -19 -10 -27c-47.333 -56 -92.333 -90.667 -135 -104c-23.333 -7.33301 -46 -11 -68 -11c-17.333 0 -39.333 3.83301 -66 11.5s-55.667 20.167 -87 37.5c-32 17.333 -61 28.333 -87 33
c-3.33301 0.666992 -6.66602 1 -9.99902 1c-21.333 0 -40.333 -12.333 -57 -37c-6.66699 -10.667 -16 -17.334 -28 -20.001c-3.33301 -0.666992 -6.66602 -1 -9.99902 -1c-8 0 -15.667 2.33301 -23 7c-10.667 6.66699 -17.334 15.667 -20.001 27
c-0.666992 3.33301 -1 6.66602 -1 9.99902c0 8 2.33301 15.667 7 23c31.333 49.333 64.333 80.666 99 93.999c22 8.66699 43.667 13 65 13c13.333 0 32.166 -2.66699 56.499 -8s53.833 -15 88.5 -29c40 -17.333 77.667 -28 113 -32c4.66699 -0.666992 9.33398 -1 14.001 -1
c29.333 0 56.333 13.667 81 41c8 10 18 15.333 30 16h5c9.33301 0 18.333 -3.33301 27 -10z" />
    <glyph glyph-name="exclamdown" unicode="&#xa1;" horiz-adv-x="346" 
d="M247 1461c4 0.666992 7.66699 0.99707 11 0.99707c5.33301 0 11.5 -1.5 18.5 -4.5s11.833 -9.16699 14.5 -18.5c1.33301 -4 2 -8 2 -12c0 -5.33301 -1.66699 -11.166 -5 -17.499s-9.66602 -11.166 -18.999 -14.499c-68.667 -26.667 -111 -93.334 -127 -200.001
c-8 -53.333 -12 -112.333 -12 -177c0 -61.333 5.5 -145.666 16.5 -252.999s27.5 -232.333 49.5 -375c17.333 -109.333 31 -207.333 41 -294c5.33301 -49.333 8 -92.666 8 -129.999c0 -28 -1.66699 -52.333 -5 -73c-4.66699 -25.333 -17.334 -45 -38.001 -59
c-16 -10.667 -33.667 -16 -53 -16c-5.33301 0 -11 0.333008 -17 1c-25.333 4.66699 -45.333 17 -60 37c-10.667 16 -16 33.667 -16 53c0 5.33301 0.333008 10.666 1 15.999c3.33301 28 5 62 5 102c0 74 -5.66699 169.333 -17 286c-8.66699 110.667 -16 227.334 -22 350.001
c-2 47.333 -3 94 -3 140c0 72.667 3.66699 154.167 11 244.5s27.833 175.5 61.5 255.5s85.167 132.667 154.5 158zM206 1675c24.667 0 45.834 -8.66699 63.501 -26s26.5 -38.333 26.5 -63s-8.83301 -45.667 -26.5 -63s-38.834 -26 -63.501 -26s-45.834 8.66699 -63.501 26
s-26.5 38.333 -26.5 63s8.83301 45.667 26.5 63s38.834 26 63.501 26z" />
    <glyph glyph-name="cent" unicode="&#xa2;" horiz-adv-x="770" 
d="M230 -9c-10 -1.33301 -20.0029 -2.00195 -30.0029 -2.00195c-68 0 -116.333 21.333 -145 64c-18.667 26.667 -29.667 54.334 -33 83.001c-1.33301 14.667 -2 29.667 -2 45c0 83.333 22 169.666 66 258.999c52.667 106 125.667 184.667 219 236
c16 8.66699 32.667 15.334 50 20.001c5.33301 38.667 11 75.334 17 110.001c12 71.333 25.667 124.333 41 159c14.667 30 37 45 67 45c9.33301 0 18.666 -2 27.999 -6c26.667 -13.333 40 -34.333 40 -63c0 -14.667 -2.66699 -26.334 -8 -35.001
c-18 -46.667 -36.333 -114.667 -55 -204c24.667 -8 45.334 -22 62.001 -42c16 -20.667 24 -45.667 24 -75c0 -28.667 -8.33301 -63 -25 -103c-6 -14 -16.333 -21 -31 -21c-4 0 -8.33301 0.666992 -13 2c-14 6 -21 16.333 -21 31c0 4.66699 0.666992 9 2 13
c12 30.667 18 56.334 18 77.001c0 16 -3 28 -9 36c-6.66699 8 -13.334 14.333 -20.001 19l-8 -42c-34 -176.667 -67.667 -324 -101 -442c-4.66699 -16 -10.334 -33.667 -17.001 -53c4.66699 2 9 4.33301 13 7c76.667 42 148.334 98 215.001 168
c38.667 40.667 64.667 74 78 100c1.33301 1.33301 2 3 2 5c7.33301 13.333 17.666 20 30.999 20c4.66699 0 9.33398 -1 14.001 -3c14 -6 21 -16 21 -30c0 -4.66699 -0.833008 -9 -2.5 -13s-3.16699 -7.33301 -4.5 -10c-15.333 -29.333 -44.333 -66.833 -87 -112.5
s-92.667 -89.5 -150 -131.5c-52 -38 -105.333 -67.333 -160 -88c-1.33301 -4.66699 -2.66602 -9 -3.99902 -13c-22.667 -62.667 -55 -122.5 -97 -179.5s-91 -89.5 -147 -97.5c-3.33301 0 -6.66602 0.5 -9.99902 1.5s-7.16602 3.16699 -11.499 6.5s-6.5 9.33301 -6.5 18l1 10
c4.66699 12 12.667 18.667 24 20c56.667 9.33301 102.334 54.333 137.001 135c10 24 19.333 49.333 28 76zM335.997 554.998c-32 -46.667 -61.332 -100.001 -87.999 -160.001c-52.667 -119.333 -79 -206.666 -79 -261.999c0 -30.667 7.33301 -50.667 22 -60
c10.667 -6 23 -9 37 -9c7.33301 0 15.666 0.666992 24.999 2c30 113.333 57.667 276.333 83 489z" />
    <glyph glyph-name="sterling" unicode="&#xa3;" horiz-adv-x="1119" 
d="M1044 255c12.667 -8.66699 20.334 -19.6621 23.001 -32.9951c1.33301 -4 2 -8 2 -12c0 -9.33301 -2.66699 -18.333 -8 -27c-8.66699 -12 -19.667 -19.667 -33 -23c-4 -0.666992 -7.66699 -1 -11 -1c-10 0 -19.667 2.66699 -29 8c-64.667 43.333 -126.334 73 -185.001 89
c-22.667 6.66699 -47.667 10 -75 10c-42 0 -88.333 -7.66699 -139 -23c-64 -20 -119.667 -45.5 -167 -76.5s-83.666 -59.167 -108.999 -84.5c-12 -14.667 -24.667 -29.334 -38 -44.001c-11.333 -12.667 -25 -19.667 -41 -21h-5c-14 0 -27 4.66699 -39 14
c-12.667 12 -19.667 25.667 -21 41v5c0 14 5 27 15 39c66 74.667 110.333 149.334 133 224.001c12.667 40 19 82 19 126c0 37.333 -4.66699 76 -14 116c-18 2 -35.667 4.33301 -53 7c-65.333 11.333 -117.666 17 -156.999 17c-14.667 0 -27.667 -1 -39 -3
c-2.66699 -0.666992 -5 -1 -7 -1c-10.667 0 -20.5 5.16699 -29.5 15.5s-14.5 25.166 -16.5 44.499v9c0 16 3.33301 31 10 45s16.667 22.667 30 26c8.66699 2 19 3 31 3c16.667 0 40.167 -2.83301 70.5 -8.5s69.5 -14.5 117.5 -26.5l-13 30c-48 99.333 -72 192.333 -72 279v7
c0.666992 17.333 2 34.666 4 51.999c14 102.667 75.667 196.667 185 282c33.333 26 72 46.167 116 60.5s92.333 21.5 145 21.5c54.667 0 101.667 -7.33301 141 -22s71.833 -34 97.5 -58s45.167 -50.667 58.5 -80c15.333 -34.667 23 -69.667 23 -105
c0 -8.66699 -0.333008 -17.334 -1 -26.001c-4.66699 -44.667 -19.667 -83 -45 -115c-34.667 -40.667 -76.334 -63.667 -125.001 -69c-6.66699 -0.666992 -13.334 -1 -20.001 -1c-41.333 0 -80.333 11.667 -117 35c-12 8.66699 -19.333 19.667 -22 33
c-0.666992 3.33301 -1 6.66602 -1 9.99902c0 10.667 3 20.334 9 29.001c8.66699 12 19.667 19.333 33 22c3.33301 0.666992 6.66602 1 9.99902 1c10.667 0 20.334 -3 29.001 -9c27.333 -20 54.333 -34 81 -42c5.33301 -2 10.666 -3 15.999 -3h4c19.333 0 38 10.333 56 31
c18 22.667 28.667 50.667 32 84c0.666992 6 1 12 1 18c0 27.333 -6 54.666 -18 81.999c-15.333 35.333 -42.5 65 -81.5 89s-92.5 36 -160.5 36c-46 0 -87.667 -6.16699 -125 -18.5s-70.333 -29.5 -99 -51.5c-45.333 -37.333 -71.666 -86 -78.999 -146
c-2.66699 -21.333 -4 -42.666 -4 -63.999c0.666992 -40 6 -81 16 -123c15.333 -64.667 35 -122.334 59 -173.001c23.333 -50.667 41.666 -98 54.999 -142c64.667 -14.667 124 -22 178 -22h7c15.333 0 30 0.666992 44 2c66.667 6.66699 109 39 127 97
c2 7.33301 5 12.333 9 15c2.66699 2 5.33398 3 8.00098 3c2 0 4 -0.666992 6 -2c4.66699 -2.66699 8 -7.33398 10 -14.001c0.666992 -2.66699 1 -5.66699 1 -9s-0.333008 -7 -1 -11c-20.667 -70.667 -65 -116.334 -133 -137.001c-50.667 -16 -106 -24 -166 -24h-7
c-19.333 0 -39 0.666992 -59 2c4 -27.333 6 -54 6 -80c0 -88 -23.333 -169.667 -70 -245c43.333 24.667 91.666 45.334 144.999 62.001c56.667 16.667 117.334 25 182.001 25h7c16.667 0 33.667 -0.666992 51 -2c86.667 -5.33301 164 -28.333 232 -69z" />
    <glyph glyph-name="currency" unicode="&#xa4;" horiz-adv-x="805" 
d="M755 701c0 -57.333 -12.4971 -110.506 -37.4971 -159.506s-58.5 -90.5 -100.5 -124.5c18.667 -24 37.334 -44 56.001 -60c16 -14 28.333 -27.333 37 -40c1.33301 -2 2 -4 2 -6c0 -4 -2.66699 -9.33301 -8 -16s-13.5 -13.5 -24.5 -20.5s-21.833 -11.833 -32.5 -14.5
c-3.33301 -0.666992 -6.33301 -1 -9 -1c-5.33301 0 -9.66602 1.66699 -12.999 5c-8.66699 14 -17.334 31.667 -26.001 53c-9.33301 21.333 -20.333 43.333 -33 66c-54.667 -30.667 -114.334 -46 -179.001 -46c-66.667 0 -128 16.333 -184 49
c-16 -26.667 -29.333 -52.667 -40 -78c-9.33301 -21.333 -18 -38.666 -26 -51.999c-3.33301 -4 -8 -6 -14 -6c-2 0 -6.5 0.833008 -13.5 2.5s-16 6.16699 -27 13.5s-19.5 15 -25.5 23c-4.66699 5.33301 -7 10 -7 14c0 2 0.666992 4 2 6c8.66699 12 21 25 37 39
c22 18 43.333 42.333 64 73c-41.333 34 -73.833 75.167 -97.5 123.5s-35.5 100.5 -35.5 156.5c0 58.667 12.667 112.834 38 162.501s59.666 91.167 102.999 124.5v1h-1c-21.333 30.667 -43 55.334 -65 74.001c-15.333 13.333 -27.666 26.333 -36.999 39
c-0.666992 1.33301 -1 3 -1 5c0 4.66699 2.66699 10.334 8 17.001s13.5 13.5 24.5 20.5s21.5 11.833 31.5 14.5c3.33301 0.666992 6.66602 1 9.99902 1c5.33301 0 9.66602 -1.66699 12.999 -5c8 -13.333 16.333 -30.666 25 -51.999c11.333 -26.667 25.333 -54 42 -82
c54 30 112.667 45 176 45c71.333 0 136.333 -18.333 195 -55c0.666992 0.666992 1 1.33398 1 2.00098c17.333 28.667 31.666 56.334 42.999 83.001c8.66699 20.667 17 38 25 52c3.33301 3.33301 7.66602 5 12.999 5c3.33301 0 8.83301 -1.16699 16.5 -3.5
s17.334 -7.33301 29.001 -15s20.167 -15.834 25.5 -24.501c5.33301 -5.33301 9.33301 -10.333 12 -15c1.33301 -2.66699 2 -5 2 -7s-0.666992 -4 -2 -6c-8.66699 -12 -21 -25 -37 -39c-22 -18 -43.667 -42.333 -65 -73c-1.33301 -2 -2.66602 -3.66699 -3.99902 -5
c35.333 -34 63.166 -73.5 83.499 -118.5s30.5 -93.5 30.5 -145.5zM72.0029 700.994c0 -86 30.833 -159.5 92.5 -220.5s135.834 -91.5 222.501 -91.5c87.333 0 161.833 30.5 223.5 91.5s92.5 134.5 92.5 220.5c0 86.667 -30.833 160.5 -92.5 221.5s-136.167 91.5 -223.5 91.5
c-86.667 0 -160.834 -30.5 -222.501 -91.5s-92.5 -134.833 -92.5 -221.5z" />
    <glyph glyph-name="yen" unicode="&#xa5;" horiz-adv-x="1287" 
d="M619 426c38 192 108.339 431.002 211.006 717.002c-56 -87.333 -111.333 -163.666 -166 -228.999c-146 -174 -274.333 -261 -385 -261c-11.333 0 -22.333 1 -33 3c-95.333 18.667 -158.666 69.667 -189.999 153c-24 63.333 -36 134.666 -36 213.999
c0 25.333 3.16699 72.833 9.5 142.5s24.333 157.167 54 262.5s57.834 189.666 84.501 252.999c6 10 18.333 15 37 15c24 0 49.333 -4.33301 76 -13s48 -19 64 -31c13.333 -9.33301 20 -18.666 20 -27.999l-2 -7c-22 -11.333 -46.5 -47 -73.5 -107
s-51.833 -132.333 -74.5 -217c-36.667 -136.667 -55 -253.334 -55 -350.001c0 -43.333 5.16699 -88.5 15.5 -135.5s37.5 -75.167 81.5 -84.5c6.66699 -1.33301 14 -2 22 -2c90 0 201 78.667 333 236v1h1c112 135.333 226.333 317.333 343 546
c23.333 69.333 35 116.333 35 141v7c15.333 14.667 45 26.334 89 35.001c38.667 8 73.667 12 105 12h13c26 -2 39 -7 39 -15c0 -5.33301 -1.33301 -11.666 -4 -18.999c-2 -4.66699 -3.66699 -9.66699 -5 -15c-30.667 -96 -77.334 -222.333 -140.001 -379
c-56 -140 -112 -288.333 -168 -445c-54.667 -152 -98.334 -298 -131.001 -438c17.333 -3.33301 34.666 -6.33301 51.999 -9c47.333 -8 91 -12 131 -12c29.333 0 65.333 3.33301 108 10s72.667 35.667 90 87c2 7.33301 5.33301 12.333 10 15c2.66699 2 5.33398 3 8.00098 3
c2 0 4.33301 -0.666992 7 -2c5.33301 -2.66699 9 -7.33398 11 -14.001c1.33301 -2.66699 2 -5.66699 2 -9s-0.666992 -7 -2 -11c-22.667 -68 -70.334 -112.667 -143.001 -134c-56 -16 -118 -24 -186 -24c-19.333 0 -55.333 1.66699 -108 5c-8 -47.333 -13.333 -92 -16 -134
c29.333 -6 58.666 -11.667 87.999 -17c47.333 -8 91 -12 131 -12c29.333 0 65.333 3.33301 108 10s72.667 35.667 90 87c2 7.33301 5.33301 12.333 10 15c2.66699 2 5.33398 3 8.00098 3c2 0 4.33301 -0.666992 7 -2c5.33301 -2.66699 9 -7.33398 11 -14.001
c1.33301 -2.66699 2 -5.66699 2 -9s-0.666992 -7 -2 -11c-22.667 -68 -70.334 -112.667 -143.001 -134c-56 -16 -118 -24 -186 -24c-20 0 -58.333 2 -115 6h-10c1.33301 -18 3.33301 -35.667 6 -53c10.667 -72.667 39 -128 85 -166c2.66699 -2.66699 4 -5.66699 4 -9
c0 -8.66699 -8.83301 -18.5 -26.5 -29.5s-34.834 -16.5 -51.501 -16.5c-10.667 0 -20.667 2 -30 6c-68.667 33.333 -113.334 92 -134.001 176c-8.66699 34 -14.334 71 -17.001 111l-38 6c-76 12 -136 18 -180 18c-14.667 0 -27.667 -0.666992 -39 -2h-7c-12 0 -23 5 -33 15
s-16 25 -18 45v8c0 16 3.83301 31 11.5 45s18.834 22.667 33.501 26c9.33301 1.33301 19.666 2 30.999 2c23.333 0 55.666 -3.66699 96.999 -11c38.667 -7.33301 86 -18 142 -32c2 36 6 74.333 12 115l-50 8c-76 12 -136 18 -180 18c-14.667 0 -27.667 -0.666992 -39 -2h-7
c-12 0 -23 5 -33 15s-16 25 -18 45v8c0 16 3.83301 31 11.5 45s18.834 22.667 33.501 26c9.33301 1.33301 19.666 2 30.999 2c23.333 0 55.5 -3.83301 96.5 -11.5s91.833 -18.834 152.5 -33.501c7.33301 -2 14.333 -3.66699 21 -5z" />
    <glyph glyph-name="brokenbar" unicode="&#xa6;" horiz-adv-x="294" 
d="M225 816c7.33301 -2.66699 12.999 -6.33105 16.999 -10.998c1.33301 -2.66699 2 -5.33398 2 -8.00098c0 -2 -0.333008 -4.33301 -1 -7c-3.33301 -5.33301 -8.66602 -9 -15.999 -11c-4 -0.666992 -7.66699 -1 -11 -1c-4 0 -7.66699 0.333008 -11 1
c-78.667 22 -130.334 68.667 -155.001 140c-20 56.667 -30 120.334 -30 191.001c0 16.667 1.83301 52.167 5.5 106.5s12.167 123.5 25.5 207.5c13.333 73.333 20 132 20 176c0 14.667 -1 27.667 -3 39c-0.666992 3.33301 -1 6.33301 -1 9c0 10.667 5.66699 21 17 31
s28.333 16 51 18h10c18.667 0 35.834 -3.66699 51.501 -11s25.5 -18.333 29.5 -33c2 -9.33301 3 -20 3 -32c0 -22 -4.33301 -53 -13 -93s-20.667 -90.333 -36 -151c-22.667 -78.667 -41.334 -158.334 -56.001 -239.001c-8.66699 -44.667 -13 -86 -13 -124
c0 -30.667 4.33301 -67.334 13 -110.001s42.334 -72 101.001 -88zM204.999 703.003c3.33301 0.666992 7 1.00391 11 1.00391c3.33301 0 7.83301 -0.833008 13.5 -2.5s10.167 -4.83398 13.5 -9.50098c0.666992 -2.66699 1 -5 1 -7c0 -2.66699 -1.33301 -5.83398 -4 -9.50098
s-7.66699 -6.5 -15 -8.5c-58.667 -16.667 -94 -54.667 -106 -114c-5.33301 -26 -8 -54.333 -8 -85c0 -38 5.83301 -88.333 17.5 -151s28.834 -133.334 51.501 -212.001c15.333 -60.667 28.333 -115.334 39 -164.001c6.66699 -31.333 10 -58 10 -80c0 -12 -1 -22.667 -3 -32
c-4 -14.667 -14.667 -26 -32 -34c-14 -6.66699 -30.333 -10 -49 -10h-10c-22.667 2 -40.334 8.66699 -53.001 20c-10 8.66699 -15 18.334 -15 29.001c0 2.66699 0.333008 5.66699 1 9c2 11.333 3 24.333 3 39c0 44 -6.66699 102.667 -20 176c-13.333 84 -23 171.333 -29 262
c-1.33301 17.333 -2 34.666 -2 51.999c0 70.667 11.167 138 33.5 202s72.833 107 151.5 129z" />
    <glyph glyph-name="section" unicode="&#xa7;" horiz-adv-x="720" 
d="M177 141c-12.667 0 -25.333 1.00098 -38 3.00098c-79.333 14 -119 64.667 -119 152c0 28.667 5.66699 58.334 17 89.001c19.333 46 48.166 83.5 86.499 112.5s79.5 53.833 123.5 74.5c-82 80.667 -130.667 153.667 -146 219c-2.66699 11.333 -4 23 -4 35
c0 38.667 16.333 77.667 49 117c38 39.333 80 67.333 126 84c-22.667 40 -34 76.667 -34 110c0 39.333 16.667 78.666 50 117.999c46.667 51.333 105 84 175 98c18 4 35.333 6 52 6c28.667 0 59 -7.5 91 -22.5s53 -50.833 63 -107.5l1 -14c0 -14 -3.33301 -28.667 -10 -44
c-6 -12.667 -14.667 -19 -26 -19c-4.66699 0 -9.33398 1.33301 -14.001 4c-11.333 6 -17 16.333 -17 31c0 4.66699 1 9.33398 3 14.001v1c0 5.33301 -9.66699 8 -29 8c-20.667 0 -45.667 -4.16699 -75 -12.5s-56 -21.833 -80 -40.5c-29.333 -23.333 -44 -53.333 -44 -90
c0 -37.333 21.667 -84.333 65 -141c0.666992 -1.33301 4.33398 -5.5 11.001 -12.5l22 -23.5c19.333 -22.667 39 -43.167 59 -61.5s38.667 -36.833 56 -55.5c38.667 -38.667 58 -75.334 58 -110.001c0 -46 -35.667 -93 -107 -141
c-31.333 -20.667 -65.666 -36.667 -102.999 -48l11 -13c38.667 -38.667 58 -75.334 58 -110.001c0 -46 -35.667 -93 -107 -141c-73.333 -46 -148 -69 -224 -69zM153.001 321.001c6 0 17.332 0.666016 33.999 1.99902s39.667 6.5 69 15.5s54.333 21.167 75 36.5
s31 32.666 31 51.999v2c-5.33301 26.667 -22.666 53.334 -51.999 80.001l-18 18c-103.333 -48 -170 -104.333 -200 -169c-1.33301 -3.33301 -2 -6.66602 -2 -9.99902c0 -18 21 -27 63 -27zM292 633c32 0 66.667 5.66602 104 16.999c71.333 22 107 51.667 107 89v2
c-4.66699 26.667 -22 53.334 -52 80.001l-70 70c-32 -6.66699 -62.333 -19.667 -91 -39c-35.333 -24 -53 -56.333 -53 -97c0 -33.333 16.667 -74 50 -122h5z" />
    <glyph glyph-name="dieresis" unicode="&#xa8;" horiz-adv-x="398" 
d="M107 1700c9.33301 0 17.333 -3.33301 24 -10s10 -14.667 10 -24v-52c0 -9.33301 -3.33301 -17.333 -10 -24s-14.667 -10 -24 -10h-52c-10 0 -18.333 3.33301 -25 10s-10 14.667 -10 24v52c0 9.33301 3.33301 17.333 10 24s15 10 25 10h52zM314 1700
c9.33301 0 17.333 -3.33301 24 -10s10 -14.667 10 -24v-52c0 -9.33301 -3.33301 -17.333 -10 -24s-14.667 -10 -24 -10h-52c-10 0 -18.333 3.33301 -25 10s-10 14.667 -10 24v52c0 9.33301 3.33301 17.333 10 24s15 10 25 10h52z" />
    <glyph glyph-name="copyright" unicode="&#xa9;" horiz-adv-x="1066" 
d="M518 243c-92 0 -175.667 22.333 -251 67s-135.333 104.334 -180 179.001s-67 157.334 -67 248.001s22.333 173.334 67 248.001s104.667 134.334 180 179.001s159 67 251 67c91.333 0 174.666 -22.333 249.999 -67s135.5 -104.334 180.5 -179.001
s67.5 -157.334 67.5 -248.001s-22.5 -173.334 -67.5 -248.001s-105.167 -134.334 -180.5 -179.001s-158.666 -67 -249.999 -67zM518 311c78.667 0 150.5 19.167 215.5 57.5s116.833 89.833 155.5 154.5s58 136 58 214s-19.333 149.333 -58 214s-90.5 116.167 -155.5 154.5
s-136.833 57.5 -215.5 57.5c-79.333 0 -151.5 -19.167 -216.5 -57.5s-116.833 -89.833 -155.5 -154.5s-58 -136 -58 -214s19.333 -149.333 58 -214s90.5 -116.167 155.5 -154.5s137.167 -57.5 216.5 -57.5zM399 440c-61.333 0 -104.336 18.666 -129.003 55.999
c-16 23.333 -25.667 47.333 -29 72c-1.33301 12.667 -2 25.667 -2 39c0 73.333 19.333 149 58 227c46 92.667 109.667 161.334 191 206.001c36 19.333 75 29 117 29c41.333 0 73 -14 95 -42c13.333 -16.667 20.333 -39 21 -67c0 -24.667 -7.33301 -54.667 -22 -90
c-5.33301 -12 -14.333 -18 -27 -18c-4 0 -8 0.666992 -12 2c-12 5.33301 -18 14.333 -18 27c0 4 0.666992 8 2 12c10.667 26.667 16 48.667 16 66c0 14.667 -2.66699 25.667 -8 33c-12 14.667 -25 22 -39 22c-27.333 0 -58.666 -25.333 -93.999 -76
c-29.333 -41.333 -56.333 -89.333 -81 -144c-46 -103.333 -69 -180.333 -69 -231c0 -38.667 17.667 -58 53 -58c28 0 66 13.333 114 40c66.667 36.667 129 85.667 187 147c35.333 36.667 59 67 71 91c5.33301 12 14 18 26 18c4.66699 0 9 -1 13 -3
c12.667 -5.33301 19 -14.333 19 -27c0 -4 -0.833008 -7.5 -2.5 -10.5s-3.16699 -5.83301 -4.5 -8.5c-13.333 -26 -38.666 -58.833 -75.999 -98.5s-81.166 -78 -131.499 -115s-102.166 -64.833 -155.499 -83.5c-28.667 -10 -56.334 -15 -83.001 -15z" />
    <glyph glyph-name="ordfeminine" unicode="&#xaa;" horiz-adv-x="594" 
d="M323 1253c-20.667 2 -37.6699 12 -51.0029 30c-16.667 22 -25 46 -25 72v9l-12 -15c-24 -28.667 -46.333 -50.334 -67 -65.001c-26.667 -20.667 -50.667 -31 -72 -31c-21.333 2 -38.5 11.833 -51.5 29.5s-20.833 36.5 -23.5 56.5c-0.666992 8.66699 -1 17.334 -1 26.001
c0 52.667 14 107.334 42 164.001c32.667 66 78 115 136 147c25.333 13.333 53 20 83 20l16 -1c28.667 -3.33301 49 -18 61 -44c7.33301 9.33301 15 17.333 23 24c4.66699 3.33301 11 5 19 5c4 0 10.333 -0.666992 19 -2s18.334 -6.16602 29.001 -14.499s16 -18.833 16 -31.5
c0 -7.33301 -10.667 -32.333 -32 -75c-49.333 -106 -80.333 -182 -93 -228c-1.33301 -6.66699 -2 -12.667 -2 -18c0 -4.66699 1.66699 -7 5 -7c4 0 9 1.66699 15 5c22 14.667 46 37 72 67c30.667 36 55.334 75 74.001 117c4.66699 8.66699 11.334 13 20.001 13
c2.66699 0 5.66699 -0.666992 9 -2c8 -4 12 -10.667 12 -20c0 -2.66699 -0.666992 -5.33398 -2 -8.00098c-20 -46 -46.333 -88 -79 -126l-1 -1c-24.667 -28.667 -47 -50.334 -67 -65.001c-26.667 -20.667 -50.667 -31 -72 -31zM123.997 1310
c14 0 40.001 22.002 78.001 66.002c26 30 47.667 62 65 96c12 41.333 28.333 80.666 49 117.999c3.33301 11.333 5 21 5 29c0 9.33301 -2 16.666 -6 21.999c-8 10.667 -17 16 -27 16c-20.667 0 -43.334 -18 -68.001 -54c-42 -59.333 -74 -128 -96 -206
c-7.33301 -27.333 -11 -49 -11 -65c0 -14.667 3.66699 -22 11 -22z" />
    <glyph glyph-name="guillemotleft" unicode="&#xab;" horiz-adv-x="610" 
d="M149 695c28.667 -53.333 55.001 -104.996 79.001 -154.996c27.333 -58.667 59.333 -120.334 96 -185.001c3.33301 -6.66699 5 -13.334 5 -20.001c0 -4 -0.833008 -9.33301 -2.5 -16s-7.5 -13 -17.5 -19c-6.66699 -3.33301 -13.334 -5 -20.001 -5
c-3.33301 0 -8.5 0.833008 -15.5 2.5s-13.167 7.5 -18.5 17.5c-38.667 64 -76.667 122.333 -114 175c-38 53.333 -75.667 111.333 -113 174c-5.33301 9.33301 -8 18.666 -8 27.999v6c0 10.667 2.66699 20.334 8 29.001c37.333 62.667 75 120.667 113 174
c37.333 52.667 75.333 111 114 175c5.33301 9.33301 13.333 15.666 24 18.999c3.33301 0.666992 6.66602 1 9.99902 1c6.66699 0 13.334 -1.66699 20.001 -5c10 -6 16.333 -14.333 19 -25c0.666992 -3.33301 1 -6.66602 1 -9.99902c0 -6.66699 -1.66699 -13.334 -5 -20.001
c-36.667 -64.667 -68.667 -126.334 -96 -185.001c-24 -50.667 -50.333 -102.667 -79 -156zM540.001 1091c9.33301 -6 15.333 -14.3291 18 -24.9961c1.33301 -3.33301 2 -7 2 -11c0 -6 -2 -12.333 -6 -19c-36.667 -64.667 -68.667 -126.667 -96 -186
c-24 -50 -50.333 -101.667 -79 -155c28.667 -52.667 55 -104.334 79 -155.001c27.333 -58.667 59.333 -120.334 96 -185.001c4 -6.66699 6 -13.334 6 -20.001c0 -3.33301 -1 -8.5 -3 -15.5s-7.66699 -13.5 -17 -19.5c-6.66699 -3.33301 -13.334 -5 -20.001 -5
c-4 0 -9.33301 0.833008 -16 2.5s-13 7.5 -19 17.5c-38.667 64 -76.667 122.333 -114 175c-37.333 53.333 -75 111.333 -113 174c-5.33301 10 -8 20.333 -8 31c0 11.333 2.66699 22 8 32c38 62.667 75.667 120.667 113 174c38 52.667 76 111 114 175
c6 9.33301 14 15.666 24 18.999c3.33301 0.666992 7 1 11 1c6.66699 0 13.334 -1.66699 20.001 -5z" />
    <glyph glyph-name="logicalnot" unicode="&#xac;" horiz-adv-x="1429" 
d="M1361 236c6.66699 -1.33301 11.6689 -3.66797 15.002 -7.00098c2 -2 3 -4.33301 3 -7c0 -1.33301 -0.666992 -3 -2 -5c-2.66699 -4 -7 -6.66699 -13 -8c-4 -1.33301 -8 -2 -12 -2c-2.66699 0 -5.33398 0.333008 -8.00098 1c-70 15.333 -117 50.666 -141 105.999
c-21.333 49.333 -32 105 -32 167c0 6.66699 0.666992 29.667 2 69s7 91.333 17 156c8.66699 52.667 13 95.667 13 129c0 11.333 -0.666992 21.666 -2 30.999c-48.667 20.667 -111 31 -187 31c-2 0 -23.5 -0.166992 -64.5 -0.5s-108 -7.16602 -201 -20.499
s-184.5 -27.666 -274.5 -42.999c-85.333 -15.333 -162.333 -27.666 -231 -36.999c-46 -6 -85 -9 -117 -9c-16 0 -30.333 0.666992 -43 2c-20.667 3.33301 -36.667 12.333 -48 27c-10 13.333 -15 28.333 -15 45v8c2.66699 19.333 11.667 34.666 27 45.999
c12.667 9.33301 26.667 14 42 14c4 0 8 -0.333008 12 -1c15.333 -1.33301 32.666 -2 51.999 -2c62 0 146.667 6.33301 254 19c93.333 10 191.666 18.333 294.999 25c52 3.33301 102.333 5 151 5c49.333 0 108.833 -2.5 178.5 -7.5s135.167 -22.833 196.5 -53.5
c8 3.33301 17.333 5.33301 28 6c5.33301 0.666992 10.333 1 15 1c14 0 27.833 -2.66699 41.5 -8s22.5 -13.666 26.5 -24.999c2 -8.66699 3 -19 3 -31c0 -16 -3 -39 -9 -69s-15.333 -68.667 -28 -116c-17.333 -62 -31.666 -124 -42.999 -186c-5.33301 -29.333 -8 -57 -8 -83
c0 -28.667 4.66699 -60.667 14 -96s40.333 -59 93 -71z" />
    <glyph glyph-name="registered" unicode="&#xae;" horiz-adv-x="1066" 
d="M518 243c-91.333 0 -174.666 22.333 -249.999 67s-135.5 104.334 -180.5 179.001s-67.5 157.334 -67.5 248.001s22.5 173.334 67.5 248.001s105.167 134.334 180.5 179.001s158.666 67 249.999 67s174.833 -22.333 250.5 -67s135.834 -104.334 180.501 -179.001
s67 -157.334 67 -248.001s-22.333 -173.334 -67 -248.001s-104.834 -134.334 -180.501 -179.001s-159.167 -67 -250.5 -67zM518 311c79.333 0 151.5 19.167 216.5 57.5s116.833 89.833 155.5 154.5s58 136 58 214s-19.333 149.333 -58 214s-90.5 116.167 -155.5 154.5
s-137.167 57.5 -216.5 57.5c-78.667 0 -150.667 -19.167 -216 -57.5s-117.333 -89.833 -156 -154.5s-58 -136 -58 -214s19.333 -149.333 58 -214s90.667 -116.167 156 -154.5s137.333 -57.5 216 -57.5zM380 402c-3.33301 0 -6.66504 0.999023 -9.99805 2.99902
c-6.66699 3.33301 -15.334 16.333 -26.001 39c-16 32.667 -24 73.667 -24 123c0 47.333 11 109.666 33 186.999s59.333 155 112 233c2 2.66699 6 4 12 4c7.33301 0 16 -1.66699 26 -5c14 -6 21 -12.333 21 -19l-1 -3c-40 -59.333 -75 -133 -105 -221
c31.333 12.667 67.333 30.334 108 53.001c69.333 38 122.666 77.667 159.999 119c26 30.667 39 59.334 39 86.001c0 22.667 -14.333 37.334 -43 44.001c-8.66699 1.33301 -18 2 -28 2c-49.333 0 -111.333 -16.333 -186 -49c-10.667 -4.66699 -33.5 -16.834 -68.5 -36.501
s-67.833 -42.167 -98.5 -67.5c-27.333 -22 -41 -39.667 -41 -53c0 -10 10 -17.667 30 -23c5.33301 -2.66699 8 -6.66699 8 -12c0 -0.666992 -0.333008 -2 -1 -4s-2.16699 -3.66699 -4.5 -5s-4.5 -2 -6.5 -2h-3c-32 8.66699 -48 23.667 -48 45c0 8 2.66699 16.333 8 25
c19.333 34 67.666 73 144.999 117c36 20.667 59.333 33 70 37c0 0.666992 0.333008 1 1 1c78.667 34 143.334 51 194.001 51c55.333 0 91.333 -19 108 -57c5.33301 -12.667 8 -25.667 8 -39c0 -48 -31.667 -97 -95 -147c-69.333 -56 -149 -102 -239 -138l22 1
c12 0 23.333 -1.33301 34 -4c56 -16.667 93 -64 111 -142l6 -23c12.667 -63.333 32 -95 58 -95c7.33301 0 15.333 1.66699 24 5l5 1c1.33301 0 3.66602 -0.666992 6.99902 -2s5 -4.66602 5 -9.99902c0 -4.66699 -2.33301 -8.33398 -7 -11.001
c-13.333 -4.66699 -25.666 -7 -36.999 -7c-19.333 0 -35.666 7 -48.999 21c-24 25.333 -42.667 57.333 -56 96l-26 75c-16.667 48 -44 72 -82 72c-16 0 -35 -3.66699 -57 -11c-12 -48 -18 -90.333 -18 -127c0 -48 8.33301 -81.333 25 -100l1 -6l-1 -5
c-2.66699 -10.667 -9.33398 -16 -20.001 -16z" />
    <glyph glyph-name="macron" unicode="&#xaf;" horiz-adv-x="798" 
d="M739 1703c4 -2.66699 6.66992 -6.99902 8.00293 -12.999c0.666992 -3.33301 1 -6.66602 1 -9.99902s-0.333008 -7 -1 -11c-18 -68 -55 -112.333 -111 -133c-44 -16.667 -93 -25 -147 -25c-14.667 0 -44 1.83301 -88 5.5s-99 12.167 -165 25.5
c-60.667 12.667 -108.334 19 -143.001 19c-10 0 -19 -0.666992 -27 -2c-2 -0.666992 -4.33301 -1 -7 -1c-8.66699 0 -16.834 5.16699 -24.501 15.5s-12.5 25.166 -14.5 44.499v5c0 18 3.16699 34.167 9.5 48.5s15.166 23.166 26.499 26.499c6.66699 1.33301 14.667 2 24 2
c17.333 0 42 -3.83301 74 -11.5s72 -19.167 120 -34.5c62.667 -20 125.667 -37.333 189 -52c36.667 -8 70.667 -12 102 -12c22.667 0 50.5 3.33301 83.5 10s56.5 36 70.5 88c1.33301 6.66699 4 11.667 8 15c2 1.33301 4 2 6 2s4 -0.666992 6 -2z" />
    <glyph glyph-name="degree" unicode="&#xb0;" horiz-adv-x="368" 
d="M169 1700c40.667 0 75.667 -14.5 105 -43.5s44 -63.833 44 -104.5s-14.667 -75.5 -44 -104.5s-64.333 -43.5 -105 -43.5c-41.333 0 -76.5 14.5 -105.5 43.5s-43.5 63.833 -43.5 104.5s14.5 75.5 43.5 104.5s64.167 43.5 105.5 43.5zM169 1444c30 0 55.667 10.5 77 31.5
s32 46.5 32 76.5s-10.667 55.5 -32 76.5s-47 31.5 -77 31.5s-55.667 -10.5 -77 -31.5s-32 -46.5 -32 -76.5s10.667 -55.5 32 -76.5s47 -31.5 77 -31.5z" />
    <glyph glyph-name="plusminus" unicode="&#xb1;" horiz-adv-x="1069" 
d="M410 889l-64.002 -15.999c-61.333 -14.667 -116.666 -26.667 -165.999 -36c-32.667 -6 -60.334 -9 -83.001 -9c-11.333 0 -21.666 0.666992 -30.999 2c-14.667 3.33301 -26.334 12.333 -35.001 27c-7.33301 12.667 -11 26.334 -11 41.001c0 4 0.333008 7.66699 1 11
c2 20 8.33301 35.667 19 47c9.33301 8.66699 20 13 32 13h7c10.667 -1.33301 23 -2 37 -2c44.667 0 105.334 6.33301 182.001 19c38.667 5.33301 78.667 10.333 120 15c3.33301 30.667 6.33301 60 9 88c8 66.667 12 120.667 12 162c0 22 -1 40.667 -3 56
c-0.666992 3.33301 -1 6.66602 -1 9.99902c0 10.667 4.83301 20.834 14.5 30.501s24.167 16.167 43.5 19.5c4 0.666992 8 1 12 1c15.333 0 29.833 -3.66699 43.5 -11s22.834 -18 27.501 -32c2 -11.333 3 -24.666 3 -39.999c0 -20.667 -3 -50.334 -9 -89.001
s-15.333 -88.667 -28 -150c-2 -11.333 -4.33301 -22.333 -7 -33c28 2 55.333 3 82 3c66 0 132.5 -8.33301 199.5 -25s112.833 -61 137.5 -133c1.33301 -3.33301 2 -6.66602 2 -9.99902s-0.833008 -7.5 -2.5 -12.5s-5.16699 -8.83301 -10.5 -11.5
c-2 -0.666992 -4.33301 -1 -7 -1s-5.83398 1 -9.50098 3s-6.5 6.66699 -8.5 14c-13.333 40 -39.666 67 -78.999 81c-32 11.333 -69.333 17 -112 17c-10.667 0 -32.667 -1 -66 -3s-81.666 -9.66699 -144.999 -23c-12.667 -68 -20.667 -132.333 -24 -193
c-0.666992 -10.667 -1 -21.334 -1 -32.001c0 -47.333 7 -90.5 21 -129.5s42.333 -64.5 85 -76.5c7.33301 -2 12.666 -5.33301 15.999 -10c2 -2.66699 3 -5.33398 3 -8.00098c0 -2 -0.666992 -4.33301 -2 -7c-2.66699 -5.33301 -7 -9 -13 -11c-4 -1.33301 -8 -2 -12 -2
c-2.66699 0 -5.66699 0.333008 -9 1c-52 14 -90.833 43.333 -116.5 88s-42.167 98 -49.5 160c-4 39.333 -6 79.666 -6 120.999c0 24.667 0.666992 50 2 76zM142.998 340.001c10.667 -1.33301 23.001 -1.99902 37.001 -1.99902c44.667 0 105.334 6.33301 182.001 19
c84 13.333 172.333 23 265 29c20.667 1.33301 40.667 2 60 2c69.333 0 136.166 -9.33301 200.499 -28s107.833 -62 130.5 -130c1.33301 -3.33301 2 -7 2 -11c0 -3.33301 -0.833008 -7.33301 -2.5 -12s-5.16699 -8.33398 -10.5 -11.001
c-2.66699 -1.33301 -5.33398 -2 -8.00098 -2c-2 0 -4.83301 1.16699 -8.5 3.5s-6.5 6.83301 -8.5 13.5c-17.333 51.333 -56.333 82 -117 92c-24 4 -50 6 -78 6c-40.667 0 -93.5 -5.66699 -158.5 -17s-137.833 -27 -218.5 -47c-61.333 -15.333 -116.333 -27.666 -165 -36.999
c-32.667 -6 -60.667 -9 -84 -9c-11.333 0 -21.666 0.666992 -30.999 2c-14.667 3.33301 -26.334 12.666 -35.001 27.999c-6.66699 12.667 -10 27.334 -10 44.001v8c2 19.333 8.33301 34.666 19 45.999c9.33301 9.33301 19.666 14 30.999 14
c2.66699 0 5.33398 -0.333008 8.00098 -1z" />
    <glyph glyph-name="uni00B2" unicode="&#xb2;" horiz-adv-x="705" 
d="M615 817c-6 0 -10.666 3.00586 -13.999 9.00586c-17.333 29.333 -79.333 44 -186 44c-26 0 -53.333 -1 -82 -3c-118 -8.66699 -199.667 -21.334 -245 -38.001c-8 -7.33301 -17.333 -11 -28 -11c-12 0 -21.667 4.33301 -29 13s-11 18.667 -11 30
c5.33301 40.667 30.166 82.167 74.499 124.5s97.833 86.5 160.5 132.5c110 82 190.333 151.667 241 209c30 34 54.667 72.333 74 115c17.333 37.333 26 72.666 26 105.999c0 37.333 -12.667 66.666 -38 87.999s-64 32 -116 32c-36.667 0 -74 -5.66699 -112 -17
c-46.667 -13.333 -87.667 -32.5 -123 -57.5s-58.333 -52.5 -69 -82.5v-1c-2 -8.66699 -3 -16.667 -3 -24c0 -13.333 3.33301 -25.333 10 -36c10.667 -16.667 23.667 -27.334 39 -32.001h1c8 -3.33301 12 -8.33301 12 -15c0 -2 -0.5 -4.33301 -1.5 -7
s-3.16699 -4.83398 -6.5 -6.50098s-6 -2.5 -8 -2.5l-6 1c-22.667 7.33301 -41.667 22.666 -57 45.999c-10 15.333 -15 32.333 -15 51l5 36c12.667 35.333 38.5 67.166 77.5 95.499s84.167 49.833 135.5 64.5c40 12 79 18 117 18c60.667 0 108.667 -12.333 144 -37
c48.667 -34.667 73 -85.667 73 -153c0 -77.333 -30 -152.333 -90 -225c-57.333 -66 -144.333 -142 -261 -228c-50.667 -38.667 -94.667 -74.167 -132 -106.5s-60.333 -60.166 -69 -83.499c56 14 132 24.667 228 32c28 2 55.333 3 82 3c30 0 65.167 -2 105.5 -6
s72.5 -16 96.5 -36c10.667 -10.667 16 -19.667 16 -27c0 -10 -5.33301 -15 -16 -15z" />
    <glyph glyph-name="uni00B3" unicode="&#xb3;" horiz-adv-x="684" 
d="M145 819c-28 0 -52.665 5.00586 -73.998 15.0059c-34 15.333 -51 49.333 -51 102c0 12.667 1 26.334 3 41.001c2.66699 8.66699 8 13 16 13c10.667 0 16 -5.33301 16 -16v-3c-2 -12.667 -3 -24.334 -3 -35.001c0 -40 12.667 -64.333 38 -73c10.667 -4 22.667 -6 36 -6
c26 0 61.167 9.66699 105.5 29s94 49.666 149 90.999s100.833 84.166 137.5 128.499s55 82.166 55 113.499c0 30 -21 49.667 -63 59c-14 2 -27.667 3 -41 3c-30 0 -62 -6.33301 -96 -19s-70.5 -30.167 -109.5 -52.5s-78.833 -40.833 -119.5 -55.5
c-4 -1.33301 -7.66699 -2 -11 -2c-6 0 -12.667 2 -20 6c-12 6.66699 -18 17.667 -18 33c0 18 8.66699 30 26 36c36.667 12 88 35.5 154 70.5s128.333 76.5 187 124.5c47.333 39.333 80.666 79.666 99.999 120.999c10 21.333 15 41.333 15 60
c0 31.333 -19.333 51.666 -58 60.999c-10.667 2 -22.334 3 -35.001 3c-65.333 0 -148.333 -23 -249 -69l-6 -1c-10.667 0 -16 5.66699 -16 17c0 6 3.33301 10.667 10 14c104.667 48 192 72 262 72c12 0 23.333 -1 34 -3c53.333 -10.667 88.333 -36 105 -76
c6.66699 -17.333 10 -35.333 10 -54c0 -40 -16.333 -82.333 -49 -127c-31.333 -39.333 -78.333 -82 -141 -128l30 1c12.667 0 25 -0.666992 37 -2c57.333 -10.667 94.666 -36 111.999 -76c6.66699 -16.667 10 -33.334 10 -50.001c0 -33.333 -15.667 -72.5 -47 -117.5
s-80.166 -90 -146.499 -135s-133.5 -77.833 -201.5 -98.5c-34 -10 -65 -15 -93 -15z" />
    <glyph glyph-name="acute" unicode="&#xb4;" horiz-adv-x="229" 
d="M92 1694c3.33301 3.33301 7.66699 5.00098 13 5.00098c3.33301 0 8.33301 -0.833008 15 -2.5s15.5 -6.16699 26.5 -13.5s19.833 -15 26.5 -23c4 -5.33301 6 -10 6 -14c0 -2 -0.666992 -4 -2 -6c-8.66699 -12 -21 -25 -37 -39c-22 -18 -43.667 -42.333 -65 -73
c-4.66699 -7.33301 -10.667 -12 -18 -14h-6c-6 0 -11.667 1.33301 -17 4c-7.33301 4.66699 -12 11 -14 19v6c0 5.33301 1.33301 10.666 4 15.999c16.667 28 30.667 55.333 42 82c9.33301 21.333 18 39 26 53z" />
    <glyph glyph-name="mu" unicode="&#xb5;" horiz-adv-x="655" 
d="M600 1257c3.33301 -13.333 4.99805 -30.335 4.99805 -51.002c0 -14 -1.33301 -35.5 -4 -64.5s-7.66699 -69.833 -15 -122.5c-9.33301 -58.667 -16.666 -118 -21.999 -178c-2.66699 -30 -4 -58.667 -4 -86c0 -26.667 1.33301 -52.334 4 -77.001
c0.666992 -3.33301 1 -6.66602 1 -9.99902c0 -6 -1.66699 -11.833 -5 -17.5s-8.66602 -9.5 -15.999 -11.5c-2.66699 -0.666992 -5.33398 -1 -8.00098 -1c-4 0 -8.66699 1.33301 -14 4s-9.66602 8.33398 -12.999 17.001c-6 21.333 -11 43.666 -15 66.999
c-33.333 -57.333 -76 -97 -128 -119c-24 -10.667 -47.333 -16 -70 -16c-26.667 0 -52.334 7.33301 -77.001 22c0.666992 -16.667 1 -33 1 -49c0 -65.333 -3.66699 -131.5 -11 -198.5s-23.166 -126.667 -47.499 -179s-60.166 -87.166 -107.499 -104.499
c-2.66699 -0.666992 -5.33398 -1 -8.00098 -1c-4 0 -8.5 1.16699 -13.5 3.5s-8.5 6.83301 -10.5 13.5c-1.33301 2.66699 -2 5.66699 -2 9s1.16699 7.33301 3.5 12s7.16602 8.33398 14.499 11.001c50 20 81 68.667 93 146c6 40 9 84 9 132c0 44.667 -4 106.334 -12 185.001
s-20.333 170.667 -37 276c-12.667 80 -22.667 152 -30 216c-4 35.333 -6 66.333 -6 93c0 21.333 1.33301 39.666 4 54.999c3.33301 19.333 12.666 34 27.999 44c11.333 8 24 12 38 12c4 0 8.33301 -0.333008 13 -1c18.667 -3.33301 33.334 -12.333 44.001 -27
c8 -12 12 -25 12 -39c0 -4 -0.333008 -8 -1 -12c-2.66699 -20.667 -4 -46 -4 -76c0 -54 4 -123.667 12 -209l10 -134c14.667 -78 43.334 -118.667 86.001 -122l11 -1c39.333 0 77.666 20.667 114.999 62s57 92.333 59 153v6c0.666992 56.667 2 110.334 4 161.001
c2.66699 35.333 4 66.333 4 93c0 39.333 -2.66699 69.666 -8 90.999c-0.666992 3.33301 -1 6.33301 -1 9c0 9.33301 3.66699 18.333 11 27s19.333 14.667 36 18c5.33301 0.666992 10.333 1 15 1c10.667 0 21.834 -2.5 33.501 -7.5s19.5 -13.167 23.5 -24.5z" />
    <glyph glyph-name="paragraph" unicode="&#xb6;" horiz-adv-x="844" 
d="M732 1192c31.333 -61.333 50.3252 -138.001 56.9922 -230.001c3.33301 -46 5 -93.333 5 -142s-2.5 -111.5 -7.5 -188.5s-12.833 -161.833 -23.5 -254.5c-12 -104.667 -18 -187.667 -18 -249c0 -20.667 0.666992 -38.667 2 -54v-9c0 -16 -5 -31.167 -15 -45.5
s-25 -22.833 -45 -25.5h-9c-16 0 -31.167 5.33301 -45.5 16s-23.166 26 -26.499 46c-1.33301 12.667 -2 27 -2 43c0 32 4 76.333 12 133s19.333 127.334 34 212.001c16.667 89.333 31.5 180.166 44.5 272.499s19.833 177.833 20.5 256.5v7c0 75.333 -10.333 137 -31 185
c-9.33301 1.33301 -19.666 2 -30.999 2c-33.333 0 -76.666 -4.33301 -129.999 -13c-48.667 -6.66699 -100 -12 -154 -16c-20.667 -2 -41 -3 -61 -3c-32 0 -63 2.33301 -93 7c28.667 -60 47 -133.667 55 -221c4.66699 -56 7 -114.333 7 -175
c0 -32.667 -1.33301 -81.5 -4 -146.5s-7.66699 -141.167 -15 -228.5c-8 -88 -12 -160.333 -12 -217c0 -30.667 1.33301 -56.667 4 -78c0.666992 -4 1 -8 1 -12c0 -15.333 -4.83301 -29.666 -14.5 -42.999s-24.167 -22 -43.5 -26c-4.66699 -0.666992 -9.33398 -1 -14.001 -1
c-14 0 -27.833 4.66699 -41.5 14s-22.5 24 -26.5 44c-2.66699 16 -4 35.333 -4 58c0 27.333 3 66.666 9 117.999s15.333 118.666 28 201.999c25.333 151.333 42 298.333 50 441c-11.333 -18.667 -25.666 -30 -42.999 -34h-6c-24 0 -47 14.833 -69 44.5s-38 70.167 -48 121.5
c-4 22.667 -6 43.667 -6 63c0 23.333 3.83301 48.833 11.5 76.5s22.834 46.167 45.501 55.5c-29.333 25.333 -48.666 61.333 -57.999 108c-0.666992 4 -1 7.66699 -1 11s0.666992 7.33301 2 12s4 8.33398 8 11.001c1.33301 0.666992 3 1 5 1s4.5 -1.16699 7.5 -3.5
s5.16699 -7.16602 6.5 -14.499c12 -52 41 -84 87 -96c24 -6 50.333 -9 79 -9c26.667 0 63.334 4 110.001 12s101.334 20.667 164.001 38c48 12.667 91 23 129 31c20.667 4 39 6 55 6c12.667 0 23.667 -1.33301 33 -4c11.333 -4 20 -13.667 26 -29c5.33301 -12 8 -25 8 -39
c0 -4 -0.333008 -8.33301 -1 -13c-1.33301 -10.667 -3.66602 -20 -6.99902 -28z" />
    <glyph glyph-name="periodcentered" unicode="&#xb7;" horiz-adv-x="256" 
d="M113 904c25.333 0 47.166 -9 65.499 -27s27.5 -39.667 27.5 -65s-9.16699 -47 -27.5 -65s-40.166 -27 -65.499 -27c-26 0 -48 9 -66 27s-27 39.667 -27 65s9 47 27 65s40 27 66 27z" />
    <glyph glyph-name="periodcentered" unicode="&#x2219;" horiz-adv-x="256" 
d="M113 904c25.333 0 47.166 -9 65.499 -27s27.5 -39.667 27.5 -65s-9.16699 -47 -27.5 -65s-40.166 -27 -65.499 -27c-26 0 -48 9 -66 27s-27 39.667 -27 65s9 47 27 65s40 27 66 27z" />
    <glyph glyph-name="cedilla" unicode="&#xb8;" horiz-adv-x="419" 
d="M277 -244c42 -16 70.335 -45 85.002 -87c4.66699 -14 7 -27.667 7 -41c0 -22 -6.33301 -43.333 -19 -64c-16.667 -24 -39.667 -43.333 -69 -58s-59.666 -22 -90.999 -22c-8 0 -16 0.666992 -24 2c-41.333 6 -72.5 17.167 -93.5 33.5s-34.833 33 -41.5 50
s-10.334 29.833 -11.001 38.5v8c0 21.333 5 41.333 15 60s24.667 31 44 37c3.33301 1.33301 6.66602 2 9.99902 2c4.66699 0 10 -1.66699 16 -5s10.667 -9.33301 14 -18c1.33301 -3.33301 2 -6.66602 2 -9.99902c0 -4.66699 -1.66699 -10 -5 -16s-9.33301 -10.667 -18 -14
c-2.66699 -0.666992 -6 -4.66699 -10 -12c-2.66699 -6 -4 -13.333 -4 -22v-5c5.33301 -34.667 35.666 -56 90.999 -64c4.66699 -0.666992 9.66699 -1 15 -1c18 0 37.333 4.33301 58 13s36.667 21.334 48 38.001c6 9.33301 9 18.333 9 27s-1 16.334 -3 23.001
c-8.66699 22 -24.334 37.667 -47.001 47c-10 4.66699 -26.333 7 -49 7h-13c-6 0 -11.333 1.33301 -16 4s-8 6 -10 10c-3.33301 6 -5 12 -5 18s1.66699 12 5 18c30 44.667 61.333 84.667 94 120c6.66699 6.66699 14.334 10 23.001 10c8 0 15.333 -3 22 -9
c6.66699 -6.66699 10 -14.334 10 -23.001s-3 -16.334 -9 -23.001c-18 -18.667 -36 -40.334 -54 -65.001c9.33301 -2 17.333 -4.33301 24 -7z" />
    <glyph glyph-name="uni00B9" unicode="&#xb9;" horiz-adv-x="390" 
d="M125 817c-5.33301 0 -10.332 1.33105 -14.999 3.99805c-32 15.333 -52.667 42.333 -62 81c-6 24 -9 51 -9 81c0 75.333 22 182.333 66 321c23.333 72.667 49.333 148.667 78 228l-20 -24c-40.667 -46.667 -82.667 -73.667 -126 -81c-10 0 -15.667 4.66699 -17 14
c0 10 5 15.667 15 17c52 10.667 105 58.334 159 143.001c21.333 34 32 58.333 32 73v4c7.33301 6.66699 20.5 11.834 39.5 15.501s35.5 5.5 49.5 5.5c16.667 0 25 -2.33301 25 -7c0 -2 -0.5 -4.33301 -1.5 -7s-1.83301 -5.33398 -2.5 -8.00098
c-14.667 -44 -36.334 -102.333 -65.001 -175c-103.333 -249.333 -155 -429 -155 -539c0 -56 14 -96 42 -120c1.33301 -1.33301 2 -2.66602 2 -3.99902c0 -4 -4.16699 -8.66699 -12.5 -14s-15.833 -8 -22.5 -8z" />
    <glyph glyph-name="ordmasculine" unicode="&#xba;" horiz-adv-x="707" 
d="M279 798c-58.667 0 -109.001 17.666 -151.001 52.999c-72 62 -108 157 -108 285c0 50.667 6.66699 102.334 20 155.001c27.333 110 74.666 204.333 141.999 283c37.333 43.333 80.333 76.333 129 99c36 17.333 74.667 26 116 26c14.667 0 29.334 -1 44.001 -3
c76 -11.333 130.333 -64 163 -158c15.333 -48.667 23 -101.334 23 -158.001c0 -105.333 -22.333 -210.666 -67 -315.999c-37.333 -88 -86.666 -157.333 -147.999 -208c-50 -38.667 -104.333 -58 -163 -58zM298.999 832.999c42.667 0 83.333 15.332 122 45.999
c57.333 46.667 104 112.334 140 197.001c42.667 101.333 64 203.666 64 306.999c0 52.667 -7 101 -21 145c-32 87.333 -76.333 133 -133 137l-23 1c-74.667 0 -142.667 -40 -204 -120c-56 -73.333 -97 -160.666 -123 -261.999c-13.333 -52.667 -20 -103.667 -20 -153
c0 -100.667 25 -180.667 75 -240c34 -38.667 75 -58 123 -58z" />
    <glyph glyph-name="guillemotright" unicode="&#xbb;" horiz-adv-x="610" 
d="M431 695c-28.667 53.333 -54.999 105.329 -78.999 155.996c-27.333 58.667 -59.333 120.334 -96 185.001c-4 6.66699 -6 13.334 -6 20.001c0 3.33301 0.666992 6.66602 2 9.99902c2.66699 10.667 9 19 19 25c6.66699 3.33301 13.334 5 20.001 5
c3.33301 0 6.66602 -0.333008 9.99902 -1c10.667 -3.33301 18.667 -9.66602 24 -18.999c38.667 -64 76.667 -122.333 114 -175c38 -53.333 75.667 -111.333 113 -174c5.33301 -8.66699 8 -18.334 8 -29.001v-6c0 -9.33301 -2.66699 -18.666 -8 -27.999
c-37.333 -62.667 -75 -120.667 -113 -174c-37.333 -52.667 -75.333 -111 -114 -175c-5.33301 -10 -11.5 -15.833 -18.5 -17.5s-12.167 -2.5 -15.5 -2.5c-6.66699 0 -13.334 1.66699 -20.001 5c-10 6 -16 12.333 -18 19s-3 12 -3 16c0 6.66699 2 13.334 6 20.001
c36.667 64.667 68.667 126.334 96 185.001c24 50 50.333 101.667 79 155zM40.001 1091c6.66699 3.33301 13.334 4.99609 20.001 4.99609c3.33301 0 7 -0.333008 11 -1c10 -3.33301 18 -9.66602 24 -18.999c38 -64 76 -122.333 114 -175c37.333 -53.333 75 -111.333 113 -174
c5.33301 -10 8 -20.667 8 -32c0 -10.667 -2.66699 -21 -8 -31c-38 -62.667 -75.667 -120.667 -113 -174c-37.333 -52.667 -75.333 -111 -114 -175c-6 -10 -12.5 -15.833 -19.5 -17.5s-12.167 -2.5 -15.5 -2.5c-6.66699 0 -13.334 1.66699 -20.001 5
c-9.33301 6 -15 12.5 -17 19.5s-3 12.167 -3 15.5c0 6.66699 2 13.334 6 20.001c36.667 64.667 68.667 126.334 96 185.001c24 50.667 50.333 102.334 79 155.001c-28.667 53.333 -55 105 -79 155c-27.333 59.333 -59.333 121.333 -96 186c-4 6.66699 -6 13 -6 19
c0 4 0.666992 7.66699 2 11c2.66699 10.667 8.66699 19 18 25z" />
    <glyph glyph-name="onequarter" unicode="&#xbc;" horiz-adv-x="993" 
d="M57 -242c-10 0 -18.3311 3.16602 -24.998 9.49902s-10.334 13.833 -11.001 22.5l-1 46c0 192 54.667 394.667 164 608c51.333 100.667 106 200 164 298c55.333 92.667 108 187.334 158 284.001c109.333 212.667 164 412.667 164 600v14c0 10 3.16699 18.167 9.5 24.5
s14.166 9.83301 23.499 10.5c10 0 18.333 -3.16699 25 -9.5s10 -13.5 10 -21.5v-22c0 -193.333 -56.333 -400.333 -169 -621c-51.333 -100 -105.333 -197.667 -162 -293c-58.667 -99.333 -113 -197.666 -163 -294.999c-104 -203.333 -156 -394.333 -156 -573l1 -49
c0 -8 -2.83301 -15.333 -8.5 -22s-13.5 -10.334 -23.5 -11.001zM245.002 804.999c-5.33301 0 -10.332 1.33105 -14.999 3.99805c-32 15.333 -52.667 42.333 -62 81c-6 24 -9 51 -9 81c0 78.667 22 185.667 66 321c23.333 72.667 49.333 148.667 78 228l-20 -24
c-40.667 -46.667 -82.667 -73.667 -126 -81c-10 0 -15.667 4.66699 -17 14c0 10 5 15.667 15 17c52 10.667 105 58.334 159 143.001c21.333 34 32 58.333 32 73v4c7.33301 6.66699 20.5 11.834 39.5 15.501s35.5 5.5 49.5 5.5c16.667 0 25 -2.33301 25 -7
c0 -2 -0.5 -4.33301 -1.5 -7s-1.83301 -5.33398 -2.5 -8.00098c-14.667 -44 -36.334 -102.333 -65.001 -175c-103.333 -249.333 -155 -429 -155 -539c0 -56 14 -96 42 -120c1.33301 -1.33301 2 -2.66602 2 -3.99902c0 -4 -4.16699 -8.66699 -12.5 -14s-15.833 -8 -22.5 -8z
M727.003 -240.003c-4.66699 0 -9.33594 0.998047 -14.0029 2.99805c-47.333 22.667 -71 75.667 -71 159c0 66 14.333 148.333 43 247h-4c-49.333 -8.66699 -92.666 -13 -129.999 -13c-51.333 0 -89.666 9.66699 -114.999 29c-36 26 -54 78 -54 156c0 40 6.66699 89 20 147
c24.667 104 46.334 156 65.001 156c12 0 24 -2 36 -6c24.667 -8.66699 37 -17.334 37 -26.001l-1 -4c-12 -7.33301 -25.5 -29.666 -40.5 -66.999s-27.833 -80.333 -38.5 -129c-9.33301 -43.333 -14 -83.333 -14 -120c0 -38 5.83301 -65 17.5 -81s40.167 -24 85.5 -24
c34 0 79.333 4.66699 136 14c2.66699 0.666992 5.66699 1 9 1c28.667 93.333 57 178 85 254c33.333 88.667 50 144.334 50 167.001v1c7.33301 6.66699 21.333 12 42 16c17.333 3.33301 33 5 47 5c16.667 0 25 -2.33301 25 -7c0 -2 -0.666992 -5 -2 -9l-2 -6
c-14 -44.667 -35.667 -103.5 -65 -176.5s-58.333 -150.5 -87 -232.5c10.667 1.33301 20.667 2 30 2c30 0 52.667 -6 68 -18c3.33301 -3.33301 5.33301 -7 6 -11c0 -4 -1.5 -7.66699 -4.5 -11s-7.16699 -5 -12.5 -5c-4 0 -7.33301 1.33301 -10 4
c-9.33301 6.66699 -25 10 -47 10c-12 0 -25.667 -1 -41 -3c-38 -114.667 -57 -205.667 -57 -273c0 -59.333 14 -100.333 42 -123c1.33301 -1.33301 2 -2.66602 2 -3.99902c0 -4.66699 -4 -9.5 -12 -14.5s-16 -7.5 -24 -7.5z" />
    <glyph glyph-name="onehalf" unicode="&#xbd;" horiz-adv-x="937" 
d="M57 -242c-10 0 -18.168 3.16699 -24.501 9.5s-10.166 13.833 -11.499 22.5l-1 46c0 191.333 54.667 394 164 608c51.333 101.333 106 200.666 164 297.999c55.333 92.667 108 187.334 158 284.001c109.333 212.667 164 412.667 164 600v14c0 10 3.16699 18.167 9.5 24.5
s14.5 9.83301 24.5 10.5c9.33301 0 17.333 -3.16699 24 -9.5s10 -13.5 10 -21.5v-22c0 -193.333 -56.333 -400.333 -169 -621c-51.333 -100 -105.333 -197.667 -162 -293c-58.667 -99.333 -113 -197.666 -163 -294.999c-104 -203.333 -156 -394.333 -156 -573l1 -49
c0 -8 -2.83301 -15.333 -8.5 -22s-13.5 -10.334 -23.5 -11.001zM243.999 805c-4.66699 0 -9.33301 1.33008 -14 3.99707c-32 15.333 -52.667 42.333 -62 81c-6 24 -9 51 -9 81c0 30.667 5 73 15 127s27.167 118.833 51.5 194.5s47.833 144.834 70.5 207.501l7 20l-20 -24
c-40.667 -46.667 -82.667 -73.667 -126 -81c-10 0 -15.667 4.66699 -17 14c0 10 5 15.667 15 17c52 10.667 105 58.334 159 143.001c21.333 34 32 58.333 32 73v4c7.33301 6.66699 20.5 11.834 39.5 15.501s35.5 5.5 49.5 5.5c16.667 0 25 -2.33301 25 -7
c0 -2 -0.5 -4.33301 -1.5 -7s-1.83301 -5.33398 -2.5 -8.00098c-14.667 -44 -36.334 -102 -65.001 -174c-40 -98.667 -77.667 -202 -113 -310c-28 -88 -42 -164.667 -42 -230c0 -56 14 -96 42 -120c1.33301 -1.33301 2 -2.66602 2 -3.99902
c0 -4 -4.16699 -8.66699 -12.5 -14s-16.166 -8 -23.499 -8zM847 -240.003c-6.66699 0 -11 2.50684 -13 7.50684s-4.66699 8.83301 -8 11.5c-26.667 23.333 -86 35 -178 35c-26 0 -53.333 -1 -82 -3c-120.667 -8.66699 -202.334 -21.667 -245.001 -39
c-8 -6.66699 -17.333 -10 -28 -10c-12 0 -21.667 4.16699 -29 12.5s-11 17.166 -11 26.499v3c5.33301 41.333 30.166 83 74.499 125s97.833 86.333 160.5 133c110 82 190.333 151.667 241 209c30 33.333 54.667 71.666 74 114.999c16.667 38 25 74 25 108
c0 35.333 -12.667 63.833 -38 85.5s-63.666 32.5 -114.999 32.5c-36.667 0 -74.334 -5.66699 -113.001 -17c-46.667 -14 -87.5 -33.333 -122.5 -58s-57.833 -52 -68.5 -82v-1c-2 -8.66699 -3 -16.667 -3 -24c0 -13.333 3.33301 -25.333 10 -36
c10.667 -16.667 23.667 -27.667 39 -33h1c7.33301 -2.66699 11 -7.33398 11 -14.001l-1 -5c-2 -8 -6.66699 -12 -14 -12c-2 0 -3.33301 0.333008 -4 1l-2 1c-23.333 7.33301 -42.333 22.666 -57 45.999c-10 16 -15 33.667 -15 53c0 10 1.33301 20.667 4 32l1 2
c12 34.667 37.667 66.167 77 94.5s84.333 50.166 135 65.499c42 12 83 18 123 18c56.667 0 103 -12.667 139 -38c48 -34.667 72 -85.334 72 -152.001c0 -78 -30 -153 -90 -225c-56 -64.667 -142.667 -141 -260 -229c-50.667 -38 -94.667 -73.167 -132 -105.5
s-60.666 -60.5 -69.999 -84.5c56 14.667 132.333 25.667 229 33c28 2 55 3 81 3c30 0 65.167 -2 105.5 -6s72.5 -16.333 96.5 -37c11.333 -10 17 -18.667 17 -26c0 -2 -0.666992 -4.33301 -2 -7s-3.66602 -4.83398 -6.99902 -6.50098s-6 -2.5 -8 -2.5z" />
    <glyph glyph-name="threequarters" unicode="&#xbe;" horiz-adv-x="1015" 
d="M157 -242c-10 0 -18.3311 3.16602 -24.998 9.49902s-10.334 13.833 -11.001 22.5l-1 46c0 192 54.667 394.667 164 608c51.333 100.667 106 200 164 298c55.333 92.667 108 187.334 158 284.001c109.333 212.667 164 412.667 164 600v14c0 10 3.16699 18.167 9.5 24.5
s14.166 9.83301 23.499 10.5c23.333 0 35 -15.667 35 -47c0 -197.333 -56.333 -406.333 -169 -627c-51.333 -100 -105.333 -197.667 -162 -293c-58.667 -99.333 -113 -197.666 -163 -294.999c-104 -203.333 -156 -394.333 -156 -573l1 -49c0 -8 -2.83301 -15.333 -8.5 -22
s-13.5 -10.334 -23.5 -11.001zM365.002 788.999c-4.66699 0 -8.99902 1.00293 -12.999 3.00293c-47.333 22.667 -71 75.667 -71 159c0 63.333 14 145.666 42 246.999l-41 -6c-34.667 -5.33301 -66.667 -8 -96 -8c-48 0 -85.333 9.66699 -112 29
c-36 27.333 -54 78.666 -54 153.999c0 41.333 7 91 21 149c24 104.667 46.333 157 67 157c10 -0.666992 21 -2.66699 33 -6c25.333 -8.66699 38 -18 38 -28l-1 -3c-12.667 -6.66699 -26.334 -28.667 -41.001 -66c-34.667 -84.667 -52 -167.334 -52 -248.001
c0 -39.333 6 -66.833 18 -82.5s41 -23.5 87 -23.5c27.333 0 56.666 2.33301 87.999 7l55 8c28 93.333 56.333 178 85 254c33.333 90.667 50 146.334 50 167.001c7.33301 6.66699 20.5 12 39.5 16s37.833 6 56.5 6c12 -1.33301 18 -3.66602 18 -6.99902
c0 -2.66699 -0.666992 -5.33398 -2 -8.00098s-2.33301 -5 -3 -7c-14 -44.667 -35.667 -103.5 -65 -176.5s-58.333 -150.5 -87 -232.5c10.667 1.33301 20.667 2 30 2c30.667 0 53.667 -6 69 -18c3.33301 -3.33301 5 -7 5 -11c0 -10.667 -5.66699 -16 -17 -16
c-3.33301 0 -6.33301 1 -9 3c-9.33301 6.66699 -25 10 -47 10c-12 0 -26 -1 -42 -3c-38 -116.667 -57 -208 -57 -274c0 -56.667 14 -97.334 42 -122.001c1.33301 -1.33301 2 -2.66602 2 -3.99902c0 -4.66699 -4.16699 -9.33398 -12.5 -14.001s-16.166 -7 -23.499 -7z
M474.003 -239.998c-82 0 -123 38.667 -123 116c0 12.667 1 26.667 3 42c1.33301 8.66699 6.33301 13 15 13c10.667 0 16 -5.33301 16 -16v-2c-2 -13.333 -3 -25.333 -3 -36c0 -40 12.667 -64.333 38 -73c10.667 -4 22.334 -6 35.001 -6c26 0 61.333 9.66699 106 29
s94.5 49.833 149.5 91.5s100.833 84.5 137.5 128.5s55 82 55 114c0 30 -20.667 49.333 -62 58c-14.667 2.66699 -29 4 -43 4c-29.333 0 -61 -6.33301 -95 -19s-70.5 -30.167 -109.5 -52.5s-78.833 -40.833 -119.5 -55.5c-4 -1.33301 -8 -2 -12 -2
c-5.33301 0 -11.666 1.66699 -18.999 5c-11.333 6.66699 -17 17.667 -17 33c0 17.333 8.66699 29.666 26 36.999c36 12 87 35.333 153 70s128.667 76.334 188 125.001c76 65.333 114 124.666 114 177.999v7c0 28 -19 46.667 -57 56c-10.667 2 -22.334 3 -35.001 3
c-66 0 -149 -23 -249 -69l-6 -1c-2 0 -4.5 0.666992 -7.5 2s-5.16699 3.5 -6.5 6.5s-2 5.5 -2 7.5c0 6.66699 3 11.667 9 15c103.333 48 189.666 72 258.999 72c13.333 0 26 -1 38 -3c53.333 -10 88 -35.333 104 -76c7.33301 -17.333 11 -35.333 11 -54
c0 -40 -16.667 -82.333 -50 -127c-36 -44.667 -83 -87 -141 -127l27 1c14 0 27.333 -1 40 -3c57.333 -10 95 -35.333 113 -76c6 -16 9 -32.333 9 -49c0 -33.333 -15.5 -72.666 -46.5 -117.999s-79.833 -90.5 -146.5 -135.5s-134 -77.5 -202 -97.5
c-34.667 -10.667 -66 -16 -94 -16z" />
    <glyph glyph-name="questiondown" unicode="&#xbf;" horiz-adv-x="1109" 
d="M500 -173c-112.667 1.33301 -209.331 33.6689 -289.998 97.002c-72.667 56.667 -125.667 127.334 -159 212.001c-20.667 54.667 -31 111 -31 169c0 32.667 6.16699 80.667 18.5 144s58.166 135.666 137.499 216.999c61.333 60 157 128.333 287 205
c67.333 39.333 128 81.5 182 126.5s87 97.167 99 156.5c2 10 3 20 3 30c0 54 -25.333 117.333 -76 190c-8 10 -12 19 -12 27c0 2.66699 0.5 7 1.5 13s4.66699 11.333 11 16s12.5 7 18.5 7c12.667 0 22 -5 28 -15l5 -7c65.333 -93.333 98 -182.666 98 -267.999
c0 -6.66699 -1.66699 -34.334 -5 -83.001s-33.833 -110.334 -91.5 -185.001s-128.167 -137.667 -211.5 -189c-80.667 -46 -153.334 -98.333 -218.001 -157c-98 -101.333 -147 -210.333 -147 -327c0 -70.667 24 -137.5 72 -200.5s132.667 -99.5 254 -109.5h28
c102 0 197.667 25.667 287 77c84 48 144 116 180 204c7.33301 20.667 11 43.334 11 68.001c0 18.667 -3.66699 45.167 -11 79.5s-31.333 57.166 -72 68.499c-15.333 3.33301 -27.333 11 -36 23c-6 10.667 -9 22 -9 34c0 19.333 7.33301 35 22 47c10 6.66699 20.667 10 32 10
l9 -1c96 -20.667 144 -88.334 144 -203.001c0 -3.33301 -0.5 -18.333 -1.5 -45s-10.167 -62 -27.5 -106c-42.667 -104 -112.667 -184 -210 -240c-100 -56.667 -206.667 -85 -320 -85zM647.003 1483c-23.333 0 -43.333 8.83301 -60 26.5s-25 38.834 -25 63.501
s8.33301 45.667 25 63s36.667 26 60 26s43.333 -8.66699 60 -26s25 -38.333 25 -63s-8.33301 -45.834 -25 -63.501s-36.667 -26.5 -60 -26.5z" />
    <glyph glyph-name="Agrave" unicode="&#xc0;" 
d="M131 -219c-37.333 0 -74.3291 9.00195 -110.996 27.002c-13.333 6 -20 15.667 -20 29c0 5.33301 1.33301 10.666 4 15.999c6 13.333 15.667 20 29 20c5.33301 0 10.666 -1.33301 15.999 -4c26 -12.667 52.667 -19 80 -19c82.667 0 171.334 58.667 266.001 176
c84 106.667 168.667 239 254 397c-39.333 -9.33301 -79 -14 -119 -14c-47.333 0 -95 7.33301 -143 22c-16 5.33301 -24 16 -24 32c0 3.33301 0.666992 7 2 11c6 16 16.667 24 32 24c3.33301 0 7 -0.666992 11 -2c42.667 -12 85.334 -18 128.001 -18
c52.667 0 105.667 9.33301 159 28l74 136l180 328c61.333 108 125 209 191 303c139.333 198 276.333 326 411 384c19.333 13.333 49.666 24 90.999 32c35.333 6.66699 67.333 10 96 10c20.667 0 36 -1.66699 46 -5c5.33301 -2.66699 8 -6.33398 8 -11.001
c-0.666992 -4.66699 -2.33398 -10.667 -5.00098 -18c-2 -4 -3.66699 -8.66699 -5 -14c-30.667 -96 -77.334 -222 -140.001 -378l-159 -417l22 1c75.333 0 145 -22 209 -66c9.33301 -7.33301 14 -16.666 14 -27.999c0 -6.66699 -1.66699 -13 -5 -19
c-7.33301 -10 -17 -15 -29 -15c-6.66699 0 -13 2 -19 6c-54.667 36 -111.334 54 -170.001 54c-15.333 0 -31 -1.33301 -47 -4c-52 -148 -92.667 -289.667 -122 -425c-20.667 -92 -31 -175.333 -31 -250c0 -35.333 2.33301 -68.333 7 -99
c10.667 -72.667 39 -128.334 85 -167.001c2.66699 -2.66699 4 -5.66699 4 -9c0 -8 -8.66699 -17.5 -26 -28.5s-34.333 -16.5 -51 -16.5c-10.667 0 -20.667 2 -30 6c-70 33.333 -115.333 92.333 -136 177c-12 50 -18 105.333 -18 166c0 146.667 34.333 337.667 103 573
c-58.667 -30 -118.334 -63 -179.001 -99c-131.333 -78 -238.666 -132.333 -321.999 -163c-98 -186 -196 -341.667 -294 -467c-108.667 -134.667 -214.334 -202 -317.001 -202zM793.004 544.002c80 38 158.999 80.668 236.999 128.001c82 49.333 161.667 91.666 239 126.999
c56.667 180 112.334 344 167.001 492c43.333 119.333 75 213 95 281c-159.333 -90 -334 -302.667 -524 -638zM1745 1743c-10.667 0 -23 3.66602 -37 10.999c-44.667 22.667 -86.667 59.334 -126 110.001c-22 24.667 -33 43.334 -33 56.001
c0 9.33301 5.33301 20.666 16 33.999c12.667 16 30 24 52 24c18 0 32 -10.333 42 -31c30 -80 63.667 -144.333 101 -193c-2 -7.33301 -7 -11 -15 -11z" />
    </font>
</defs>
</svg>
